SplineFontDB: 3.0
FontName: AVHersheyComplexLight
FullName: AVHershey Complex Light
FamilyName: AVHershey Complex
Weight: Light
Copyright: Made in 2016 by Stewart C. Russell - scruss.com\n\nLicence: Dual-licensed CC0/WTFPL (srsly)\n\nDerived from character stroke coordinates by Allen V. Hershey published in "Calligraphy for Computers" (US Naval Weapons Laboratory, 1967-08-01, NWL Report No. 2101, NTIS accession number AD-662 398) and elsewhere. These coordinates were published without copyright.\n\nThe efforts of the Usenet Font Consortium (James Hurt, et al) who reformatted Hershey's data and published it to mod.sources on 1986-04-01 [Volume 4, Issue 42] are greatly appreciated.
UComments: "2016-2-6: Created with FontForge (http://fontforge.org)"
Version: 000.001
ItalicAngle: 0
UnderlinePosition: -100
UnderlineWidth: 50
Ascent: 800
Descent: 200
InvalidEm: 0
LayerCount: 2
Layer: 0 0 "Back" 1
Layer: 1 0 "Fore" 0
XUID: [1021 360 -604760005 13261350]
StyleMap: 0x0000
FSType: 0
OS2Version: 0
OS2_WeightWidthSlopeOnly: 0
OS2_UseTypoMetrics: 1
CreationTime: 1454820316
ModificationTime: 1454974328
OS2TypoAscent: 0
OS2TypoAOffset: 1
OS2TypoDescent: 0
OS2TypoDOffset: 1
OS2TypoLinegap: 90
OS2WinAscent: 0
OS2WinAOffset: 1
OS2WinDescent: 0
OS2WinDOffset: 1
HheadAscent: 0
HheadAOffset: 1
HheadDescent: 0
HheadDOffset: 1
MarkAttachClasses: 1
DEI: 91125
Encoding: ISO8859-1
UnicodeInterp: none
NameList: AGL For New Fonts
DisplaySize: -48
AntiAlias: 1
FitToEm: 1
WinInfo: 58 29 11
BeginPrivate: 0
EndPrivate
BeginChars: 373 196

StartChar: exclam
Encoding: 33 33 0
Width: 277
VWidth: 0
Flags: W
HStem: 0 21G<131 145> 580 20G<129 147>
VStem: 128 20<203 273.929 444 539>
LayerCount: 2
Back
Fore
SplineSet
103 45 m 1
 131 72 l 1
 138 75 l 1
 145 72 l 1
 173 45 l 1
 176 38 l 1
 173 31 l 1
 145 3 l 1
 138 0 l 1
 131 3 l 1
 103 31 l 1
 100 38 l 1
 103 45 l 1
138 51 m 1
 125 38 l 1
 138 24 l 1
 151 38 l 1
 138 51 l 1
101 539 m 1
 129 594 l 1
 139 600 l 1
 147 594 l 1
 176 534 l 1
 148 203 l 1
 145 196 l 1
 138 193 l 1
 131 196 l 1
 128 203 l 1
 101 539 l 1
138 568 m 1
 121 533 l 1
 128 444 l 1
 129 539 l 1
 138 545 l 1
 147 539 l 1
 148 444 l 1
 155 533 l 1
 138 568 l 1
141 360 m 1
 135 360 l 1
 138 324 l 1
 141 360 l 1
EndSplineSet
EndChar

StartChar: parenleft
Encoding: 40 40 1
Width: 386
VWidth: 0
Flags: W
HStem: -193 21G<296 313>
VStem: 100 20<169 348.259> 128 20<69 93 173.778 343.222 426 449>
LayerCount: 2
Back
Fore
SplineSet
256 639 m 1
 202 531 l 1
 175 449 l 1
 148 313 l 1
 148 204 l 1
 175 68 l 1
 202 -14 l 1
 256 -122 l 1
 313 -180 l 1
 313 -187 l 1
 303 -193 l 1
 296 -190 l 1
 241 -135 l 1
 184 -50 l 1
 128 63 l 1
 100 203 l 1
 100 316 l 1
 129 456 l 1
 184 567 l 1
 240 651 l 1
 296 708 l 1
 303 710 l 1
 311 708 l 1
 313 700 l 1
 311 693 l 1
 256 639 l 1
167 487 m 1
 147 449 l 1
 120 313 l 1
 120 204 l 1
 147 69 l 1
 167 30 l 1
 156 63 l 1
 128 201 l 1
 128 314 l 1
 156 454 l 1
 167 487 l 1
EndSplineSet
EndChar

StartChar: parenright
Encoding: 41 41 2
Width: 386
VWidth: 0
Flags: W
HStem: -193 21G<74 89>
VStem: 237 20<69 93 173.778 343.222 426 449> 265 20<169 348.259>
LayerCount: 2
Back
Fore
SplineSet
129 639 m 1
 74 693 l 1
 72 700 l 1
 74 708 l 1
 82 710 l 1
 89 708 l 1
 145 651 l 1
 201 567 l 1
 256 456 l 1
 285 316 l 1
 285 203 l 1
 257 63 l 1
 201 -50 l 1
 144 -135 l 1
 89 -190 l 1
 82 -193 l 1
 74 -190 l 1
 72 -180 l 1
 129 -122 l 1
 183 -14 l 1
 210 68 l 1
 237 204 l 1
 237 313 l 1
 210 449 l 1
 183 531 l 1
 129 639 l 1
218 487 m 1
 229 454 l 1
 257 316 l 1
 257 203 l 1
 229 63 l 1
 218 30 l 1
 238 69 l 1
 265 204 l 1
 265 313 l 1
 238 449 l 1
 218 487 l 1
EndSplineSet
EndChar

StartChar: asterisk
Encoding: 42 42 3
Width: 443
VWidth: 0
Flags: W
HStem: 579 20G<211 228>
VStem: 211 20<259 407 442 590>
LayerCount: 2
Back
Fore
SplineSet
78 350 m 1
 202 424 l 1
 78 499 l 1
 73 505 l 1
 74 512 l 1
 80 517 l 1
 88 516 l 1
 211 442 l 1
 211 590 l 1
 217 599 l 1
 228 597 l 1
 231 590 l 1
 231 442 l 1
 354 516 l 1
 362 517 l 1
 368 512 l 1
 369 505 l 1
 364 499 l 1
 240 424 l 1
 364 350 l 1
 369 344 l 1
 368 336 l 1
 362 332 l 1
 354 333 l 1
 231 407 l 1
 231 259 l 1
 225 249 l 1
 214 252 l 1
 211 259 l 1
 211 407 l 1
 88 333 l 1
 80 332 l 1
 74 336 l 1
 73 344 l 1
 78 350 l 1
EndSplineSet
EndChar

StartChar: comma
Encoding: 44 44 4
Width: 277
VWidth: 0
Flags: W
HStem: -108 180 1 21G<131 147>
VStem: 156 20<-15 33>
LayerCount: 2
Back
Fore
SplineSet
125 38 m 1xa0
 147 14 l 1
 147 6 l 1
 142 1 l 1x60
 131 3 l 1
 103 31 l 1
 100 38 l 1
 103 45 l 1
 131 72 l 1
 142 74 l 1
 175 41 l 1
 176 -18 l 1
 147 -77 l 1
 117 -108 l 1
 110 -110 l 1
 103 -108 l 1
 101 -97 l 1
 130 -67 l 1
 156 -15 l 1
 156 33 l 1
 138 51 l 1
 125 38 l 1xa0
EndSplineSet
EndChar

StartChar: period
Encoding: 46 46 5
Width: 277
VWidth: 0
Flags: W
HStem: 3 69
VStem: 103 70
LayerCount: 2
Back
Fore
SplineSet
103 45 m 1
 131 72 l 1
 138 75 l 1
 145 72 l 1
 173 45 l 1
 176 38 l 1
 173 31 l 1
 145 3 l 1
 138 0 l 1
 131 3 l 1
 103 31 l 1
 100 38 l 1
 103 45 l 1
138 51 m 1
 125 38 l 1
 138 24 l 1
 151 38 l 1
 138 51 l 1
EndSplineSet
EndChar

StartChar: slash
Encoding: 47 47 6
Width: 607
VWidth: 0
Flags: W
HStem: -193 21G<50 63>
LayerCount: 2
Back
Fore
SplineSet
46 -178 m 1
 543 705 l 1
 549 710 l 1
 556 709 l 1
 561 703 l 1
 560 696 l 1
 63 -188 l 1
 57 -193 l 1
 50 -192 l 1
 45 -186 l 1
 46 -178 l 1
EndSplineSet
EndChar

StartChar: zero
Encoding: 48 48 7
Width: 551
VWidth: 0
Flags: W
HStem: 1 19<250 300> 580 20<250 300>
VStem: 72 20<224.741 375.259> 99 20<124 144.926 224.741 375.259 458.704 476> 431 20<124 141.296 224.741 375.259 455.074 476> 458 20<224.741 375.259>
LayerCount: 2
Back
Fore
SplineSet
247 600 m 1
 306 599 l 1
 394 568 l 1
 451 481 l 1
 478 341 l 1
 478 257 l 1
 449 115 l 1
 392 30 l 1
 303 0 l 1
 244 1 l 1
 156 32 l 1
 99 119 l 1
 72 259 l 1
 72 343 l 1
 101 485 l 1
 158 570 l 1
 247 600 l 1
139 94 m 1
 127 119 l 1
 99 257 l 1
 99 341 l 1
 127 481 l 1
 139 506 l 1
 119 476 l 1
 92 340 l 1
 92 260 l 1
 119 124 l 1
 139 94 l 1
411 506 m 1
 423 481 l 1
 451 341 l 1
 451 257 l 1
 423 119 l 1
 411 94 l 1
 431 124 l 1
 458 260 l 1
 458 340 l 1
 431 476 l 1
 411 506 l 1
300 580 m 1
 250 580 l 1
 198 554 l 1
 173 529 l 1
 146 476 l 1
 119 340 l 1
 119 260 l 1
 146 124 l 1
 173 71 l 1
 198 46 l 1
 250 20 l 1
 300 20 l 1
 352 46 l 1
 377 71 l 1
 404 124 l 1
 431 260 l 1
 431 340 l 1
 404 476 l 1
 377 529 l 1
 352 554 l 1
 300 580 l 1
EndSplineSet
EndChar

StartChar: one
Encoding: 49 49 8
Width: 552
VWidth: 0
Flags: W
HStem: 0 20<166 266 286 294 314 414> 580 20G<297 311>
VStem: 266 20<20 538> 294 20<20 566>
LayerCount: 2
Back
Fore
SplineSet
225 498 m 1
 170 471 l 1
 162 470 l 1
 157 475 l 1
 156 483 l 1
 161 488 l 1
 215 515 l 1
 297 597 l 1
 304 600 l 1
 311 597 l 1
 314 590 l 1
 314 20 l 1
 414 20 l 1
 423 14 l 1
 423 6 l 1
 418 1 l 1
 166 0 l 1
 156 6 l 1
 158 17 l 1
 166 20 l 1
 266 20 l 1
 266 538 l 1
 225 498 l 1
286 558 m 1
 286 20 l 1
 294 20 l 1
 294 566 l 1
 286 558 l 1
EndSplineSet
EndChar

StartChar: two
Encoding: 50 50 9
Width: 551
VWidth: 0
Flags: W
HStem: 0 20<305 409> 28 20<305 383> 83 20<113 162> 580 20<221 328>
VStem: 72 20<10 61 456 477> 431 20<427 477> 458 20<97 148 427 477>
LayerCount: 2
Back
Fore
SplineSet
72 65 m 1
 72 96 l 1
 102 183 l 1
 160 240 l 1
 325 322 l 1
 405 376 l 1
 431 427 l 1
 431 477 l 1
 405 529 l 1
 380 554 l 1
 328 580 l 1
 221 580 l 1
 142 554 l 1
 118 529 l 1
 92 477 l 1
 92 456 l 1
 109 438 l 1
 123 452 l 1
 100 476 l 1
 100 483 l 1
 109 490 l 1
 116 487 l 1
 144 459 l 1
 147 452 l 1
 144 445 l 1
 116 417 l 1
 105 415 l 1
 75 445 l 1
 72 452 l 1
 73 484 l 1
 100 539 l 1
 134 572 l 1
 220 600 l 1
 331 600 l 1
 420 569 l 1
 450 539 l 1
 478 480 l 1
 477 420 l 1
 450 365 l 1
 362 305 l 1
 224 249 l 1
 170 223 l 1
 118 170 l 1
 92 89 l 1
 109 103 l 1
 166 103 l 1
 305 48 l 1
 383 48 l 1
 435 73 l 1
 458 97 l 1
 458 148 l 1
 461 155 l 1
 468 158 l 1
 475 155 l 1
 478 148 l 1
 478 93 l 1
 450 33 l 1
 417 1 l 1
 303 0 l 1
 162 83 l 1
 113 83 l 1
 92 61 l 1
 92 10 l 1
 89 3 l 1
 82 0 l 1
 75 3 l 1
 72 10 l 1
 72 65 l 1
277 37 m 1
 305 20 l 1
 409 20 l 1
 432 44 l 1
 437 52 l 1
 385 28 l 1
 303 28 l 1
 277 37 l 1
425 371 m 1
 433 376 l 1
 458 427 l 1
 458 477 l 1
 432 529 l 1
 422 539 l 1
 451 480 l 1
 451 424 l 1
 425 371 l 1
EndSplineSet
EndChar

StartChar: three
Encoding: 51 51 10
Width: 551
VWidth: 0
Flags: W
HStem: 1 19<221 328> 331 20<247 328> 580 20<221 328>
VStem: 72 20<123 144 456 477> 403 20<427 505> 431 20<123 202 427 505> 458 19<123 201>
LayerCount: 2
Back
Fore
SplineSet
123 452 m 1
 100 476 l 1
 100 483 l 1
 105 489 l 1
 116 487 l 1
 144 459 l 1
 147 452 l 1
 144 445 l 1
 116 417 l 1
 105 415 l 1
 72 448 l 1
 72 480 l 1
 100 539 l 1
 134 572 l 1
 220 600 l 1
 330 600 l 1
 416 572 l 1
 422 567 l 1
 451 507 l 1
 450 420 l 1
 420 361 l 1
 356 340 l 1
 393 321 l 1
 448 266 l 1
 478 203 l 1
 477 116 l 1
 450 61 l 1
 420 31 l 1
 331 0 l 1
 217 1 l 1
 130 31 l 1
 100 61 l 1
 72 120 l 1
 72 152 l 1
 102 183 l 1
 113 185 l 1
 144 155 l 1
 147 148 l 1
 144 141 l 1
 116 113 l 1
 109 110 l 1
 102 113 l 1
 100 124 l 1
 123 148 l 1
 109 162 l 1
 92 144 l 1
 92 123 l 1
 118 71 l 1
 142 46 l 1
 221 20 l 1
 328 20 l 1
 380 46 l 1
 405 71 l 1
 431 123 l 1
 431 202 l 1
 404 281 l 1
 380 306 l 1
 328 331 l 1
 247 331 l 1
 240 334 l 1
 237 341 l 1
 240 348 l 1
 247 351 l 1
 328 351 l 1
 378 377 l 1
 403 427 l 1
 403 505 l 1
 378 555 l 1
 328 580 l 1
 221 580 l 1
 142 554 l 1
 118 529 l 1
 92 477 l 1
 92 456 l 1
 109 438 l 1
 123 452 l 1
400 556 m 1
 423 507 l 1
 423 424 l 1
 400 375 l 1
 406 377 l 1
 431 427 l 1
 431 505 l 1
 406 554 l 1
 400 556 l 1
422 61 m 1
 432 71 l 1
 458 123 l 1
 458 201 l 1
 439 239 l 1
 451 203 l 1
 451 120 l 1
 422 61 l 1
EndSplineSet
EndChar

StartChar: four
Encoding: 52 52 11
Width: 553
VWidth: 0
Flags: W
HStem: 0 20<248 321 341 349 369 442> 166 20<75 321 341 349 369 497> 580 20G<351 365>
VStem: 321 20<20 166 186 522> 349 20<20 166 186 559>
LayerCount: 2
Back
Fore
SplineSet
47 182 m 1
 351 596 l 1
 357 600 l 1
 365 598 l 1
 369 590 l 1
 369 186 l 1
 497 186 l 1
 504 183 l 1
 507 176 l 1
 504 169 l 1
 497 166 l 1
 369 166 l 1
 369 20 l 1
 446 19 l 1
 452 10 l 1
 449 3 l 1
 442 0 l 1
 248 0 l 1
 241 3 l 1
 239 14 l 1
 245 19 l 1
 321 20 l 1
 321 166 l 1
 55 166 l 1
 46 171 l 1
 47 182 l 1
349 559 m 1
 337 543 l 1
 341 535 l 1
 341 186 l 1
 349 186 l 1
 349 559 l 1
321 522 m 1
 75 186 l 1
 321 186 l 1
 321 522 l 1
341 20 m 1
 349 20 l 1
 349 166 l 1
 341 166 l 1
 341 20 l 1
EndSplineSet
EndChar

StartChar: five
Encoding: 53 53 12
Width: 552
VWidth: 0
Flags: W
HStem: 1 19<221 300> 387 19<221 300> 552 20<144 307.25> 580 20<145 312 379.222 413>
VStem: 72 20<123 144> 431 20<177 229> 458 20<177 229>
LayerCount: 2
Back
Fore
SplineSet
72 313 m 1
 127 592 l 1
 131 598 l 1
 413 600 l 1
 421 596 l 1
 422 586 l 1
 415 580 l 1
 277 553 l 1
 140 552 l 1
 98 344 l 1
 134 379 l 1
 217 406 l 1
 303 407 l 1
 389 379 l 1
 448 321 l 1
 478 234 l 1
 478 173 l 1
 450 90 l 1
 393 31 l 1
 303 0 l 1
 217 1 l 1
 130 31 l 1
 100 61 l 1
 72 120 l 1
 72 152 l 1
 102 183 l 1
 113 185 l 1
 144 155 l 1
 146 144 l 1
 116 113 l 1
 105 111 l 1
 100 117 l 1
 100 124 l 1
 123 148 l 1
 109 162 l 1
 92 144 l 1
 92 123 l 1
 118 71 l 1
 142 46 l 1
 221 20 l 1
 300 20 l 1
 352 46 l 1
 404 98 l 1
 431 177 l 1
 431 229 l 1
 404 308 l 1
 352 361 l 1
 300 387 l 1
 221 387 l 1
 142 360 l 1
 85 305 l 1
 76 306 l 1
 72 313 l 1
421 319 m 1
 450 234 l 1
 451 176 l 1
 421 88 l 1
 432 98 l 1
 458 177 l 1
 458 229 l 1
 432 308 l 1
 421 319 l 1
144 572 m 1
 274 572 l 1
 312 580 l 1
 145 580 l 1
 144 572 l 1
EndSplineSet
EndChar

StartChar: six
Encoding: 54 54 13
Width: 552
VWidth: 0
Flags: W
HStem: 1 19<250 300> 359 20<277 300> 580 20<277 355>
VStem: 72 20<177 368> 99 20<177 202 265 368 429.556 448> 431 20<177 202 484 505> 458 20<177 202>
LayerCount: 2
Back
Fore
SplineSet
119 265 m 1
 130 293 l 1
 185 348 l 1
 272 379 l 1
 306 379 l 1
 389 351 l 1
 450 289 l 1
 478 206 l 1
 478 173 l 1
 448 86 l 1
 389 28 l 1
 303 0 l 1
 244 1 l 1
 161 28 l 1
 102 86 l 1
 72 176 l 1
 72 344 l 1
 100 454 l 1
 130 514 l 1
 189 572 l 1
 274 600 l 1
 358 600 l 1
 420 569 l 1
 450 512 l 1
 451 480 l 1
 448 472 l 1
 417 443 l 1
 406 445 l 1
 378 472 l 1
 376 483 l 1
 406 514 l 1
 417 516 l 1
 422 511 l 1
 422 503 l 1
 400 480 l 1
 413 466 l 1
 431 484 l 1
 431 505 l 1
 406 555 l 1
 355 580 l 1
 277 580 l 1
 226 554 l 1
 173 501 l 1
 146 448 l 1
 119 340 l 1
 119 265 l 1
421 292 m 1
 450 206 l 1
 451 176 l 1
 421 88 l 1
 432 98 l 1
 458 177 l 1
 458 202 l 1
 432 281 l 1
 421 292 l 1
300 359 m 1
 277 359 l 1
 198 333 l 1
 146 281 l 1
 119 202 l 1
 119 177 l 1
 146 98 l 1
 198 46 l 1
 250 20 l 1
 300 20 l 1
 352 46 l 1
 404 98 l 1
 431 177 l 1
 431 202 l 1
 404 281 l 1
 352 333 l 1
 300 359 l 1
129 88 m 1
 99 176 l 1
 99 341 l 1
 127 454 l 1
 156 512 l 1
 145 501 l 1
 119 448 l 1
 92 340 l 1
 92 177 l 1
 118 98 l 1
 129 88 l 1
EndSplineSet
EndChar

StartChar: seven
Encoding: 55 55 14
Width: 551
VWidth: 0
Flags: W
HStem: 0 22G<240 254 268 285> 497 20<361 409> 552 19<167 218> 580 19<169 217>
VStem: 72 20<424 477 522 590> 237 20<10 146> 265 20<10 146> 458 20<509 548>
LayerCount: 2
Back
Fore
SplineSet
72 424 m 1
 72 590 l 1
 78 599 l 1
 89 597 l 1
 92 590 l 1
 92 522 l 1
 102 541 l 1
 161 599 l 1
 220 600 l 1
 361 517 l 1
 409 517 l 1
 432 541 l 1
 461 597 l 1
 469 600 l 1
 478 594 l 1
 478 507 l 1
 450 420 l 1
 339 281 l 1
 312 227 l 1
 285 146 l 1
 285 10 l 1
 279 1 l 1
 268 3 l 1
 265 10 l 1
 265 148 l 1
 293 234 l 1
 321 291 l 1
 311 280 l 1
 284 227 l 1
 257 146 l 1
 257 10 l 1
 254 3 l 1
 247 0 l 1
 240 3 l 1
 237 10 l 1
 238 151 l 1
 266 234 l 1
 294 291 l 1
 432 430 l 1
 458 509 l 1
 458 548 l 1
 448 528 l 1
 417 498 l 1
 358 497 l 1
 218 552 l 1
 167 552 l 1
 117 527 l 1
 92 477 l 1
 91 420 l 1
 85 415 l 1
 78 415 l 1
 72 424 l 1
160 571 m 1
 220 572 l 1
 246 563 l 1
 217 580 l 1
 169 580 l 1
 160 571 l 1
EndSplineSet
EndChar

StartChar: eight
Encoding: 56 56 15
Width: 551
VWidth: 0
Flags: W
HStem: 0 20<222 328> 331 20<222 328> 580 20<222 328>
VStem: 72 20<123 229> 99 20<123 229 427 505> 127 20<427 505> 403 20<427 505> 431 20<123 229 427 505> 458 19<123 229>
LayerCount: 2
Back
Fore
SplineSet
219 600 m 1
 331 600 l 1
 416 572 l 1
 422 567 l 1
 451 507 l 1
 451 424 l 1
 422 365 l 1
 416 360 l 1
 362 341 l 1
 416 323 l 1
 450 291 l 1
 478 231 l 1
 477 116 l 1
 450 61 l 1
 420 31 l 1
 331 0 l 1
 219 0 l 1
 134 28 l 1
 100 61 l 1
 72 120 l 1
 72 231 l 1
 100 291 l 1
 134 323 l 1
 188 341 l 1
 134 360 l 1
 128 365 l 1
 99 424 l 1
 100 512 l 1
 130 570 l 1
 219 600 l 1
128 291 m 1
 118 280 l 1
 92 229 l 1
 92 123 l 1
 118 71 l 1
 128 61 l 1
 99 120 l 1
 99 231 l 1
 128 291 l 1
222 351 m 1
 328 351 l 1
 378 377 l 1
 403 427 l 1
 403 505 l 1
 378 555 l 1
 328 580 l 1
 222 580 l 1
 172 555 l 1
 147 505 l 1
 147 427 l 1
 172 377 l 1
 222 351 l 1
400 556 m 1
 423 507 l 1
 423 424 l 1
 400 375 l 1
 406 377 l 1
 431 427 l 1
 431 505 l 1
 406 554 l 1
 400 556 l 1
328 331 m 1
 222 331 l 1
 170 306 l 1
 145 280 l 1
 119 229 l 1
 119 123 l 1
 145 71 l 1
 170 46 l 1
 222 20 l 1
 328 20 l 1
 380 46 l 1
 405 71 l 1
 431 123 l 1
 431 229 l 1
 405 280 l 1
 380 306 l 1
 328 331 l 1
150 375 m 1
 127 424 l 1
 127 507 l 1
 150 556 l 1
 144 554 l 1
 119 505 l 1
 119 427 l 1
 144 377 l 1
 150 375 l 1
422 61 m 1
 432 71 l 1
 458 123 l 1
 458 229 l 1
 432 280 l 1
 422 291 l 1
 451 231 l 1
 451 120 l 1
 422 61 l 1
EndSplineSet
EndChar

StartChar: nine
Encoding: 57 57 16
Width: 551
VWidth: 0
Flags: W
HStem: 0 20<195 273> 221 20<250 273> 580 20<250 300>
VStem: 72 20<398 423> 100 19<95 116 398 423> 431 20<152 169.556 232 335 398 423> 458 20<232 423>
LayerCount: 2
Back
Fore
SplineSet
247 600 m 1
 303 600 l 1
 389 572 l 1
 448 514 l 1
 478 424 l 1
 478 259 l 1
 450 144 l 1
 420 86 l 1
 365 31 l 1
 276 0 l 1
 192 0 l 1
 128 33 l 1
 100 88 l 1
 99 120 l 1
 102 128 l 1
 130 155 l 1
 137 158 l 1
 144 155 l 1
 174 124 l 1
 172 113 l 1
 144 86 l 1
 137 83 l 1
 130 86 l 1
 128 97 l 1
 150 120 l 1
 137 134 l 1
 119 116 l 1
 119 95 l 1
 144 45 l 1
 195 20 l 1
 273 20 l 1
 324 46 l 1
 377 99 l 1
 404 152 l 1
 431 260 l 1
 431 335 l 1
 420 307 l 1
 365 252 l 1
 275 221 l 1
 244 221 l 1
 161 249 l 1
 100 311 l 1
 72 394 l 1
 72 424 l 1
 100 510 l 1
 161 572 l 1
 247 600 l 1
129 308 m 1
 100 394 l 1
 99 424 l 1
 129 512 l 1
 118 502 l 1
 92 423 l 1
 92 398 l 1
 118 319 l 1
 129 308 l 1
250 580 m 1
 198 554 l 1
 146 502 l 1
 119 423 l 1
 119 398 l 1
 146 319 l 1
 198 267 l 1
 250 241 l 1
 273 241 l 1
 352 267 l 1
 404 319 l 1
 431 398 l 1
 431 423 l 1
 404 502 l 1
 352 554 l 1
 300 580 l 1
 250 580 l 1
421 512 m 1
 451 424 l 1
 451 259 l 1
 423 146 l 1
 394 88 l 1
 405 99 l 1
 431 152 l 1
 458 260 l 1
 458 423 l 1
 432 502 l 1
 421 512 l 1
EndSplineSet
EndChar

StartChar: colon
Encoding: 58 58 17
Width: 277
VWidth: 0
Flags: W
HStem: 0 21G<131 145> 387 20G<131 145>
VStem: 103 70
LayerCount: 2
Back
Fore
SplineSet
103 376 m 1
 131 404 l 1
 138 407 l 1
 145 404 l 1
 173 376 l 1
 176 369 l 1
 173 362 l 1
 145 334 l 1
 138 331 l 1
 131 334 l 1
 103 362 l 1
 100 369 l 1
 103 376 l 1
138 383 m 1
 125 369 l 1
 138 356 l 1
 151 369 l 1
 138 383 l 1
103 45 m 1
 131 72 l 1
 138 75 l 1
 145 72 l 1
 173 45 l 1
 176 38 l 1
 173 31 l 1
 145 3 l 1
 138 0 l 1
 131 3 l 1
 103 31 l 1
 100 38 l 1
 103 45 l 1
138 51 m 1
 125 38 l 1
 138 24 l 1
 151 38 l 1
 138 51 l 1
EndSplineSet
EndChar

StartChar: semicolon
Encoding: 59 59 18
Width: 277
VWidth: 0
Flags: W
HStem: 1 21G<131 147> 387 20G<131 145>
VStem: 156 20<-15 33>
LayerCount: 2
Back
Fore
SplineSet
103 376 m 1
 131 404 l 1
 138 407 l 1
 145 404 l 1
 173 376 l 1
 176 369 l 1
 173 362 l 1
 145 334 l 1
 138 331 l 1
 131 334 l 1
 103 362 l 1
 100 369 l 1
 103 376 l 1
138 383 m 1
 125 369 l 1
 138 356 l 1
 151 369 l 1
 138 383 l 1
125 38 m 1
 147 14 l 1
 147 6 l 1
 142 1 l 1
 131 3 l 1
 103 31 l 1
 100 38 l 1
 103 45 l 1
 131 72 l 1
 142 74 l 1
 175 41 l 1
 176 -18 l 1
 147 -77 l 1
 117 -108 l 1
 110 -110 l 1
 103 -108 l 1
 101 -97 l 1
 130 -67 l 1
 156 -15 l 1
 156 33 l 1
 138 51 l 1
 125 38 l 1
EndSplineSet
EndChar

StartChar: question
Encoding: 63 63 19
Width: 499
VWidth: 0
Flags: W
HStem: 0 21G<242 256> 580 20<196 274>
VStem: 74 19<456 477> 239 20<203 280> 377 20<427 477> 405 20<427 477>
LayerCount: 2
Back
Fore
SplineSet
124 452 m 1
 102 476 l 1
 102 483 l 1
 107 489 l 1
 118 487 l 1
 146 459 l 1
 149 452 l 1
 146 445 l 1
 118 417 l 1
 107 415 l 1
 74 448 l 1
 73 480 l 1
 102 539 l 1
 131 569 l 1
 194 600 l 1
 277 600 l 1
 363 572 l 1
 394 542 l 1
 424 484 l 1
 425 424 l 1
 396 365 l 1
 367 334 l 1
 259 280 l 1
 259 203 l 1
 256 196 l 1
 249 193 l 1
 242 196 l 1
 239 203 l 1
 240 290 l 1
 245 295 l 1
 298 322 l 1
 351 375 l 1
 377 427 l 1
 377 477 l 1
 351 529 l 1
 326 554 l 1
 274 580 l 1
 196 580 l 1
 144 554 l 1
 119 529 l 1
 93 477 l 1
 93 456 l 1
 111 438 l 1
 124 452 l 1
368 539 m 1
 396 484 l 1
 397 424 l 1
 368 364 l 1
 379 375 l 1
 405 427 l 1
 405 477 l 1
 379 529 l 1
 368 539 l 1
214 45 m 1
 242 72 l 1
 249 75 l 1
 256 72 l 1
 284 45 l 1
 287 38 l 1
 284 31 l 1
 256 3 l 1
 249 0 l 1
 242 3 l 1
 214 31 l 1
 211 38 l 1
 214 45 l 1
249 51 m 1
 236 38 l 1
 249 24 l 1
 262 38 l 1
 249 51 l 1
EndSplineSet
EndChar

StartChar: A
Encoding: 65 65 20
Width: 553
VWidth: 0
Flags: W
HStem: 0 20<27 75 97 193 359 428 449 455 477 525> 166 20<152 373> 579 20G<267 285>
LayerCount: 2
Back
Fore
SplineSet
75 20 m 1
 267 593 l 1
 272 599 l 1
 279 599 l 1
 285 593 l 1
 477 20 l 1
 528 19 l 1
 534 14 l 1
 534 6 l 1
 525 0 l 1
 359 0 l 1
 352 3 l 1
 350 14 l 1
 355 19 l 1
 428 20 l 1
 379 166 l 1
 145 166 l 1
 97 20 l 1
 193 20 l 1
 200 17 l 1
 202 6 l 1
 193 0 l 1
 27 0 l 1
 18 6 l 1
 18 14 l 1
 24 19 l 1
 75 20 l 1
276 558 m 1
 152 186 l 1
 373 186 l 1
 267 504 l 1
 269 515 l 1
 280 516 l 1
 285 510 l 1
 449 20 l 1
 455 20 l 1
 276 558 l 1
EndSplineSet
EndChar

StartChar: B
Encoding: 66 66 21
Width: 609
VWidth: 0
Flags: W
HStem: 0 20<55 128 148 156 176 384> 304 20<176 384> 580 20<55 128 148 156 176 384>
VStem: 128 20<20 580> 156 20<20 304 324 580> 487 20<123 201 427 477> 515 19<123 201 427 477>
LayerCount: 2
Back
Fore
SplineSet
128 580 m 1
 55 580 l 1
 48 583 l 1
 45 590 l 1
 48 597 l 1
 55 600 l 1
 388 600 l 1
 473 572 l 1
 506 539 l 1
 535 480 l 1
 534 420 l 1
 506 365 l 1
 477 334 l 1
 418 314 l 1
 477 293 l 1
 506 263 l 1
 535 203 l 1
 534 116 l 1
 506 61 l 1
 477 31 l 1
 388 0 l 1
 55 0 l 1
 46 6 l 1
 48 17 l 1
 55 20 l 1
 128 20 l 1
 128 580 l 1
148 580 m 1
 148 20 l 1
 156 20 l 1
 156 580 l 1
 148 580 l 1
176 20 m 1
 384 20 l 1
 436 46 l 1
 461 71 l 1
 487 123 l 1
 487 201 l 1
 461 253 l 1
 436 278 l 1
 384 304 l 1
 176 304 l 1
 176 20 l 1
176 324 m 1
 384 324 l 1
 436 350 l 1
 461 375 l 1
 487 427 l 1
 487 477 l 1
 461 529 l 1
 436 554 l 1
 384 580 l 1
 176 580 l 1
 176 324 l 1
479 539 m 1
 507 480 l 1
 506 420 l 1
 479 364 l 1
 489 375 l 1
 515 427 l 1
 515 477 l 1
 489 529 l 1
 479 539 l 1
479 61 m 1
 489 71 l 1
 515 123 l 1
 515 201 l 1
 489 253 l 1
 479 263 l 1
 507 203 l 1
 507 120 l 1
 479 61 l 1
EndSplineSet
EndChar

StartChar: C
Encoding: 67 67 22
Width: 580
VWidth: 0
Flags: W
HStem: 1 19<279 330> 580 19<279 330>
VStem: 73 20<233 367> 101 20<233 367> 487 20<486 528>
LayerCount: 2
Back
Fore
SplineSet
279 580 m 1
 227 554 l 1
 174 501 l 1
 148 448 l 1
 121 367 l 1
 121 233 l 1
 148 152 l 1
 174 99 l 1
 227 46 l 1
 279 20 l 1
 330 20 l 1
 409 46 l 1
 461 99 l 1
 491 156 l 1
 498 158 l 1
 505 155 l 1
 506 144 l 1
 479 88 l 1
 422 31 l 1
 332 0 l 1
 273 1 l 1
 186 31 l 1
 129 88 l 1
 101 145 l 1
 73 231 l 1
 73 369 l 1
 101 455 l 1
 131 514 l 1
 190 572 l 1
 276 600 l 1
 335 599 l 1
 418 572 l 1
 465 526 l 1
 488 593 l 1
 493 599 l 1
 501 599 l 1
 507 590 l 1
 507 420 l 1
 497 414 l 1
 490 418 l 1
 461 502 l 1
 409 554 l 1
 330 580 l 1
 279 580 l 1
157 88 m 1
 129 145 l 1
 101 228 l 1
 101 369 l 1
 129 455 l 1
 157 512 l 1
 147 501 l 1
 120 448 l 1
 93 367 l 1
 93 233 l 1
 120 152 l 1
 147 99 l 1
 157 88 l 1
480 507 m 1
 487 486 l 1
 487 528 l 1
 480 507 l 1
EndSplineSet
EndChar

StartChar: D
Encoding: 68 68 23
Width: 609
VWidth: 0
Flags: W
HStem: 0 20<55 128 148 156 176 329> 580 20<55 128 148 156 176 329>
VStem: 128 20<20 580> 156 20<20 580> 487 20<233 367> 515 20<233 367>
LayerCount: 2
Back
Fore
SplineSet
128 580 m 1
 55 580 l 1
 48 583 l 1
 45 590 l 1
 48 597 l 1
 55 600 l 1
 332 600 l 1
 418 572 l 1
 479 512 l 1
 507 455 l 1
 534 372 l 1
 535 231 l 1
 507 145 l 1
 479 88 l 1
 418 28 l 1
 332 0 l 1
 55 0 l 1
 46 6 l 1
 48 17 l 1
 55 20 l 1
 128 20 l 1
 128 580 l 1
148 580 m 1
 148 20 l 1
 156 20 l 1
 156 580 l 1
 148 580 l 1
176 20 m 1
 329 20 l 1
 381 46 l 1
 434 99 l 1
 460 152 l 1
 487 233 l 1
 487 367 l 1
 460 448 l 1
 434 501 l 1
 381 554 l 1
 329 580 l 1
 176 580 l 1
 176 20 l 1
451 512 m 1
 479 455 l 1
 507 372 l 1
 507 231 l 1
 479 145 l 1
 451 88 l 1
 461 99 l 1
 488 152 l 1
 515 233 l 1
 515 367 l 1
 488 448 l 1
 461 501 l 1
 451 512 l 1
EndSplineSet
EndChar

StartChar: E
Encoding: 69 69 24
Width: 580
VWidth: 0
Flags: W
HStem: 0 20<55 128 148 156 176 461 482 487> 304 20<176 322> 580 20<55 128 148 156 176 461 482 487>
VStem: 128 20<20 580> 156 20<20 304 324 580> 322 20<203 304 324 424> 461 21<20 55 545 580> 487 20<20 55 134.731 176 424 465.269 545 580>
LayerCount: 2
Back
Fore
SplineSet
128 580 m 1
 55 580 l 1
 48 583 l 1
 45 590 l 1
 48 597 l 1
 55 600 l 1
 497 600 l 1
 507 594 l 1
 507 424 l 1
 505 418 l 1
 498 414 l 1
 491 416 l 1
 487 423 l 1
 461 580 l 1
 176 580 l 1
 176 324 l 1
 322 324 l 1
 322 424 l 1
 328 434 l 1
 339 431 l 1
 342 424 l 1
 342 203 l 1
 335 194 l 1
 328 194 l 1
 322 200 l 1
 322 304 l 1
 176 304 l 1
 176 20 l 1
 461 20 l 1
 487 177 l 1
 491 184 l 1
 498 186 l 1
 505 182 l 1
 507 176 l 1
 507 10 l 1
 501 1 l 1
 55 0 l 1
 46 6 l 1
 48 17 l 1
 55 20 l 1
 128 20 l 1
 128 580 l 1
148 580 m 1
 148 20 l 1
 156 20 l 1
 156 580 l 1
 148 580 l 1
482 580 m 1
 487 545 l 1
 487 580 l 1
 482 580 l 1
482 20 m 1
 487 20 l 1
 487 55 l 1
 482 20 l 1
EndSplineSet
EndChar

StartChar: F
Encoding: 70 70 25
Width: 553
VWidth: 0
Flags: W
HStem: 0 20<55 128 148 156 176 253> 304 20<176 322> 580 20<55 128 148 156 176 461 482 487>
VStem: 128 20<20 580> 156 20<20 304 324 580> 322 20<203 304 324 424> 461 21<545 580> 487 20<424 465.269 545 580>
LayerCount: 2
Back
Fore
SplineSet
128 580 m 1
 55 580 l 1
 48 583 l 1
 45 590 l 1
 48 597 l 1
 55 600 l 1
 497 600 l 1
 507 594 l 1
 507 424 l 1
 505 418 l 1
 498 414 l 1
 491 416 l 1
 487 423 l 1
 461 580 l 1
 176 580 l 1
 176 324 l 1
 322 324 l 1
 322 428 l 1
 328 434 l 1
 335 434 l 1
 342 424 l 1
 342 203 l 1
 339 196 l 1
 328 194 l 1
 322 203 l 1
 322 304 l 1
 176 304 l 1
 176 20 l 1
 253 19 l 1
 259 10 l 1
 253 1 l 1
 55 0 l 1
 46 6 l 1
 48 17 l 1
 55 20 l 1
 128 20 l 1
 128 580 l 1
148 580 m 1
 148 20 l 1
 156 20 l 1
 156 580 l 1
 148 580 l 1
482 580 m 1
 487 545 l 1
 487 580 l 1
 482 580 l 1
EndSplineSet
EndChar

StartChar: G
Encoding: 71 71 26
Width: 635
VWidth: 0
Flags: W
HStem: 1 19<279 330> 221 20<387 460 480 487 507 584> 580 19<279 330>
VStem: 73 20<233 367> 101 20<233 367> 460 20<10 69 97 221> 487 20<10 221 486 528>
LayerCount: 2
Back
Fore
SplineSet
279 580 m 1
 227 554 l 1
 174 501 l 1
 148 448 l 1
 121 367 l 1
 121 233 l 1
 148 152 l 1
 174 99 l 1
 227 46 l 1
 279 20 l 1
 330 20 l 1
 409 46 l 1
 460 97 l 1
 460 221 l 1
 383 222 l 1
 378 227 l 1
 380 238 l 1
 387 241 l 1
 584 240 l 1
 590 231 l 1
 584 222 l 1
 507 221 l 1
 507 10 l 1
 501 1 l 1
 490 3 l 1
 487 10 l 1
 487 221 l 1
 480 221 l 1
 480 10 l 1
 477 3 l 1
 470 0 l 1
 463 3 l 1
 460 10 l 1
 460 69 l 1
 418 28 l 1
 332 0 l 1
 273 1 l 1
 190 28 l 1
 131 86 l 1
 101 145 l 1
 73 231 l 1
 74 372 l 1
 101 455 l 1
 129 512 l 1
 186 569 l 1
 273 599 l 1
 332 600 l 1
 418 572 l 1
 465 526 l 1
 488 593 l 1
 493 599 l 1
 501 599 l 1
 507 590 l 1
 507 420 l 1
 497 414 l 1
 490 418 l 1
 461 502 l 1
 409 554 l 1
 330 580 l 1
 279 580 l 1
157 88 m 1
 129 145 l 1
 101 228 l 1
 101 369 l 1
 129 455 l 1
 157 512 l 1
 147 501 l 1
 120 448 l 1
 93 367 l 1
 93 233 l 1
 120 152 l 1
 147 99 l 1
 157 88 l 1
480 507 m 1
 487 486 l 1
 487 528 l 1
 480 507 l 1
EndSplineSet
EndChar

StartChar: H
Encoding: 72 72 27
Width: 661
VWidth: 0
Flags: W
HStem: 0 20<54 127 147 154 174 247 413 486 506 513 533 606> 304 20<174 486> 580 20<54 127 147 154 174 247 413 486 506 513 533 606>
VStem: 127 20<20 580> 154 20<20 304 324 580> 486 20<20 304 324 580> 513 20<20 580>
LayerCount: 2
Back
Fore
SplineSet
127 580 m 1
 54 580 l 1
 47 583 l 1
 44 590 l 1
 47 597 l 1
 54 600 l 1
 247 600 l 1
 254 597 l 1
 257 590 l 1
 254 583 l 1
 247 580 l 1
 174 580 l 1
 174 324 l 1
 486 324 l 1
 486 580 l 1
 413 580 l 1
 406 583 l 1
 404 594 l 1
 413 600 l 1
 606 600 l 1
 613 597 l 1
 615 586 l 1
 610 581 l 1
 533 580 l 1
 533 20 l 1
 610 19 l 1
 615 14 l 1
 613 3 l 1
 606 0 l 1
 413 0 l 1
 404 6 l 1
 404 14 l 1
 413 20 l 1
 486 20 l 1
 486 304 l 1
 174 304 l 1
 174 20 l 1
 247 20 l 1
 254 17 l 1
 256 6 l 1
 247 0 l 1
 54 0 l 1
 47 3 l 1
 44 10 l 1
 50 19 l 1
 127 20 l 1
 127 580 l 1
147 580 m 1
 147 20 l 1
 154 20 l 1
 154 580 l 1
 147 580 l 1
506 580 m 1
 506 20 l 1
 513 20 l 1
 513 580 l 1
 506 580 l 1
EndSplineSet
EndChar

StartChar: I
Encoding: 73 73 28
Width: 304
VWidth: 0
Flags: W
HStem: 0 20<55 128 148 156 176 252> 580 20<55 128 148 156 176 248>
VStem: 128 20<20 580> 156 20<20 580>
LayerCount: 2
Back
Fore
SplineSet
128 580 m 1
 55 580 l 1
 48 583 l 1
 45 590 l 1
 48 597 l 1
 55 600 l 1
 248 600 l 1
 258 594 l 1
 258 586 l 1
 248 580 l 1
 176 580 l 1
 176 20 l 1
 252 19 l 1
 258 10 l 1
 252 1 l 1
 55 0 l 1
 46 6 l 1
 46 14 l 1
 55 20 l 1
 128 20 l 1
 128 580 l 1
148 580 m 1
 148 20 l 1
 156 20 l 1
 156 580 l 1
 148 580 l 1
EndSplineSet
EndChar

StartChar: J
Encoding: 74 74 29
Width: 414
VWidth: 0
Flags: W
HStem: 1 19<139 188> 580 20<164 237 257 265 285 362>
VStem: 45 19<95 144> 237 20<122 580> 265 20<122 580>
LayerCount: 2
Back
Fore
SplineSet
188 20 m 1
 211 43 l 1
 237 122 l 1
 237 580 l 1
 164 580 l 1
 157 583 l 1
 155 594 l 1
 164 600 l 1
 362 599 l 1
 368 590 l 1
 362 581 l 1
 285 580 l 1
 285 120 l 1
 255 31 l 1
 192 0 l 1
 132 1 l 1
 77 29 l 1
 45 88 l 1
 45 152 l 1
 74 183 l 1
 82 186 l 1
 89 183 l 1
 116 155 l 1
 119 148 l 1
 116 141 l 1
 89 113 l 1
 82 110 l 1
 74 113 l 1
 72 124 l 1
 95 148 l 1
 82 162 l 1
 64 144 l 1
 64 95 l 1
 89 45 l 1
 139 20 l 1
 188 20 l 1
257 580 m 1
 257 120 l 1
 231 41 l 1
 239 45 l 1
 265 122 l 1
 265 580 l 1
 257 580 l 1
EndSplineSet
EndChar

StartChar: K
Encoding: 75 75 30
Width: 607
VWidth: 0
Flags: W
HStem: 0 20<54 127 147 154 174 247 413 477 501 505 529 579> 580 20<54 127 147 154 174 247 413 499 527 579>
VStem: 127 20<20 580> 154 20<20 227 255 580>
LayerCount: 2
Back
Fore
SplineSet
127 580 m 1
 54 580 l 1
 47 583 l 1
 44 590 l 1
 47 597 l 1
 54 600 l 1
 247 600 l 1
 254 597 l 1
 257 590 l 1
 254 583 l 1
 247 580 l 1
 174 580 l 1
 174 255 l 1
 499 580 l 1
 413 580 l 1
 404 586 l 1
 406 597 l 1
 413 600 l 1
 579 600 l 1
 586 597 l 1
 589 590 l 1
 582 581 l 1
 527 580 l 1
 297 350 l 1
 304 351 l 1
 311 347 l 1
 529 20 l 1
 582 19 l 1
 589 10 l 1
 586 3 l 1
 579 0 l 1
 413 0 l 1
 406 3 l 1
 404 14 l 1
 409 19 l 1
 477 20 l 1
 273 326 l 1
 174 227 l 1
 174 20 l 1
 251 19 l 1
 256 14 l 1
 254 3 l 1
 247 0 l 1
 54 0 l 1
 47 3 l 1
 44 10 l 1
 50 19 l 1
 127 20 l 1
 127 580 l 1
147 580 m 1
 147 20 l 1
 154 20 l 1
 154 580 l 1
 147 580 l 1
288 340 m 1
 501 20 l 1
 505 20 l 1
 294 336 l 1
 294 346 l 1
 288 340 l 1
EndSplineSet
EndChar

StartChar: L
Encoding: 76 76 31
Width: 498
VWidth: 0
Flags: W
HStem: 0 20<55 128 148 155 175 433 453 459> 580 20<55 128 148 155 175 248>
VStem: 128 20<20 580> 155 20<20 580> 433 20<20 55> 459 20<20 55 134.731 176>
LayerCount: 2
Back
Fore
SplineSet
128 580 m 1
 55 580 l 1
 48 583 l 1
 45 590 l 1
 48 597 l 1
 55 600 l 1
 248 600 l 1
 255 597 l 1
 258 590 l 1
 255 583 l 1
 248 580 l 1
 175 580 l 1
 175 20 l 1
 433 20 l 1
 459 177 l 1
 463 184 l 1
 470 186 l 1
 476 182 l 1
 479 176 l 1
 479 10 l 1
 473 1 l 1
 55 0 l 1
 45 6 l 1
 45 14 l 1
 55 20 l 1
 128 20 l 1
 128 580 l 1
148 580 m 1
 148 20 l 1
 155 20 l 1
 155 580 l 1
 148 580 l 1
453 20 m 1
 459 20 l 1
 459 55 l 1
 453 20 l 1
EndSplineSet
EndChar

StartChar: M
Encoding: 77 77 32
Width: 690
VWidth: 0
Flags: W
HStem: 0 20<54 127 147 220 440 513 533 541 561 634> 580 20<54 127 151 157 533 541 561 634>
VStem: 127 20<20 528> 513 20<20 528> 541 20<20 580>
LayerCount: 2
Back
Fore
SplineSet
127 580 m 1
 54 580 l 1
 47 583 l 1
 44 590 l 1
 47 597 l 1
 54 600 l 1
 165 600 l 1
 174 594 l 1
 339 96 l 1
 339 88 l 1
 333 83 l 1
 326 84 l 1
 321 90 l 1
 157 580 l 1
 151 580 l 1
 330 42 l 1
 514 594 l 1
 523 600 l 1
 634 600 l 1
 641 597 l 1
 644 590 l 1
 638 581 l 1
 561 580 l 1
 561 20 l 1
 638 19 l 1
 644 10 l 1
 641 3 l 1
 634 0 l 1
 440 0 l 1
 431 6 l 1
 431 14 l 1
 440 20 l 1
 513 20 l 1
 513 528 l 1
 339 7 l 1
 337 2 l 1
 329 0 l 1
 321 7 l 1
 147 528 l 1
 147 20 l 1
 220 20 l 1
 227 17 l 1
 230 10 l 1
 227 3 l 1
 220 0 l 1
 54 0 l 1
 47 3 l 1
 44 10 l 1
 50 19 l 1
 127 20 l 1
 127 580 l 1
533 20 m 1
 541 20 l 1
 541 580 l 1
 533 580 l 1
 533 20 l 1
EndSplineSet
EndChar

StartChar: N
Encoding: 78 78 33
Width: 635
VWidth: 0
Flags: W
HStem: 0 20<55 128 148 221> 580 20<55 128 148 160 414 487 507 580>
VStem: 128 20<20 580> 487 20<45 62 100 580>
LayerCount: 2
Back
Fore
SplineSet
128 580 m 1
 55 580 l 1
 48 583 l 1
 45 590 l 1
 48 597 l 1
 55 600 l 1
 166 600 l 1
 173 597 l 1
 487 100 l 1
 487 580 l 1
 414 580 l 1
 405 586 l 1
 405 594 l 1
 414 600 l 1
 580 600 l 1
 589 594 l 1
 587 583 l 1
 580 580 l 1
 507 580 l 1
 507 10 l 1
 503 2 l 1
 495 0 l 1
 489 5 l 1
 157 529 l 1
 156 537 l 1
 161 543 l 1
 168 545 l 1
 174 540 l 1
 487 45 l 1
 487 62 l 1
 160 580 l 1
 148 580 l 1
 148 20 l 1
 221 20 l 1
 228 17 l 1
 230 6 l 1
 221 0 l 1
 55 0 l 1
 46 6 l 1
 48 17 l 1
 55 20 l 1
 128 20 l 1
 128 580 l 1
EndSplineSet
EndChar

StartChar: O
Encoding: 79 79 34
Width: 609
VWidth: 0
Flags: W
HStem: 1 19<279 329> 580 20<279 329>
VStem: 73 20<232 368> 101 20<152 168.643 236 364 430.429 448> 487 20<152 169.571 236 364 431.357 448> 515 20<232 368>
LayerCount: 2
Back
Fore
SplineSet
276 600 m 1
 335 599 l 1
 422 569 l 1
 477 514 l 1
 506 456 l 1
 535 341 l 1
 535 256 l 1
 507 146 l 1
 479 88 l 1
 418 28 l 1
 332 0 l 1
 273 1 l 1
 186 31 l 1
 131 86 l 1
 102 144 l 1
 73 259 l 1
 73 344 l 1
 101 454 l 1
 129 512 l 1
 190 572 l 1
 276 600 l 1
157 88 m 1
 129 146 l 1
 101 256 l 1
 101 341 l 1
 129 454 l 1
 157 512 l 1
 147 501 l 1
 120 448 l 1
 93 340 l 1
 93 260 l 1
 120 152 l 1
 147 99 l 1
 157 88 l 1
451 512 m 1
 479 454 l 1
 507 344 l 1
 507 259 l 1
 479 146 l 1
 451 88 l 1
 461 99 l 1
 488 152 l 1
 515 260 l 1
 515 340 l 1
 488 448 l 1
 461 501 l 1
 451 512 l 1
329 580 m 1
 279 580 l 1
 227 554 l 1
 174 501 l 1
 148 448 l 1
 121 340 l 1
 121 260 l 1
 148 152 l 1
 174 99 l 1
 227 46 l 1
 279 20 l 1
 329 20 l 1
 381 46 l 1
 434 99 l 1
 460 152 l 1
 487 260 l 1
 487 340 l 1
 460 448 l 1
 434 501 l 1
 381 554 l 1
 329 580 l 1
EndSplineSet
EndChar

StartChar: P
Encoding: 80 80 35
Width: 609
VWidth: 0
Flags: W
HStem: 0 20<55 128 148 156 176 253> 276 20<176 384> 580 20<55 128 148 156 176 384>
VStem: 128 20<20 580> 156 20<20 276 296 580> 487 20<399 477> 515 19<399 477>
LayerCount: 2
Back
Fore
SplineSet
128 580 m 1
 55 580 l 1
 48 583 l 1
 45 590 l 1
 48 597 l 1
 55 600 l 1
 390 599 l 1
 477 569 l 1
 506 539 l 1
 535 480 l 1
 534 392 l 1
 506 337 l 1
 473 304 l 1
 388 276 l 1
 176 276 l 1
 176 20 l 1
 253 19 l 1
 259 10 l 1
 253 1 l 1
 55 0 l 1
 46 6 l 1
 48 17 l 1
 55 20 l 1
 128 20 l 1
 128 580 l 1
148 580 m 1
 148 20 l 1
 156 20 l 1
 156 580 l 1
 148 580 l 1
176 296 m 1
 384 296 l 1
 436 322 l 1
 461 347 l 1
 487 399 l 1
 487 477 l 1
 461 529 l 1
 436 554 l 1
 384 580 l 1
 176 580 l 1
 176 296 l 1
479 539 m 1
 507 480 l 1
 507 397 l 1
 479 337 l 1
 489 347 l 1
 515 399 l 1
 515 477 l 1
 489 529 l 1
 479 539 l 1
EndSplineSet
EndChar

StartChar: Q
Encoding: 81 81 36
Width: 609
VWidth: 0
Flags: W
HStem: -137 19<446 491> -110 20<474 493> 0 20<279 329> 166 19<279 302> 580 20<279 329>
VStem: 73 20<232 368> 101 20<152 169.571 236 364 431.357 448> 487 20<152 173.5 236 364 426.5 448> 515 20<-69 -45 244 356>
LayerCount: 2
Back
Fore
SplineSet
276 600 m 1
 335 599 l 1
 422 569 l 1
 477 514 l 1
 507 454 l 1
 535 344 l 1
 535 256 l 1
 507 146 l 1
 479 88 l 1
 422 31 l 1
 414 27 l 1
 424 -14 l 1
 450 -67 l 1
 474 -90 l 1
 493 -90 l 1
 515 -69 l 1
 515 -45 l 1
 518 -38 l 1
 525 -35 l 1
 534 -41 l 1
 534 -77 l 1
 506 -133 l 1
 501 -137 l 1
 438 -137 l 1
 407 -108 l 1
 387 18 l 1
 332 0 l 1
 276 0 l 1
 190 28 l 1
 131 86 l 1
 101 146 l 1
 73 256 l 1
 73 341 l 1
 102 456 l 1
 131 514 l 1
 186 569 l 1
 276 600 l 1
157 88 m 1
 129 146 l 1
 101 256 l 1
 101 341 l 1
 129 454 l 1
 157 512 l 1
 147 501 l 1
 120 448 l 1
 93 340 l 1
 93 260 l 1
 120 152 l 1
 147 99 l 1
 157 88 l 1
451 512 m 1
 479 454 l 1
 507 344 l 1
 507 259 l 1
 479 146 l 1
 451 88 l 1
 461 99 l 1
 488 152 l 1
 515 260 l 1
 515 340 l 1
 488 448 l 1
 461 501 l 1
 451 512 l 1
329 580 m 1
 279 580 l 1
 227 554 l 1
 174 501 l 1
 148 448 l 1
 121 340 l 1
 121 260 l 1
 148 152 l 1
 174 99 l 1
 184 89 l 1
 185 97 l 1
 214 155 l 1
 272 185 l 1
 304 186 l 1
 366 155 l 1
 396 97 l 1
 403 68 l 1
 434 99 l 1
 460 152 l 1
 487 260 l 1
 487 340 l 1
 460 448 l 1
 434 501 l 1
 381 554 l 1
 329 580 l 1
383 48 m 1
 377 90 l 1
 352 141 l 1
 302 166 l 1
 279 166 l 1
 229 141 l 1
 204 90 l 1
 204 69 l 1
 227 46 l 1
 279 20 l 1
 329 20 l 1
 383 48 l 1
495 -110 m 1
 470 -110 l 1
 463 -108 l 1
 435 -80 l 1
 417 -44 l 1
 424 -96 l 1
 446 -118 l 1
 491 -118 l 1
 495 -110 l 1
EndSplineSet
EndChar

StartChar: R
Encoding: 82 82 37
Width: 609
VWidth: 0
Flags: W
HStem: 0 20<55 128 148 156 176 249 474 519> 28 20<501 521> 304 20<176 302 346 384> 580 20<55 128 148 156 176 384>
VStem: 128 20<20 580> 156 20<20 304 324 580> 487 20<427 477> 515 20<427 477> 543 19<69 93>
LayerCount: 2
Back
Fore
SplineSet
128 580 m 1
 55 580 l 1
 48 583 l 1
 45 590 l 1
 48 597 l 1
 55 600 l 1
 388 600 l 1
 473 572 l 1
 506 539 l 1
 534 484 l 1
 535 424 l 1
 506 365 l 1
 473 332 l 1
 390 304 l 1
 346 304 l 1
 366 294 l 1
 396 263 l 1
 478 71 l 1
 501 48 l 1
 521 48 l 1
 543 69 l 1
 543 93 l 1
 546 100 l 1
 556 102 l 1
 562 97 l 1
 562 61 l 1
 532 3 l 1
 525 0 l 1
 466 1 l 1
 435 31 l 1
 377 227 l 1
 352 279 l 1
 302 304 l 1
 176 304 l 1
 176 20 l 1
 253 19 l 1
 259 10 l 1
 256 3 l 1
 249 0 l 1
 55 0 l 1
 48 3 l 1
 46 14 l 1
 52 19 l 1
 128 20 l 1
 128 580 l 1
148 580 m 1
 148 20 l 1
 156 20 l 1
 156 580 l 1
 148 580 l 1
176 324 m 1
 384 324 l 1
 436 350 l 1
 461 375 l 1
 487 427 l 1
 487 477 l 1
 461 529 l 1
 436 554 l 1
 384 580 l 1
 176 580 l 1
 176 324 l 1
479 539 m 1
 506 484 l 1
 507 424 l 1
 479 364 l 1
 489 375 l 1
 515 427 l 1
 515 477 l 1
 489 529 l 1
 479 539 l 1
416 165 m 1
 451 43 l 1
 474 20 l 1
 519 20 l 1
 523 28 l 1
 494 28 l 1
 463 58 l 1
 416 165 l 1
EndSplineSet
EndChar

StartChar: S
Encoding: 83 83 38
Width: 551
VWidth: 0
Flags: W
HStem: 0 20<249 329> 580 19<221 301>
VStem: 72 20<72 114 456 503> 458 20<97 199 486 528>
LayerCount: 2
Back
Fore
SplineSet
72 452 m 1
 72 511 l 1
 134 572 l 1
 217 599 l 1
 303 600 l 1
 389 572 l 1
 436 526 l 1
 459 593 l 1
 464 599 l 1
 475 597 l 1
 478 590 l 1
 478 424 l 1
 472 415 l 1
 464 415 l 1
 459 421 l 1
 432 502 l 1
 380 554 l 1
 301 580 l 1
 221 580 l 1
 142 554 l 1
 92 503 l 1
 92 456 l 1
 143 405 l 1
 196 378 l 1
 362 323 l 1
 418 295 l 1
 450 263 l 1
 478 203 l 1
 478 93 l 1
 475 86 l 1
 420 31 l 1
 333 1 l 1
 247 0 l 1
 161 28 l 1
 114 74 l 1
 91 7 l 1
 86 1 l 1
 75 3 l 1
 72 10 l 1
 72 176 l 1
 78 185 l 1
 86 185 l 1
 91 179 l 1
 118 98 l 1
 170 46 l 1
 249 20 l 1
 329 20 l 1
 408 46 l 1
 458 97 l 1
 458 199 l 1
 407 250 l 1
 354 277 l 1
 189 332 l 1
 132 360 l 1
 100 392 l 1
 72 452 l 1
451 507 m 1
 458 486 l 1
 458 528 l 1
 451 507 l 1
132 388 m 1
 143 377 l 1
 196 351 l 1
 361 296 l 1
 418 267 l 1
 407 278 l 1
 354 305 l 1
 189 360 l 1
 132 388 l 1
99 93 m 1
 92 114 l 1
 92 72 l 1
 99 93 l 1
EndSplineSet
EndChar

StartChar: T
Encoding: 84 84 39
Width: 525
VWidth: 0
Flags: W
HStem: 0 20<165 238 258 266 286 362> 580 19<65 70 91 238 258 266 286 433 453 459>
VStem: 45 20<424 465.269 545 580> 65 26<545 580> 238 20<20 580> 266 20<20 580> 433 20<545 580> 459 19<424 465.269 545 580>
LayerCount: 2
Back
Fore
SplineSet
91 580 m 1xdf
 65 423 l 1xdf
 61 416 l 1
 54 414 l 1
 47 418 l 1
 45 424 l 1
 45 590 l 1xef
 51 599 l 1
 469 600 l 1
 478 594 l 1
 479 424 l 1
 476 418 l 1
 470 414 l 1
 463 416 l 1
 459 423 l 1
 433 580 l 1
 286 580 l 1
 286 20 l 1
 362 19 l 1
 368 10 l 1
 362 1 l 1
 165 0 l 1
 156 6 l 1
 156 14 l 1
 165 20 l 1
 238 20 l 1
 238 580 l 1
 91 580 l 1xdf
65 545 m 1xef
 70 580 l 1
 65 580 l 1
 65 545 l 1xef
258 20 m 1
 266 20 l 1
 266 580 l 1
 258 580 l 1
 258 20 l 1
453 580 m 1
 459 545 l 1
 459 580 l 1
 453 580 l 1
EndSplineSet
EndChar

StartChar: U
Encoding: 85 85 40
Width: 661
VWidth: 0
Flags: W
HStem: 1 19<305 356> 580 20<54 127 147 154 174 247 440 513 533 606>
VStem: 127 20<177 580> 154 20<177 580> 513 20<177 580>
LayerCount: 2
Back
Fore
SplineSet
127 580 m 1
 54 580 l 1
 47 583 l 1
 44 590 l 1
 47 597 l 1
 54 600 l 1
 247 600 l 1
 256 594 l 1
 254 583 l 1
 247 580 l 1
 174 580 l 1
 174 177 l 1
 201 98 l 1
 253 46 l 1
 305 20 l 1
 356 20 l 1
 435 46 l 1
 487 98 l 1
 513 177 l 1
 513 580 l 1
 440 580 l 1
 431 586 l 1
 431 594 l 1
 440 600 l 1
 606 600 l 1
 615 594 l 1
 613 583 l 1
 606 580 l 1
 533 580 l 1
 533 173 l 1
 505 90 l 1
 444 28 l 1
 361 1 l 1
 299 1 l 1
 216 28 l 1
 155 90 l 1
 127 176 l 1
 127 580 l 1
147 580 m 1
 147 177 l 1
 173 98 l 1
 184 88 l 1
 154 176 l 1
 154 580 l 1
 147 580 l 1
EndSplineSet
EndChar

StartChar: V
Encoding: 86 86 41
Width: 553
VWidth: 0
Flags: W
HStem: 1 21G<267 285> 580 20<27 75 97 103 124 193 359 455 477 525>
LayerCount: 2
Back
Fore
SplineSet
75 580 m 1
 24 581 l 1
 18 586 l 1
 18 594 l 1
 27 600 l 1
 193 600 l 1
 202 594 l 1
 200 583 l 1
 193 580 l 1
 124 580 l 1
 285 96 l 1
 285 88 l 1
 279 83 l 1
 272 84 l 1
 267 90 l 1
 103 580 l 1
 97 580 l 1
 276 42 l 1
 455 580 l 1
 359 580 l 1
 352 583 l 1
 350 594 l 1
 359 600 l 1
 525 600 l 1
 534 594 l 1
 534 586 l 1
 528 581 l 1
 477 580 l 1
 285 7 l 1
 279 1 l 1
 272 1 l 1
 267 7 l 1
 75 580 l 1
EndSplineSet
EndChar

StartChar: W
Encoding: 87 87 42
Width: 662
VWidth: 0
Flags: W
HStem: 0 21G<212 230> 580 20<27 102 122 129 150 221 469 540 560 635>
VStem: 432 19<8 44.6634 146 183.277>
LayerCount: 2
Back
Fore
SplineSet
102 580 m 1
 27 580 l 1
 20 583 l 1
 17 590 l 1
 20 597 l 1
 27 600 l 1
 221 600 l 1
 230 594 l 1
 228 583 l 1
 221 580 l 1
 150 580 l 1
 230 150 l 1
 229 142 l 1
 222 138 l 1
 215 140 l 1
 211 146 l 1
 129 580 l 1
 122 580 l 1
 221 63 l 1
 321 592 l 1
 329 600 l 1
 339 595 l 1
 441 63 l 1
 540 580 l 1
 469 580 l 1
 460 586 l 1
 460 594 l 1
 469 600 l 1
 635 600 l 1
 644 594 l 1
 642 583 l 1
 635 580 l 1
 560 580 l 1
 451 8 l 1
 447 2 l 1
 436 2 l 1
 432 8 l 1
 331 537 l 1
 230 8 l 1
 222 0 l 1
 212 5 l 1
 102 580 l 1
432 146 m 1
 349 588 l 1
 350 596 l 1
 357 600 l 1
 364 598 l 1
 368 592 l 1
 451 150 l 1
 450 142 l 1
 443 138 l 1
 436 140 l 1
 432 146 l 1
EndSplineSet
EndChar

StartChar: X
Encoding: 88 88 43
Width: 553
VWidth: 0
Flags: W
HStem: 0 20<27 77 101 193 359 424 447 451 475 525> 580 20<27 77 101 105 128 193 359 451 475 525>
LayerCount: 2
Back
Fore
SplineSet
77 20 m 1
 257 289 l 1
 77 580 l 1
 24 581 l 1
 18 586 l 1
 20 597 l 1
 27 600 l 1
 193 600 l 1
 200 597 l 1
 202 586 l 1
 197 581 l 1
 128 580 l 1
 283 329 l 1
 451 580 l 1
 359 580 l 1
 350 586 l 1
 352 597 l 1
 359 600 l 1
 525 600 l 1
 532 597 l 1
 535 590 l 1
 528 581 l 1
 475 580 l 1
 295 311 l 1
 475 20 l 1
 528 19 l 1
 535 10 l 1
 532 3 l 1
 525 0 l 1
 359 0 l 1
 352 3 l 1
 350 14 l 1
 355 19 l 1
 424 20 l 1
 269 271 l 1
 101 20 l 1
 193 20 l 1
 202 14 l 1
 200 3 l 1
 193 0 l 1
 27 0 l 1
 18 6 l 1
 18 14 l 1
 24 19 l 1
 77 20 l 1
269 308 m 1
 271 311 l 1
 105 580 l 1
 101 580 l 1
 269 308 l 1
283 292 m 1
 281 289 l 1
 447 20 l 1
 451 20 l 1
 283 292 l 1
EndSplineSet
EndChar

StartChar: Y
Encoding: 89 89 44
Width: 580
VWidth: 0
Flags: W
HStem: 0 20<193 266 286 294 314 390> 580 20<27 77 101 105 129 193 386 479 502 552>
VStem: 266 20<20 283> 294 20<20 283>
LayerCount: 2
Back
Fore
SplineSet
77 580 m 1
 24 581 l 1
 18 586 l 1
 18 594 l 1
 27 600 l 1
 193 600 l 1
 200 597 l 1
 202 586 l 1
 197 581 l 1
 129 580 l 1
 304 305 l 1
 479 580 l 1
 386 580 l 1
 377 586 l 1
 379 597 l 1
 386 600 l 1
 552 600 l 1
 561 594 l 1
 561 586 l 1
 556 581 l 1
 502 580 l 1
 314 283 l 1
 314 20 l 1
 390 19 l 1
 396 10 l 1
 390 1 l 1
 193 0 l 1
 184 6 l 1
 184 14 l 1
 193 20 l 1
 266 20 l 1
 266 283 l 1
 77 580 l 1
101 580 m 1
 284 292 l 1
 286 20 l 1
 294 20 l 1
 294 283 l 1
 105 580 l 1
 101 580 l 1
EndSplineSet
EndChar

StartChar: Z
Encoding: 90 90 45
Width: 551
VWidth: 0
Flags: W
HStem: 0 20<100 104 127 432 453 458> 580 20<92 97 118 423 446 450>
VStem: 72 20<424 465.269 545 580> 92 26<545 580> 432 21<20 55> 458 20<20 55 134.731 176>
LayerCount: 2
Back
Fore
SplineSet
72 11 m 1xec
 423 580 l 1
 118 580 l 1
 92 423 l 1xdc
 88 416 l 1
 81 414 l 1
 74 418 l 1
 72 424 l 1
 72 590 l 1
 75 597 l 1
 82 600 l 1
 474 599 l 1
 478 592 l 1
 477 585 l 1
 127 20 l 1
 432 20 l 1
 458 177 l 1
 462 184 l 1
 469 186 l 1
 476 182 l 1
 478 176 l 1
 478 10 l 1
 475 3 l 1
 468 0 l 1
 82 0 l 1
 75 3 l 1
 72 11 l 1xec
100 20 m 1
 104 20 l 1
 450 580 l 1
 446 580 l 1
 100 20 l 1
97 580 m 1
 92 580 l 1
 92 545 l 1xec
 97 580 l 1
453 20 m 1
 458 20 l 1
 458 55 l 1
 453 20 l 1
EndSplineSet
EndChar

StartChar: bracketleft
Encoding: 91 91 46
Width: 386
VWidth: 0
Flags: W
HStem: -193 20<120 128 148 303> 690 20<120 128 148 303>
VStem: 101 19<-173 690> 128 20<-173 690>
LayerCount: 2
Back
Fore
SplineSet
100 700 m 1
 103 708 l 1
 110 710 l 1
 303 710 l 1
 313 704 l 1
 313 697 l 1
 303 690 l 1
 148 690 l 1
 148 -173 l 1
 303 -173 l 1
 311 -176 l 1
 313 -183 l 1
 307 -193 l 1
 110 -193 l 1
 101 -187 l 1
 100 700 l 1
120 690 m 1
 120 -173 l 1
 128 -173 l 1
 128 690 l 1
 120 690 l 1
EndSplineSet
EndChar

StartChar: bracketright
Encoding: 93 93 47
Width: 386
VWidth: 0
Flags: W
HStem: -193 20<82 237 257 265> 690 20<82 237 257 265>
VStem: 237 20<-173 690> 265 20<-173 690>
LayerCount: 2
Back
Fore
SplineSet
237 690 m 1
 82 690 l 1
 74 693 l 1
 72 700 l 1
 74 708 l 1
 82 710 l 1
 275 710 l 1
 284 704 l 1
 285 -183 l 1
 282 -190 l 1
 275 -193 l 1
 82 -193 l 1
 74 -190 l 1
 72 -183 l 1
 74 -176 l 1
 82 -173 l 1
 237 -173 l 1
 237 690 l 1
257 690 m 1
 257 -173 l 1
 265 -173 l 1
 265 690 l 1
 257 690 l 1
EndSplineSet
EndChar

StartChar: a
Encoding: 97 97 48
Width: 554
VWidth: 0
Flags: W
HStem: 0 20<196 274 474 498> 304 20<121 129> 387 19<196 302>
VStem: 74 19<95 146> 101 20<95 146 324 337> 129 19<324 341> 377 20<97 262 290 299> 405 20<95 284>
LayerCount: 2
Back
Fore
SplineSet
394 348 m 1
 425 286 l 1
 425 95 l 1
 451 44 l 1
 474 20 l 1
 498 20 l 1
 505 17 l 1
 508 10 l 1
 505 3 l 1
 498 0 l 1
 466 1 l 1
 410 29 l 1
 384 76 l 1
 336 29 l 1
 277 0 l 1
 193 0 l 1
 104 30 l 1
 74 88 l 1
 73 148 l 1
 104 211 l 1
 192 241 l 1
 355 268 l 1
 377 290 l 1
 377 337 l 1
 354 361 l 1
 302 387 l 1
 196 387 l 1
 144 361 l 1
 133 350 l 1
 142 351 l 1
 149 341 l 1
 148 310 l 1
 139 304 l 1
 111 304 l 1
 104 307 l 1
 101 314 l 1
 101 341 l 1
 104 348 l 1
 134 378 l 1
 189 406 l 1
 304 407 l 1
 364 378 l 1
 394 348 l 1
124 197 m 1
 118 195 l 1
 93 146 l 1
 93 95 l 1
 118 46 l 1
 124 44 l 1
 101 93 l 1
 101 148 l 1
 124 197 l 1
197 221 m 1
 146 196 l 1
 121 146 l 1
 121 95 l 1
 146 45 l 1
 196 20 l 1
 274 20 l 1
 326 46 l 1
 377 97 l 1
 377 262 l 1
 361 249 l 1
 197 221 l 1
397 286 m 1
 397 95 l 1
 422 45 l 1
 429 42 l 1
 405 93 l 1
 405 284 l 1
 397 299 l 1
 397 286 l 1
130 346 m 1
 121 337 l 1
 121 324 l 1
 129 324 l 1
 130 346 l 1
EndSplineSet
EndChar

StartChar: b
Encoding: 98 98 49
Width: 581
VWidth: 0
Flags: W
HStem: 0 20<279 329> 387 19<279 329> 580 20<55 128 148 156>
VStem: 129 19<10 580> 157 19<6 69 97 310 338 580> 460 20<177 229> 487 20<177 229>
LayerCount: 2
Back
Fore
SplineSet
128 580 m 1
 55 580 l 1
 48 583 l 1
 45 590 l 1
 48 597 l 1
 55 600 l 1
 166 600 l 1
 175 594 l 1
 176 338 l 1
 217 378 l 1
 272 406 l 1
 332 407 l 1
 418 379 l 1
 479 317 l 1
 507 234 l 1
 507 173 l 1
 479 90 l 1
 418 28 l 1
 335 1 l 1
 276 0 l 1
 217 29 l 1
 176 69 l 1
 175 6 l 1
 166 0 l 1
 157 6 l 1
 156 580 l 1
 148 580 l 1
 148 10 l 1
 145 3 l 1
 138 0 l 1
 129 6 l 1
 128 580 l 1
450 319 m 1
 479 234 l 1
 480 176 l 1
 450 88 l 1
 461 98 l 1
 487 177 l 1
 487 229 l 1
 461 308 l 1
 450 319 l 1
329 387 m 1
 279 387 l 1
 227 361 l 1
 176 310 l 1
 176 97 l 1
 227 46 l 1
 279 20 l 1
 329 20 l 1
 381 46 l 1
 433 98 l 1
 460 177 l 1
 460 229 l 1
 433 308 l 1
 381 361 l 1
 329 387 l 1
EndSplineSet
EndChar

StartChar: c
Encoding: 99 99 50
Width: 525
VWidth: 0
Flags: W
HStem: 1 19<250 301> 387 19<250 328>
VStem: 72 20<177 229> 100 19<177 229> 431 19<290 310>
LayerCount: 2
Back
Fore
SplineSet
250 387 m 1
 198 361 l 1
 146 308 l 1
 119 229 l 1
 119 177 l 1
 146 98 l 1
 198 46 l 1
 250 20 l 1
 301 20 l 1
 380 46 l 1
 437 102 l 1
 445 102 l 1
 451 93 l 1
 448 86 l 1
 393 31 l 1
 303 0 l 1
 244 1 l 1
 157 31 l 1
 100 90 l 1
 72 176 l 1
 72 234 l 1
 102 321 l 1
 161 379 l 1
 244 406 l 1
 330 407 l 1
 390 378 l 1
 450 318 l 1
 450 282 l 1
 420 252 l 1
 409 249 l 1
 378 279 l 1
 375 286 l 1
 378 293 l 1
 406 321 l 1
 413 324 l 1
 418 322 l 1
 380 361 l 1
 328 387 l 1
 250 387 l 1
129 88 m 1
 100 173 l 1
 99 231 l 1
 129 319 l 1
 118 308 l 1
 92 229 l 1
 92 177 l 1
 118 98 l 1
 129 88 l 1
422 319 m 1
 423 314 l 1
 420 307 l 1
 400 286 l 1
 413 273 l 1
 431 290 l 1
 431 310 l 1
 422 319 l 1
EndSplineSet
EndChar

StartChar: d
Encoding: 100 100 51
Width: 580
VWidth: 0
Flags: W
HStem: 0 20<250 300 423 431 451 524> 387 20<250 300> 580 20<330 403 423 431>
VStem: 72 20<177 229> 100 19<177 229> 403 20<20 69 97 310 338 580> 431 20<20 580>
LayerCount: 2
Back
Fore
SplineSet
247 407 m 1
 307 406 l 1
 362 378 l 1
 403 338 l 1
 403 580 l 1
 330 580 l 1
 323 583 l 1
 320 590 l 1
 323 597 l 1
 330 600 l 1
 441 600 l 1
 448 597 l 1
 451 590 l 1
 451 20 l 1
 527 19 l 1
 534 10 l 1
 531 3 l 1
 524 0 l 1
 409 1 l 1
 403 10 l 1
 403 69 l 1
 362 29 l 1
 307 1 l 1
 247 0 l 1
 161 28 l 1
 102 86 l 1
 72 176 l 1
 72 234 l 1
 100 317 l 1
 161 379 l 1
 247 407 l 1
129 88 m 1
 100 173 l 1
 99 231 l 1
 129 319 l 1
 118 308 l 1
 92 229 l 1
 92 177 l 1
 118 98 l 1
 129 88 l 1
250 387 m 1
 198 361 l 1
 146 308 l 1
 119 229 l 1
 119 177 l 1
 146 98 l 1
 198 46 l 1
 250 20 l 1
 300 20 l 1
 352 46 l 1
 403 97 l 1
 403 310 l 1
 352 361 l 1
 300 387 l 1
 250 387 l 1
423 580 m 1
 423 20 l 1
 431 20 l 1
 431 580 l 1
 423 580 l 1
EndSplineSet
EndChar

StartChar: e
Encoding: 101 101 52
Width: 525
VWidth: 0
Flags: W
HStem: 1 19<250 301> 221 20<123 403 423 431> 387 20<250 328>
VStem: 72 20<177 229> 100 19<177 221> 403 20<241 299> 431 20<241 284>
LayerCount: 2
Back
Fore
SplineSet
247 407 m 1
 330 407 l 1
 390 378 l 1
 422 346 l 1
 451 286 l 1
 451 231 l 1
 448 224 l 1
 441 221 l 1
 119 221 l 1
 119 177 l 1
 146 98 l 1
 198 46 l 1
 250 20 l 1
 301 20 l 1
 380 46 l 1
 434 100 l 1
 441 103 l 1
 448 100 l 1
 451 93 l 1
 448 86 l 1
 393 31 l 1
 303 0 l 1
 244 1 l 1
 157 31 l 1
 100 90 l 1
 72 176 l 1
 72 234 l 1
 102 321 l 1
 161 379 l 1
 247 407 l 1
99 231 m 1
 129 319 l 1
 118 308 l 1
 92 229 l 1
 92 177 l 1
 118 98 l 1
 129 88 l 1
 100 173 l 1
 99 231 l 1
123 241 m 1
 403 241 l 1
 403 311 l 1
 378 362 l 1
 328 387 l 1
 250 387 l 1
 198 361 l 1
 146 308 l 1
 123 241 l 1
423 241 m 1
 431 241 l 1
 431 284 l 1
 423 299 l 1
 423 241 l 1
EndSplineSet
EndChar

StartChar: f
Encoding: 102 102 53
Width: 358
VWidth: 0
Flags: W
HStem: 0 20<54 127 147 154 174 251> 387 20<54 127 147 154 174 275> 580 19<224 271>
VStem: 127 20<20 387 407 505> 154 20<20 387 407 505> 292 20<539 558>
LayerCount: 2
Back
Fore
SplineSet
127 407 m 1
 127 507 l 1
 157 569 l 1
 216 599 l 1
 275 600 l 1
 282 597 l 1
 312 566 l 1
 312 535 l 1
 310 528 l 1
 282 500 l 1
 275 497 l 1
 268 500 l 1
 240 528 l 1
 237 535 l 1
 240 542 l 1
 268 569 l 1
 275 572 l 1
 280 571 l 1
 271 580 l 1
 224 580 l 1
 200 556 l 1
 174 505 l 1
 174 407 l 1
 275 407 l 1
 282 404 l 1
 285 397 l 1
 282 390 l 1
 275 387 l 1
 174 387 l 1
 174 20 l 1
 251 19 l 1
 257 10 l 1
 251 1 l 1
 54 0 l 1
 45 6 l 1
 47 17 l 1
 54 20 l 1
 127 20 l 1
 127 387 l 1
 54 387 l 1
 47 390 l 1
 45 400 l 1
 54 407 l 1
 127 407 l 1
179 558 m 1
 172 555 l 1
 147 505 l 1
 147 407 l 1
 154 407 l 1
 154 507 l 1
 179 558 l 1
147 387 m 1
 147 20 l 1
 154 20 l 1
 154 387 l 1
 147 387 l 1
283 567 m 1
 285 562 l 1
 282 555 l 1
 261 535 l 1
 275 521 l 1
 292 539 l 1
 292 558 l 1
 283 567 l 1
EndSplineSet
EndChar

StartChar: g
Encoding: 103 103 54
Width: 524
VWidth: 0
Flags: W
HStem: -193 20<165 331> -28 20<194 329> 0 20<194 329> 110 20<223 273> 359 20<428 431> 387 19<223 273>
VStem: 46 19<-98 -75> 72 20<69 90> 100 20<233 284> 128 20<218 299> 348 20<218 299> 376 20<233 284> 431 20<-98 -77 379 380>
LayerCount: 2
Back
Fore
SplineSet
72 65 m 1
 73 97 l 1
 101 153 l 1
 125 178 l 1
 100 231 l 1
 101 291 l 1
 129 346 l 1
 159 377 l 1
 217 406 l 1
 276 407 l 1
 335 378 l 1
 358 356 l 1
 382 378 l 1
 437 406 l 1
 448 404 l 1
 451 397 l 1
 451 369 l 1
 448 362 l 1
 441 359 l 1
 390 359 l 1
 371 339 l 1
 396 286 l 1
 396 231 l 1
 367 171 l 1
 337 141 l 1
 280 112 l 1
 220 110 l 1
 161 139 l 1
 138 162 l 1
 118 142 l 1
 92 90 l 1
 92 69 l 1
 115 46 l 1
 194 20 l 1
 331 20 l 1
 420 -10 l 1
 451 -69 l 1
 451 -100 l 1
 420 -163 l 1
 331 -193 l 1
 165 -193 l 1
 76 -163 l 1
 46 -105 l 1
 45 -73 l 1
 76 -10 l 1
 106 1 l 1
 101 6 l 1
 72 65 l 1
128 218 m 1
 128 299 l 1
 120 284 l 1
 120 233 l 1
 128 218 l 1
173 362 m 1
 148 311 l 1
 148 206 l 1
 173 156 l 1
 223 130 l 1
 273 130 l 1
 323 156 l 1
 348 206 l 1
 348 311 l 1
 323 362 l 1
 273 387 l 1
 223 387 l 1
 173 362 l 1
368 218 m 1
 376 233 l 1
 376 284 l 1
 368 299 l 1
 368 218 l 1
428 379 m 1
 431 379 l 1
 431 380 l 1
 428 379 l 1
113 26 m 1
 117 18 l 1
 138 11 l 1
 147 15 l 1
 113 26 l 1
174 6 m 1
 169 1 l 1
 194 -8 l 1
 334 -8 l 1
 411 -34 l 1
 407 -26 l 1
 329 0 l 1
 193 0 l 1
 174 6 l 1
138 -10 m 1
 89 -26 l 1
 65 -75 l 1
 65 -98 l 1
 89 -148 l 1
 167 -173 l 1
 329 -173 l 1
 407 -148 l 1
 431 -98 l 1
 431 -77 l 1
 408 -54 l 1
 329 -28 l 1
 193 -28 l 1
 138 -10 l 1
EndSplineSet
EndChar

StartChar: h
Encoding: 104 104 55
Width: 609
VWidth: 0
Flags: W
HStem: 0 20<55 128 148 156 176 249 359 432 452 460 480 553> 387 20<306 357> 580 20<55 128 148 156>
VStem: 128 20<20 580> 156 20<20 310 338 580> 432 20<20 311> 460 20<20 311>
LayerCount: 2
Back
Fore
SplineSet
128 580 m 1
 55 580 l 1
 48 583 l 1
 45 590 l 1
 48 597 l 1
 55 600 l 1
 166 600 l 1
 175 594 l 1
 176 338 l 1
 218 379 l 1
 304 407 l 1
 362 406 l 1
 445 379 l 1
 451 374 l 1
 480 314 l 1
 480 20 l 1
 556 19 l 1
 563 10 l 1
 560 3 l 1
 553 0 l 1
 359 0 l 1
 350 6 l 1
 350 14 l 1
 359 20 l 1
 432 20 l 1
 432 311 l 1
 407 362 l 1
 357 387 l 1
 306 387 l 1
 227 360 l 1
 176 310 l 1
 176 20 l 1
 253 19 l 1
 259 10 l 1
 256 3 l 1
 249 0 l 1
 55 0 l 1
 48 3 l 1
 46 14 l 1
 52 19 l 1
 128 20 l 1
 128 580 l 1
148 580 m 1
 148 20 l 1
 156 20 l 1
 156 580 l 1
 148 580 l 1
429 363 m 1
 452 314 l 1
 452 20 l 1
 460 20 l 1
 460 311 l 1
 435 361 l 1
 429 363 l 1
EndSplineSet
EndChar

StartChar: i
Encoding: 105 105 56
Width: 304
VWidth: 0
Flags: W
HStem: 0 20<55 128 148 156 176 252> 387 20<55 128 148 156> 580 20G<131 145>
VStem: 128 20<20 387> 156 20<20 387>
LayerCount: 2
Back
Fore
SplineSet
128 387 m 1
 55 387 l 1
 48 390 l 1
 45 397 l 1
 48 404 l 1
 55 407 l 1
 166 407 l 1
 175 400 l 1
 176 20 l 1
 252 19 l 1
 258 10 l 1
 252 1 l 1
 55 0 l 1
 46 6 l 1
 48 17 l 1
 55 20 l 1
 128 20 l 1
 128 387 l 1
148 387 m 1
 148 20 l 1
 156 20 l 1
 156 387 l 1
 148 387 l 1
103 569 m 1
 131 597 l 1
 138 600 l 1
 145 597 l 1
 173 569 l 1
 176 562 l 1
 173 555 l 1
 145 528 l 1
 138 525 l 1
 131 528 l 1
 103 555 l 1
 100 562 l 1
 103 569 l 1
138 576 m 1
 125 562 l 1
 138 549 l 1
 151 562 l 1
 138 576 l 1
EndSplineSet
EndChar

StartChar: j
Encoding: 106 106 57
Width: 303
VWidth: 0
Flags: W
HStem: -193 20<58 105> 387 20<82 155 175 182> 580 20G<158 172>
VStem: 17 20<-152 -132> 155 20<-98 387> 182 19<-98 387>
LayerCount: 2
Back
Fore
SplineSet
49 -164 m 1
 58 -173 l 1
 105 -173 l 1
 129 -150 l 1
 155 -98 l 1
 155 387 l 1
 82 387 l 1
 75 390 l 1
 73 400 l 1
 82 407 l 1
 196 406 l 1
 202 397 l 1
 201 -105 l 1
 169 -165 l 1
 113 -193 l 1
 54 -193 l 1
 47 -190 l 1
 19 -163 l 1
 17 -156 l 1
 17 -124 l 1
 50 -91 l 1
 61 -93 l 1
 89 -121 l 1
 92 -128 l 1
 89 -135 l 1
 61 -163 l 1
 54 -166 l 1
 49 -164 l 1
46 -161 m 1
 44 -156 l 1
 47 -149 l 1
 68 -128 l 1
 54 -115 l 1
 37 -132 l 1
 37 -152 l 1
 46 -161 l 1
175 387 m 1
 175 -100 l 1
 150 -152 l 1
 157 -148 l 1
 182 -98 l 1
 182 387 l 1
 175 387 l 1
130 569 m 1
 158 597 l 1
 165 600 l 1
 172 597 l 1
 199 569 l 1
 202 562 l 1
 199 555 l 1
 172 528 l 1
 165 525 l 1
 158 528 l 1
 130 555 l 1
 127 562 l 1
 130 569 l 1
165 576 m 1
 151 562 l 1
 165 549 l 1
 178 562 l 1
 165 576 l 1
EndSplineSet
EndChar

StartChar: k
Encoding: 107 107 58
Width: 581
VWidth: 0
Flags: W
HStem: 0 20<55 128 148 156 176 249 359 422 447 450 475 525> 387 20<359 418 446 525> 580 20<55 128 148 156>
VStem: 128 20<20 580> 156 20<20 116 145 580>
LayerCount: 2
Back
Fore
SplineSet
128 580 m 1
 55 580 l 1
 48 583 l 1
 45 590 l 1
 48 597 l 1
 55 600 l 1
 166 600 l 1
 175 594 l 1
 176 145 l 1
 418 387 l 1
 355 387 l 1
 349 397 l 1
 352 404 l 1
 359 407 l 1
 525 407 l 1
 532 404 l 1
 535 397 l 1
 529 387 l 1
 446 387 l 1
 299 239 l 1
 305 241 l 1
 312 237 l 1
 475 20 l 1
 529 19 l 1
 535 10 l 1
 532 3 l 1
 525 0 l 1
 359 0 l 1
 352 3 l 1
 349 10 l 1
 355 19 l 1
 422 20 l 1
 275 216 l 1
 176 116 l 1
 176 20 l 1
 253 19 l 1
 259 10 l 1
 256 3 l 1
 249 0 l 1
 55 0 l 1
 48 3 l 1
 46 14 l 1
 52 19 l 1
 128 20 l 1
 128 580 l 1
148 580 m 1
 148 20 l 1
 156 20 l 1
 156 580 l 1
 148 580 l 1
290 230 m 1
 447 20 l 1
 450 20 l 1
 296 225 l 1
 295 236 l 1
 290 230 l 1
EndSplineSet
EndChar

StartChar: l
Encoding: 108 108 59
Width: 304
VWidth: 0
Flags: W
HStem: 0 20<55 128 148 156 176 252> 580 20<55 128 148 156>
VStem: 128 20<20 580> 156 20<20 580>
LayerCount: 2
Back
Fore
SplineSet
128 580 m 1
 55 580 l 1
 48 583 l 1
 45 590 l 1
 48 597 l 1
 55 600 l 1
 166 600 l 1
 175 594 l 1
 176 20 l 1
 252 19 l 1
 258 10 l 1
 252 1 l 1
 55 0 l 1
 46 6 l 1
 46 14 l 1
 55 20 l 1
 128 20 l 1
 128 580 l 1
148 580 m 1
 148 20 l 1
 156 20 l 1
 156 580 l 1
 148 580 l 1
EndSplineSet
EndChar

StartChar: m
Encoding: 109 109 60
Width: 913
VWidth: 0
Flags: W
HStem: 0 20<52 128 148 156 176 249 359 432 452 460 480 552 663 736 756 763 783 856> 387 20<55 128 148 156 306 357 609 661>
VStem: 128 20<20 387> 156 20<20 310 338 387> 432 20<20 311> 460 20<20 310> 736 20<20 311> 763 20<20 311>
LayerCount: 2
Back
Fore
SplineSet
128 387 m 1
 55 387 l 1
 48 390 l 1
 45 397 l 1
 48 404 l 1
 55 407 l 1
 170 406 l 1
 176 397 l 1
 176 338 l 1
 218 379 l 1
 304 407 l 1
 362 406 l 1
 445 379 l 1
 451 374 l 1
 472 331 l 1
 522 379 l 1
 605 406 l 1
 664 407 l 1
 749 379 l 1
 755 374 l 1
 783 314 l 1
 783 20 l 1
 856 20 l 1
 866 14 l 1
 866 6 l 1
 856 0 l 1
 663 0 l 1
 656 3 l 1
 653 10 l 1
 659 19 l 1
 736 20 l 1
 736 311 l 1
 711 362 l 1
 661 387 l 1
 609 387 l 1
 530 360 l 1
 480 310 l 1
 480 20 l 1
 556 19 l 1
 562 10 l 1
 560 3 l 1
 552 0 l 1
 359 0 l 1
 352 3 l 1
 349 10 l 1
 355 19 l 1
 432 20 l 1
 432 311 l 1
 407 362 l 1
 357 387 l 1
 306 387 l 1
 226 360 l 1
 176 310 l 1
 176 20 l 1
 249 20 l 1
 256 17 l 1
 258 6 l 1
 249 0 l 1
 52 1 l 1
 45 10 l 1
 52 19 l 1
 128 20 l 1
 128 387 l 1
148 387 m 1
 148 20 l 1
 156 20 l 1
 156 387 l 1
 148 387 l 1
429 363 m 1
 452 314 l 1
 452 20 l 1
 460 20 l 1
 460 311 l 1
 435 361 l 1
 429 363 l 1
732 363 m 1
 756 314 l 1
 756 20 l 1
 763 20 l 1
 763 311 l 1
 739 361 l 1
 732 363 l 1
EndSplineSet
EndChar

StartChar: n
Encoding: 110 110 61
Width: 609
VWidth: 0
Flags: W
HStem: 0 20<55 128 148 156 176 249 359 432 452 460 480 553> 387 20<55 128 148 156 306 357>
VStem: 128 20<20 387> 156 20<20 310 338 387> 432 20<20 311> 460 20<20 311>
LayerCount: 2
Back
Fore
SplineSet
128 387 m 1
 55 387 l 1
 48 390 l 1
 45 397 l 1
 48 404 l 1
 55 407 l 1
 170 406 l 1
 176 397 l 1
 176 338 l 1
 218 379 l 1
 304 407 l 1
 362 406 l 1
 449 377 l 1
 480 314 l 1
 480 20 l 1
 556 19 l 1
 563 10 l 1
 560 3 l 1
 553 0 l 1
 359 0 l 1
 350 6 l 1
 350 14 l 1
 359 20 l 1
 432 20 l 1
 432 311 l 1
 407 362 l 1
 357 387 l 1
 306 387 l 1
 227 360 l 1
 176 310 l 1
 176 20 l 1
 253 19 l 1
 259 10 l 1
 256 3 l 1
 249 0 l 1
 55 0 l 1
 48 3 l 1
 46 14 l 1
 52 19 l 1
 128 20 l 1
 128 387 l 1
148 387 m 1
 148 20 l 1
 156 20 l 1
 156 387 l 1
 148 387 l 1
429 363 m 1
 452 314 l 1
 452 20 l 1
 460 20 l 1
 460 311 l 1
 435 361 l 1
 429 363 l 1
EndSplineSet
EndChar

StartChar: o
Encoding: 111 111 62
Width: 551
VWidth: 0
Flags: W
HStem: 1 19<250 300> 387 20<250 300>
VStem: 72 20<177 229> 100 19<177 229> 431 20<177 229> 458 20<177 229>
LayerCount: 2
Back
Fore
SplineSet
247 407 m 1
 306 406 l 1
 393 376 l 1
 450 317 l 1
 478 231 l 1
 478 173 l 1
 448 86 l 1
 389 28 l 1
 303 0 l 1
 244 1 l 1
 157 31 l 1
 100 90 l 1
 72 176 l 1
 72 234 l 1
 102 321 l 1
 161 379 l 1
 247 407 l 1
129 88 m 1
 100 173 l 1
 99 231 l 1
 129 319 l 1
 118 308 l 1
 92 229 l 1
 92 177 l 1
 118 98 l 1
 129 88 l 1
421 319 m 1
 450 234 l 1
 451 176 l 1
 421 88 l 1
 432 98 l 1
 458 177 l 1
 458 229 l 1
 432 308 l 1
 421 319 l 1
300 387 m 1
 250 387 l 1
 198 361 l 1
 146 308 l 1
 119 229 l 1
 119 177 l 1
 146 98 l 1
 198 46 l 1
 250 20 l 1
 300 20 l 1
 352 46 l 1
 404 98 l 1
 431 177 l 1
 431 229 l 1
 404 308 l 1
 352 361 l 1
 300 387 l 1
EndSplineSet
EndChar

StartChar: p
Encoding: 112 112 63
Width: 581
VWidth: 0
Flags: W
HStem: -193 20<55 128 148 156 176 253> 0 20<279 329> 387 20<55 128 148 156 279 329>
VStem: 128 20<-173 387> 156 20<-173 69 97 310 338 387> 460 20<177 229> 487 20<177 229>
LayerCount: 2
Back
Fore
SplineSet
128 387 m 1
 55 387 l 1
 48 390 l 1
 45 397 l 1
 48 404 l 1
 55 407 l 1
 170 406 l 1
 176 397 l 1
 176 338 l 1
 217 378 l 1
 276 407 l 1
 335 406 l 1
 418 379 l 1
 479 317 l 1
 507 234 l 1
 507 173 l 1
 479 90 l 1
 418 28 l 1
 335 1 l 1
 276 0 l 1
 217 29 l 1
 176 69 l 1
 176 -173 l 1
 253 -174 l 1
 259 -183 l 1
 253 -193 l 1
 55 -193 l 1
 46 -187 l 1
 48 -176 l 1
 55 -173 l 1
 128 -173 l 1
 128 387 l 1
148 387 m 1
 148 -173 l 1
 156 -173 l 1
 156 387 l 1
 148 387 l 1
176 97 m 1
 227 46 l 1
 279 20 l 1
 329 20 l 1
 381 46 l 1
 433 98 l 1
 460 177 l 1
 460 229 l 1
 433 308 l 1
 381 361 l 1
 329 387 l 1
 279 387 l 1
 227 361 l 1
 176 310 l 1
 176 97 l 1
450 319 m 1
 479 234 l 1
 480 176 l 1
 450 88 l 1
 461 98 l 1
 487 177 l 1
 487 229 l 1
 461 308 l 1
 450 319 l 1
EndSplineSet
EndChar

StartChar: q
Encoding: 113 113 64
Width: 552
VWidth: 0
Flags: W
HStem: -193 20<330 403 423 431 451 527> 0 20<250 300> 387 19<250 300>
VStem: 72 20<177 229> 100 19<177 229> 403 20<-173 69 97 310 338 400> 431 20<-173 397>
LayerCount: 2
Back
Fore
SplineSet
247 407 m 1
 307 406 l 1
 362 378 l 1
 403 338 l 1
 404 400 l 1
 413 407 l 1
 422 400 l 1
 423 -173 l 1
 431 -173 l 1
 431 397 l 1
 437 406 l 1
 445 406 l 1
 450 400 l 1
 451 -173 l 1
 527 -174 l 1
 534 -183 l 1
 527 -193 l 1
 330 -193 l 1
 321 -187 l 1
 321 -180 l 1
 330 -173 l 1
 403 -173 l 1
 403 69 l 1
 362 29 l 1
 307 1 l 1
 247 0 l 1
 161 28 l 1
 100 90 l 1
 72 173 l 1
 72 231 l 1
 100 317 l 1
 161 379 l 1
 247 407 l 1
129 88 m 1
 100 173 l 1
 99 231 l 1
 129 319 l 1
 118 308 l 1
 92 229 l 1
 92 177 l 1
 118 98 l 1
 129 88 l 1
250 387 m 1
 198 361 l 1
 146 308 l 1
 119 229 l 1
 119 177 l 1
 146 98 l 1
 198 46 l 1
 250 20 l 1
 300 20 l 1
 352 46 l 1
 403 97 l 1
 403 310 l 1
 352 361 l 1
 300 387 l 1
 250 387 l 1
EndSplineSet
EndChar

StartChar: r
Encoding: 114 114 65
Width: 470
VWidth: 0
Flags: W
HStem: 0 20<55 128 148 155 175 252> 387 20<55 128 148 155 306 382>
VStem: 128 20<20 387> 155 20<20 229 293 387> 404 19<346 365>
LayerCount: 2
Back
Fore
SplineSet
128 387 m 1
 55 387 l 1
 48 390 l 1
 45 397 l 1
 48 404 l 1
 55 407 l 1
 165 407 l 1
 172 404 l 1
 175 397 l 1
 175 293 l 1
 186 321 l 1
 241 376 l 1
 299 406 l 1
 390 406 l 1
 423 373 l 1
 423 338 l 1
 390 305 l 1
 379 307 l 1
 351 334 l 1
 348 341 l 1
 351 348 l 1
 379 376 l 1
 386 379 l 1
 391 377 l 1
 382 387 l 1
 306 387 l 1
 254 361 l 1
 202 308 l 1
 175 229 l 1
 175 20 l 1
 252 19 l 1
 258 10 l 1
 252 1 l 1
 55 0 l 1
 45 6 l 1
 45 14 l 1
 55 20 l 1
 128 20 l 1
 128 387 l 1
148 387 m 1
 148 20 l 1
 155 20 l 1
 155 387 l 1
 148 387 l 1
395 374 m 1
 396 369 l 1
 393 362 l 1
 373 341 l 1
 386 328 l 1
 404 346 l 1
 404 365 l 1
 395 374 l 1
EndSplineSet
EndChar

StartChar: s
Encoding: 115 115 66
Width: 470
VWidth: 0
Flags: W
HStem: 1 19<195 300> 387 19<167 273>
VStem: 72 20<52 78 318 337> 376 20<69 116 329 354>
LayerCount: 2
Back
Fore
SplineSet
72 314 m 1
 72 341 l 1
 75 348 l 1
 105 378 l 1
 160 406 l 1
 280 406 l 1
 335 378 l 1
 355 358 l 1
 379 404 l 1
 386 407 l 1
 393 404 l 1
 396 397 l 1
 396 286 l 1
 393 279 l 1
 386 276 l 1
 377 282 l 1
 350 336 l 1
 325 361 l 1
 273 387 l 1
 167 387 l 1
 115 361 l 1
 92 337 l 1
 92 318 l 1
 115 294 l 1
 169 268 l 1
 307 213 l 1
 365 183 l 1
 395 152 l 1
 396 65 l 1
 393 58 l 1
 363 29 l 1
 303 0 l 1
 188 1 l 1
 133 29 l 1
 112 48 l 1
 89 3 l 1
 81 0 l 1
 75 3 l 1
 72 10 l 1
 72 120 l 1
 78 130 l 1
 89 128 l 1
 118 71 l 1
 143 46 l 1
 195 20 l 1
 300 20 l 1
 352 46 l 1
 376 69 l 1
 376 116 l 1
 352 140 l 1
 299 167 l 1
 161 222 l 1
 105 250 l 1
 73 282 l 1
 72 314 l 1
369 341 m 1
 376 329 l 1
 376 354 l 1
 369 341 l 1
105 277 m 1
 115 267 l 1
 169 240 l 1
 307 185 l 1
 363 157 l 1
 352 167 l 1
 299 194 l 1
 161 249 l 1
 105 277 l 1
98 65 m 1
 92 78 l 1
 92 52 l 1
 98 65 l 1
EndSplineSet
EndChar

StartChar: t
Encoding: 116 116 67
Width: 413
VWidth: 0
Flags: W
HStem: 1 19<224 272> 387 20<54 127 147 154 174 275> 579 20G<128 147 157 174>
VStem: 127 20<122 387 407 590> 154 20<122 387 407 590>
LayerCount: 2
Back
Fore
SplineSet
127 407 m 1
 128 594 l 1
 133 599 l 1
 141 599 l 1
 147 590 l 1
 147 407 l 1
 154 407 l 1
 154 590 l 1
 157 597 l 1
 168 599 l 1
 174 590 l 1
 174 407 l 1
 275 407 l 1
 282 404 l 1
 285 397 l 1
 282 390 l 1
 275 387 l 1
 174 387 l 1
 174 122 l 1
 201 43 l 1
 224 20 l 1
 272 20 l 1
 323 45 l 1
 351 100 l 1
 362 102 l 1
 367 96 l 1
 367 88 l 1
 337 31 l 1
 279 1 l 1
 216 1 l 1
 160 29 l 1
 155 34 l 1
 127 120 l 1
 127 387 l 1
 54 387 l 1
 47 390 l 1
 44 397 l 1
 47 404 l 1
 54 407 l 1
 127 407 l 1
147 387 m 1
 147 122 l 1
 173 45 l 1
 180 41 l 1
 154 120 l 1
 154 387 l 1
 147 387 l 1
EndSplineSet
EndChar

StartChar: u
Encoding: 117 117 68
Width: 609
VWidth: 0
Flags: W
HStem: 1 19<251 302 452 460 480 553> 387 20<55 128 148 156 359 432 452 460>
VStem: 128 20<95 387> 156 20<95 387> 432 20<20 69 97 387> 460 20<20 387>
LayerCount: 2
Back
Fore
SplineSet
128 387 m 1
 55 387 l 1
 48 390 l 1
 45 397 l 1
 48 404 l 1
 55 407 l 1
 166 407 l 1
 173 404 l 1
 176 397 l 1
 176 95 l 1
 201 45 l 1
 251 20 l 1
 302 20 l 1
 381 46 l 1
 432 97 l 1
 432 387 l 1
 359 387 l 1
 350 393 l 1
 350 400 l 1
 359 407 l 1
 470 407 l 1
 477 404 l 1
 480 397 l 1
 480 20 l 1
 556 19 l 1
 563 10 l 1
 560 3 l 1
 553 0 l 1
 438 1 l 1
 432 10 l 1
 432 69 l 1
 390 28 l 1
 304 0 l 1
 246 1 l 1
 159 30 l 1
 128 93 l 1
 128 387 l 1
148 387 m 1
 148 95 l 1
 173 46 l 1
 179 44 l 1
 156 93 l 1
 156 387 l 1
 148 387 l 1
452 93 m 1
 452 20 l 1
 460 20 l 1
 460 387 l 1
 452 387 l 1
 452 93 l 1
EndSplineSet
EndChar

StartChar: v
Encoding: 118 118 69
Width: 497
VWidth: 0
Flags: W
HStem: 1 21G<239 257> 387 20<27 76 97 103 125 193 303 399 420 469>
LayerCount: 2
Back
Fore
SplineSet
76 387 m 1
 23 387 l 1
 18 393 l 1
 18 400 l 1
 27 407 l 1
 193 407 l 1
 202 400 l 1
 202 393 l 1
 193 387 l 1
 125 387 l 1
 257 69 l 1
 255 58 l 1
 248 55 l 1
 239 61 l 1
 103 387 l 1
 97 387 l 1
 248 35 l 1
 399 387 l 1
 303 387 l 1
 294 393 l 1
 294 400 l 1
 303 407 l 1
 469 407 l 1
 478 400 l 1
 478 393 l 1
 473 387 l 1
 420 387 l 1
 257 6 l 1
 252 1 l 1
 244 1 l 1
 239 6 l 1
 76 387 l 1
EndSplineSet
EndChar

StartChar: w
Encoding: 119 119 70
Width: 663
VWidth: 0
Flags: W
HStem: 0 21G<213 230 437 451> 387 20<27 103 123 130 151 221 469 539 559 635>
VStem: 211 18<90 95> 432 18<90 95>
LayerCount: 2
Back
Fore
SplineSet
103 387 m 1
 27 387 l 1
 20 390 l 1
 17 397 l 1
 20 404 l 1
 27 407 l 1
 221 407 l 1
 230 400 l 1
 230 393 l 1
 221 387 l 1
 151 387 l 1
 230 95 l 1
 229 88 l 1
 223 83 l 1
 216 84 l 1
 211 90 l 1
 130 387 l 1
 123 387 l 1
 221 46 l 1
 321 399 l 1
 330 407 l 1
 339 403 l 1
 441 46 l 1
 539 387 l 1
 469 387 l 1
 460 393 l 1
 460 400 l 1
 469 407 l 1
 635 407 l 1
 642 404 l 1
 645 397 l 1
 642 390 l 1
 635 387 l 1
 559 387 l 1
 451 7 l 1
 443 0 l 1
 437 1 l 1
 432 7 l 1
 331 360 l 1
 230 7 l 1
 222 0 l 1
 213 4 l 1
 103 387 l 1
432 90 m 1
 349 394 l 1
 350 402 l 1
 356 406 l 1
 364 405 l 1
 368 399 l 1
 451 95 l 1
 450 88 l 1
 444 83 l 1
 437 84 l 1
 432 90 l 1
EndSplineSet
EndChar

StartChar: x
Encoding: 120 120 71
Width: 553
VWidth: 0
Flags: W
HStem: 0 20<55 106 132 221 331 394 447 497> 387 20<55 105 158 221 331 420 446 497>
LayerCount: 2
Back
Fore
SplineSet
106 20 m 1
 256 195 l 1
 105 387 l 1
 51 387 l 1
 45 397 l 1
 48 404 l 1
 55 407 l 1
 221 407 l 1
 228 404 l 1
 231 397 l 1
 225 387 l 1
 158 387 l 1
 284 227 l 1
 420 387 l 1
 331 387 l 1
 322 393 l 1
 324 404 l 1
 331 407 l 1
 497 407 l 1
 504 404 l 1
 507 397 l 1
 501 387 l 1
 446 387 l 1
 296 211 l 1
 447 20 l 1
 501 19 l 1
 507 10 l 1
 504 3 l 1
 497 0 l 1
 331 0 l 1
 324 3 l 1
 321 10 l 1
 327 19 l 1
 394 20 l 1
 268 179 l 1
 132 20 l 1
 221 20 l 1
 230 14 l 1
 228 3 l 1
 221 0 l 1
 55 0 l 1
 48 3 l 1
 45 10 l 1
 48 17 l 1
 55 20 l 1
 106 20 l 1
269 211 m 1
 270 212 l 1
 131 387 l 1
 269 211 l 1
283 196 m 1
 282 195 l 1
 421 20 l 1
 283 196 l 1
EndSplineSet
EndChar

StartChar: y
Encoding: 121 121 72
Width: 526
VWidth: 0
Flags: W
HStem: -193 20<87 108> 387 20<55 104 125 131 153 221 331 427 448 497>
LayerCount: 2
Back
Fore
SplineSet
104 387 m 1
 51 387 l 1
 46 393 l 1
 46 400 l 1
 55 407 l 1
 221 407 l 1
 230 400 l 1
 230 393 l 1
 221 387 l 1
 153 387 l 1
 285 69 l 1
 283 58 l 1
 276 55 l 1
 267 61 l 1
 131 387 l 1
 125 387 l 1
 276 35 l 1
 427 387 l 1
 331 387 l 1
 322 393 l 1
 322 400 l 1
 331 407 l 1
 497 407 l 1
 504 404 l 1
 507 397 l 1
 504 390 l 1
 497 387 l 1
 448 387 l 1
 285 6 l 1
 230 -105 l 1
 170 -165 l 1
 115 -192 l 1
 83 -193 l 1
 76 -190 l 1
 48 -163 l 1
 45 -156 l 1
 48 -149 l 1
 76 -121 l 1
 83 -118 l 1
 90 -121 l 1
 117 -149 l 1
 120 -156 l 1
 114 -165 l 1
 106 -165 l 1
 83 -142 l 1
 69 -156 l 1
 87 -173 l 1
 108 -173 l 1
 160 -147 l 1
 213 -95 l 1
 265 10 l 1
 104 387 l 1
EndSplineSet
EndChar

StartChar: z
Encoding: 122 122 73
Width: 499
VWidth: 0
Flags: W
HStem: 0 20<104 106 131 379 400 405> 387 20<93 98 119 367 392 394>
VStem: 73 20<286 311.731 367 387> 93 26<367 387> 379 21<20 39> 405 20<20 39 95.2692 120>
LayerCount: 2
Back
Fore
SplineSet
73 9 m 1xec
 75 16 l 1
 367 387 l 1
 119 387 l 1
 93 284 l 1xdc
 84 276 l 1
 77 279 l 1
 73 286 l 1
 73 397 l 1
 76 404 l 1
 83 407 l 1
 415 407 l 1
 421 405 l 1
 425 398 l 1
 423 390 l 1
 131 20 l 1
 379 20 l 1
 405 123 l 1
 414 130 l 1
 421 128 l 1
 425 120 l 1
 425 10 l 1
 422 3 l 1
 415 0 l 1
 83 0 l 1
 76 3 l 1
 73 9 l 1xec
104 20 m 1
 106 20 l 1
 394 387 l 1
 392 387 l 1
 104 20 l 1
98 387 m 1
 93 387 l 1
 93 367 l 1xec
 98 387 l 1
400 20 m 1
 405 20 l 1
 405 39 l 1
 400 20 l 1
EndSplineSet
EndChar

StartChar: braceleft
Encoding: 123 123 74
Width: 386
VWidth: 0
Flags: W
HStem: -193 21G<205.857 257>
VStem: 128 20<-70 -20 537 588> 155 20<-86 -48 565 603> 211 19<123 161 356 394> 238 19<95 146 371 422>
LayerCount: 2
Back
Fore
SplineSet
200 665 m 1
 175 615 l 1
 175 565 l 1
 201 513 l 1
 230 484 l 1
 257 429 l 1
 258 369 l 1
 228 307 l 1
 133 259 l 1
 228 210 l 1
 257 153 l 1
 257 88 l 1
 230 33 l 1
 201 4 l 1
 175 -48 l 1
 175 -98 l 1
 200 -148 l 1
 256 -177 l 1
 257 -188 l 1
 248 -193 l 1
 189 -165 l 1
 158 -135 l 1
 128 -73 l 1
 129 -13 l 1
 156 42 l 1
 185 71 l 1
 211 123 l 1
 211 172 l 1
 159 223 l 1
 106 250 l 1
 100 259 l 1
 106 268 l 1
 159 294 l 1
 211 346 l 1
 211 394 l 1
 185 446 l 1
 156 475 l 1
 128 535 l 1
 129 594 l 1
 158 652 l 1
 189 682 l 1
 244 709 l 1
 251 710 l 1
 257 705 l 1
 258 697 l 1
 253 692 l 1
 200 665 l 1
155 603 m 1
 148 588 l 1
 148 537 l 1
 174 485 l 1
 202 456 l 1
 230 401 l 1
 231 356 l 1
 238 371 l 1
 238 422 l 1
 212 474 l 1
 184 503 l 1
 156 558 l 1
 155 603 l 1
231 161 m 1
 230 116 l 1
 202 61 l 1
 174 32 l 1
 148 -20 l 1
 148 -70 l 1
 155 -86 l 1
 156 -41 l 1
 184 14 l 1
 212 44 l 1
 238 95 l 1
 238 146 l 1
 231 161 l 1
EndSplineSet
EndChar

StartChar: bar
Encoding: 124 124 75
Width: 220
VWidth: 0
Flags: W
HStem: -193 21G<103 117>
VStem: 100 20<-183 700>
LayerCount: 2
Back
Fore
SplineSet
100 -183 m 1
 100 700 l 1
 103 708 l 1
 110 710 l 1
 117 708 l 1
 120 700 l 1
 120 -183 l 1
 117 -190 l 1
 110 -193 l 1
 103 -190 l 1
 100 -183 l 1
EndSplineSet
EndChar

StartChar: braceright
Encoding: 125 125 76
Width: 386
VWidth: 0
Flags: W
HStem: -193 21G<128 179.143>
VStem: 128 19<95 146 371 422> 155 19<123 161 356 394> 210 20<-86 -48 565 603> 237 20<-70 -20 537 588>
LayerCount: 2
Back
Fore
SplineSet
199 680 m 1
 229 650 l 1
 256 594 l 1
 257 535 l 1
 229 475 l 1
 200 446 l 1
 174 394 l 1
 174 346 l 1
 226 294 l 1
 279 268 l 1
 285 259 l 1
 279 250 l 1
 226 223 l 1
 174 172 l 1
 174 123 l 1
 200 71 l 1
 229 42 l 1
 256 -13 l 1
 257 -73 l 1
 227 -135 l 1
 196 -165 l 1
 137 -193 l 1
 128 -188 l 1
 129 -177 l 1
 185 -148 l 1
 210 -98 l 1
 210 -48 l 1
 184 4 l 1
 155 33 l 1
 128 88 l 1
 128 153 l 1
 157 210 l 1
 252 259 l 1
 157 307 l 1
 127 369 l 1
 128 429 l 1
 155 484 l 1
 184 513 l 1
 210 565 l 1
 210 615 l 1
 185 665 l 1
 132 692 l 1
 127 697 l 1
 128 705 l 1
 134 710 l 1
 141 709 l 1
 199 680 l 1
154 356 m 1
 155 401 l 1
 183 456 l 1
 211 485 l 1
 237 537 l 1
 237 588 l 1
 230 603 l 1
 229 558 l 1
 201 503 l 1
 173 474 l 1
 147 422 l 1
 147 371 l 1
 154 356 l 1
230 -86 m 1
 237 -70 l 1
 237 -20 l 1
 211 32 l 1
 183 61 l 1
 155 116 l 1
 154 161 l 1
 147 146 l 1
 147 95 l 1
 173 44 l 1
 201 14 l 1
 229 -41 l 1
 230 -86 l 1
EndSplineSet
EndChar

StartChar: degree
Encoding: 176 176 77
Width: 385
VWidth: 0
Flags: W
HStem: 359 20<167 217> 580 19<167 217>
VStem: 73 19<454 505> 292 20<454 505>
LayerCount: 2
Back
Fore
SplineSet
105 571 m 1
 161 599 l 1
 220 600 l 1
 282 569 l 1
 311 512 l 1
 312 452 l 1
 282 390 l 1
 224 360 l 1
 164 359 l 1
 102 390 l 1
 73 447 l 1
 72 507 l 1
 105 571 l 1
167 580 m 1
 117 555 l 1
 92 505 l 1
 92 454 l 1
 117 404 l 1
 167 379 l 1
 217 379 l 1
 267 404 l 1
 292 454 l 1
 292 505 l 1
 267 555 l 1
 217 580 l 1
 167 580 l 1
EndSplineSet
EndChar

StartChar: glyph78
Encoding: 256 913 78
Width: 553
VWidth: 0
Flags: W
HStem: 0 20<27 75 97 193 359 428 449 455 477 525> 166 20<152 373> 579 20G<267 285>
LayerCount: 2
Back
Fore
SplineSet
75 20 m 1
 267 593 l 1
 272 599 l 1
 279 599 l 1
 285 593 l 1
 477 20 l 1
 528 19 l 1
 534 14 l 1
 534 6 l 1
 525 0 l 1
 359 0 l 1
 352 3 l 1
 350 14 l 1
 355 19 l 1
 428 20 l 1
 379 166 l 1
 145 166 l 1
 97 20 l 1
 193 20 l 1
 200 17 l 1
 202 6 l 1
 193 0 l 1
 27 0 l 1
 18 6 l 1
 18 14 l 1
 24 19 l 1
 75 20 l 1
276 558 m 1
 152 186 l 1
 373 186 l 1
 267 504 l 1
 269 515 l 1
 280 516 l 1
 285 510 l 1
 449 20 l 1
 455 20 l 1
 276 558 l 1
EndSplineSet
EndChar

StartChar: glyph79
Encoding: 257 914 79
Width: 609
VWidth: 0
Flags: W
HStem: 0 20<55 128 148 156 176 384> 304 20<176 384> 580 20<55 128 148 156 176 384>
VStem: 128 20<20 580> 156 20<20 304 324 580> 487 20<123 201 427 477> 515 19<123 201 427 477>
LayerCount: 2
Back
Fore
SplineSet
128 580 m 1
 55 580 l 1
 48 583 l 1
 45 590 l 1
 48 597 l 1
 55 600 l 1
 388 600 l 1
 473 572 l 1
 506 539 l 1
 535 480 l 1
 534 420 l 1
 506 365 l 1
 477 334 l 1
 418 314 l 1
 477 293 l 1
 506 263 l 1
 535 203 l 1
 534 116 l 1
 506 61 l 1
 477 31 l 1
 388 0 l 1
 55 0 l 1
 46 6 l 1
 48 17 l 1
 55 20 l 1
 128 20 l 1
 128 580 l 1
148 580 m 1
 148 20 l 1
 156 20 l 1
 156 580 l 1
 148 580 l 1
176 20 m 1
 384 20 l 1
 436 46 l 1
 461 71 l 1
 487 123 l 1
 487 201 l 1
 461 253 l 1
 436 278 l 1
 384 304 l 1
 176 304 l 1
 176 20 l 1
176 324 m 1
 384 324 l 1
 436 350 l 1
 461 375 l 1
 487 427 l 1
 487 477 l 1
 461 529 l 1
 436 554 l 1
 384 580 l 1
 176 580 l 1
 176 324 l 1
479 539 m 1
 507 480 l 1
 506 420 l 1
 479 364 l 1
 489 375 l 1
 515 427 l 1
 515 477 l 1
 489 529 l 1
 479 539 l 1
479 61 m 1
 489 71 l 1
 515 123 l 1
 515 201 l 1
 489 253 l 1
 479 263 l 1
 507 203 l 1
 507 120 l 1
 479 61 l 1
EndSplineSet
EndChar

StartChar: glyph80
Encoding: 258 915 80
Width: 498
VWidth: 0
Flags: W
HStem: 0 20<55 128 148 155 175 252> 580 20<55 128 148 155 175 433 453 459>
VStem: 128 20<20 580> 155 20<20 580> 433 20<545 580> 459 19<424 465.269 545 580>
LayerCount: 2
Back
Fore
SplineSet
128 580 m 1
 55 580 l 1
 48 583 l 1
 45 590 l 1
 48 597 l 1
 55 600 l 1
 469 600 l 1
 478 594 l 1
 479 424 l 1
 476 418 l 1
 470 414 l 1
 463 416 l 1
 459 423 l 1
 433 580 l 1
 175 580 l 1
 175 20 l 1
 252 19 l 1
 258 10 l 1
 252 1 l 1
 55 0 l 1
 45 6 l 1
 45 14 l 1
 55 20 l 1
 128 20 l 1
 128 580 l 1
148 580 m 1
 148 20 l 1
 155 20 l 1
 155 580 l 1
 148 580 l 1
453 580 m 1
 459 545 l 1
 459 580 l 1
 453 580 l 1
EndSplineSet
EndChar

StartChar: glyph81
Encoding: 259 916 81
Width: 552
VWidth: 0
Flags: W
HStem: 0 20<70 455 476 482> 28 19<83 444> 579 20G<267 285>
LayerCount: 2
Back
Fore
SplineSet
45 10 m 1
 267 594 l 1
 272 599 l 1
 280 599 l 1
 285 594 l 1
 506 14 l 1
 506 6 l 1
 497 0 l 1
 55 0 l 1
 48 3 l 1
 45 10 l 1
70 20 m 1
 455 20 l 1
 452 28 l 1
 83 28 l 1
 74 32 l 1
 70 20 l 1
80 47 m 1
 444 48 l 1
 267 504 l 1
 267 511 l 1
 276 517 l 1
 285 511 l 1
 465 48 l 1
 472 47 l 1
 276 562 l 1
 80 47 l 1
473 28 m 1
 476 20 l 1
 482 20 l 1
 478 32 l 1
 473 28 l 1
EndSplineSet
EndChar

StartChar: glyph82
Encoding: 260 917 82
Width: 580
VWidth: 0
Flags: W
HStem: 0 20<55 128 148 156 176 461 482 487> 304 20<176 322> 580 20<55 128 148 156 176 461 482 487>
VStem: 128 20<20 580> 156 20<20 304 324 580> 322 20<203 304 324 424> 461 21<20 55 545 580> 487 20<20 55 134.731 176 424 465.269 545 580>
LayerCount: 2
Back
Fore
SplineSet
128 580 m 1
 55 580 l 1
 48 583 l 1
 45 590 l 1
 48 597 l 1
 55 600 l 1
 497 600 l 1
 507 594 l 1
 507 424 l 1
 505 418 l 1
 498 414 l 1
 491 416 l 1
 487 423 l 1
 461 580 l 1
 176 580 l 1
 176 324 l 1
 322 324 l 1
 322 424 l 1
 328 434 l 1
 339 431 l 1
 342 424 l 1
 342 203 l 1
 335 194 l 1
 328 194 l 1
 322 200 l 1
 322 304 l 1
 176 304 l 1
 176 20 l 1
 461 20 l 1
 487 177 l 1
 491 184 l 1
 498 186 l 1
 505 182 l 1
 507 176 l 1
 507 10 l 1
 501 1 l 1
 55 0 l 1
 46 6 l 1
 48 17 l 1
 55 20 l 1
 128 20 l 1
 128 580 l 1
148 580 m 1
 148 20 l 1
 156 20 l 1
 156 580 l 1
 148 580 l 1
482 580 m 1
 487 545 l 1
 487 580 l 1
 482 580 l 1
482 20 m 1
 487 20 l 1
 487 55 l 1
 482 20 l 1
EndSplineSet
EndChar

StartChar: glyph83
Encoding: 261 918 83
Width: 551
VWidth: 0
Flags: W
HStem: 0 20<100 104 127 432 453 458> 580 20<92 97 118 423 446 450>
VStem: 72 20<424 465.269 545 580> 92 26<545 580> 432 21<20 55> 458 20<20 55 134.731 176>
LayerCount: 2
Back
Fore
SplineSet
72 11 m 1xec
 423 580 l 1
 118 580 l 1
 92 423 l 1xdc
 88 416 l 1
 81 414 l 1
 74 418 l 1
 72 424 l 1
 72 590 l 1
 75 597 l 1
 82 600 l 1
 474 599 l 1
 478 592 l 1
 477 585 l 1
 127 20 l 1
 432 20 l 1
 458 177 l 1
 462 184 l 1
 469 186 l 1
 476 182 l 1
 478 176 l 1
 478 10 l 1
 475 3 l 1
 468 0 l 1
 82 0 l 1
 75 3 l 1
 72 11 l 1xec
100 20 m 1
 104 20 l 1
 450 580 l 1
 446 580 l 1
 100 20 l 1
97 580 m 1
 92 580 l 1
 92 545 l 1xec
 97 580 l 1
453 20 m 1
 458 20 l 1
 458 55 l 1
 453 20 l 1
EndSplineSet
EndChar

StartChar: glyph84
Encoding: 262 919 84
Width: 661
VWidth: 0
Flags: W
HStem: 0 20<54 127 147 154 174 247 413 486 506 513 533 606> 304 20<174 486> 580 20<54 127 147 154 174 247 413 486 506 513 533 606>
VStem: 127 20<20 580> 154 20<20 304 324 580> 486 20<20 304 324 580> 513 20<20 580>
LayerCount: 2
Back
Fore
SplineSet
127 580 m 1
 54 580 l 1
 47 583 l 1
 44 590 l 1
 47 597 l 1
 54 600 l 1
 247 600 l 1
 254 597 l 1
 257 590 l 1
 254 583 l 1
 247 580 l 1
 174 580 l 1
 174 324 l 1
 486 324 l 1
 486 580 l 1
 413 580 l 1
 406 583 l 1
 404 594 l 1
 413 600 l 1
 606 600 l 1
 613 597 l 1
 615 586 l 1
 610 581 l 1
 533 580 l 1
 533 20 l 1
 610 19 l 1
 615 14 l 1
 613 3 l 1
 606 0 l 1
 413 0 l 1
 404 6 l 1
 404 14 l 1
 413 20 l 1
 486 20 l 1
 486 304 l 1
 174 304 l 1
 174 20 l 1
 247 20 l 1
 254 17 l 1
 256 6 l 1
 247 0 l 1
 54 0 l 1
 47 3 l 1
 44 10 l 1
 50 19 l 1
 127 20 l 1
 127 580 l 1
147 580 m 1
 147 20 l 1
 154 20 l 1
 154 580 l 1
 147 580 l 1
506 580 m 1
 506 20 l 1
 513 20 l 1
 513 580 l 1
 506 580 l 1
EndSplineSet
EndChar

StartChar: glyph85
Encoding: 263 920 85
Width: 609
VWidth: 0
Flags: W
HStem: 1 19<279 329> 276 20<231 377> 304 20<231 377> 386 20G<211 228 380 397> 580 20<279 329>
VStem: 73 20<232 368> 101 20<152 168.643 236 364 430.429 448> 211 20<203 276 296 304 324 397> 377 20<200 276 296 304 324 397> 487 20<152 169.571 236 364 431.357 448> 515 20<232 368>
LayerCount: 2
Back
Fore
SplineSet
276 600 m 1
 335 599 l 1
 422 569 l 1
 477 514 l 1
 506 456 l 1
 535 341 l 1
 535 256 l 1
 507 146 l 1
 479 88 l 1
 418 28 l 1
 332 0 l 1
 273 1 l 1
 186 31 l 1
 131 86 l 1
 102 144 l 1
 73 259 l 1
 73 344 l 1
 101 454 l 1
 129 512 l 1
 190 572 l 1
 276 600 l 1
157 88 m 1
 129 146 l 1
 101 256 l 1
 101 341 l 1
 129 454 l 1
 157 512 l 1
 147 501 l 1
 120 448 l 1
 93 340 l 1
 93 260 l 1
 120 152 l 1
 147 99 l 1
 157 88 l 1
451 512 m 1
 479 454 l 1
 507 344 l 1
 507 259 l 1
 479 146 l 1
 451 88 l 1
 461 99 l 1
 488 152 l 1
 515 260 l 1
 515 340 l 1
 488 448 l 1
 461 501 l 1
 451 512 l 1
329 580 m 1
 279 580 l 1
 227 554 l 1
 174 501 l 1
 148 448 l 1
 121 340 l 1
 121 260 l 1
 148 152 l 1
 174 99 l 1
 227 46 l 1
 279 20 l 1
 329 20 l 1
 381 46 l 1
 434 99 l 1
 460 152 l 1
 487 260 l 1
 487 340 l 1
 460 448 l 1
 434 501 l 1
 381 554 l 1
 329 580 l 1
211 314 m 1
 211 397 l 1
 217 406 l 1
 228 404 l 1
 231 397 l 1
 231 324 l 1
 377 324 l 1
 377 397 l 1
 380 404 l 1
 391 406 l 1
 397 397 l 1
 396 200 l 1
 387 193 l 1
 378 200 l 1
 377 276 l 1
 231 276 l 1
 231 203 l 1
 228 196 l 1
 217 194 l 1
 211 203 l 1
 211 314 l 1
231 304 m 1
 231 296 l 1
 377 296 l 1
 377 304 l 1
 231 304 l 1
EndSplineSet
EndChar

StartChar: glyph86
Encoding: 264 921 86
Width: 304
VWidth: 0
Flags: W
HStem: 0 20<55 128 148 156 176 252> 580 20<55 128 148 156 176 248>
VStem: 128 20<20 580> 156 20<20 580>
LayerCount: 2
Back
Fore
SplineSet
128 580 m 1
 55 580 l 1
 48 583 l 1
 45 590 l 1
 48 597 l 1
 55 600 l 1
 248 600 l 1
 258 594 l 1
 258 586 l 1
 248 580 l 1
 176 580 l 1
 176 20 l 1
 252 19 l 1
 258 10 l 1
 252 1 l 1
 55 0 l 1
 46 6 l 1
 46 14 l 1
 55 20 l 1
 128 20 l 1
 128 580 l 1
148 580 m 1
 148 20 l 1
 156 20 l 1
 156 580 l 1
 148 580 l 1
EndSplineSet
EndChar

StartChar: glyph87
Encoding: 265 922 87
Width: 607
VWidth: 0
Flags: W
HStem: 0 20<54 127 147 154 174 247 413 477 501 505 529 579> 580 20<54 127 147 154 174 247 413 499 527 579>
VStem: 127 20<20 580> 154 20<20 227 255 580>
LayerCount: 2
Back
Fore
SplineSet
127 580 m 1
 54 580 l 1
 47 583 l 1
 44 590 l 1
 47 597 l 1
 54 600 l 1
 247 600 l 1
 254 597 l 1
 257 590 l 1
 254 583 l 1
 247 580 l 1
 174 580 l 1
 174 255 l 1
 499 580 l 1
 413 580 l 1
 404 586 l 1
 406 597 l 1
 413 600 l 1
 579 600 l 1
 586 597 l 1
 589 590 l 1
 582 581 l 1
 527 580 l 1
 297 350 l 1
 304 351 l 1
 311 347 l 1
 529 20 l 1
 582 19 l 1
 589 10 l 1
 586 3 l 1
 579 0 l 1
 413 0 l 1
 406 3 l 1
 404 14 l 1
 409 19 l 1
 477 20 l 1
 273 326 l 1
 174 227 l 1
 174 20 l 1
 251 19 l 1
 256 14 l 1
 254 3 l 1
 247 0 l 1
 54 0 l 1
 47 3 l 1
 44 10 l 1
 50 19 l 1
 127 20 l 1
 127 580 l 1
147 580 m 1
 147 20 l 1
 154 20 l 1
 154 580 l 1
 147 580 l 1
288 340 m 1
 501 20 l 1
 505 20 l 1
 294 336 l 1
 294 346 l 1
 288 340 l 1
EndSplineSet
EndChar

StartChar: glyph88
Encoding: 266 923 88
Width: 553
VWidth: 0
Flags: W
HStem: 0 20<27 75 97 193 359 428 449 455 477 525> 579 20G<267 285>
LayerCount: 2
Back
Fore
SplineSet
75 20 m 1
 267 593 l 1
 272 599 l 1
 279 599 l 1
 285 593 l 1
 477 20 l 1
 528 19 l 1
 534 14 l 1
 534 6 l 1
 525 0 l 1
 359 0 l 1
 350 6 l 1
 350 14 l 1
 359 20 l 1
 428 20 l 1
 267 504 l 1
 267 512 l 1
 273 517 l 1
 280 516 l 1
 285 510 l 1
 449 20 l 1
 455 20 l 1
 276 558 l 1
 97 20 l 1
 193 20 l 1
 200 17 l 1
 202 6 l 1
 193 0 l 1
 27 0 l 1
 18 6 l 1
 18 14 l 1
 24 19 l 1
 75 20 l 1
EndSplineSet
EndChar

StartChar: glyph89
Encoding: 267 924 89
Width: 690
VWidth: 0
Flags: W
HStem: 0 20<54 127 147 220 440 513 533 541 561 634> 580 20<54 127 151 157 533 541 561 634>
VStem: 127 20<20 528> 513 20<20 528> 541 20<20 580>
LayerCount: 2
Back
Fore
SplineSet
127 580 m 1
 54 580 l 1
 47 583 l 1
 44 590 l 1
 47 597 l 1
 54 600 l 1
 165 600 l 1
 174 594 l 1
 339 96 l 1
 339 88 l 1
 333 83 l 1
 326 84 l 1
 321 90 l 1
 157 580 l 1
 151 580 l 1
 330 42 l 1
 514 594 l 1
 523 600 l 1
 634 600 l 1
 641 597 l 1
 644 590 l 1
 638 581 l 1
 561 580 l 1
 561 20 l 1
 638 19 l 1
 644 10 l 1
 641 3 l 1
 634 0 l 1
 440 0 l 1
 431 6 l 1
 431 14 l 1
 440 20 l 1
 513 20 l 1
 513 528 l 1
 339 7 l 1
 337 2 l 1
 329 0 l 1
 321 7 l 1
 147 528 l 1
 147 20 l 1
 220 20 l 1
 227 17 l 1
 230 10 l 1
 227 3 l 1
 220 0 l 1
 54 0 l 1
 47 3 l 1
 44 10 l 1
 50 19 l 1
 127 20 l 1
 127 580 l 1
533 20 m 1
 541 20 l 1
 541 580 l 1
 533 580 l 1
 533 20 l 1
EndSplineSet
EndChar

StartChar: glyph90
Encoding: 268 925 90
Width: 635
VWidth: 0
Flags: W
HStem: 0 20<55 128 148 221> 580 20<55 128 148 160 414 487 507 580>
VStem: 128 20<20 580> 487 20<45 62 100 580>
LayerCount: 2
Back
Fore
SplineSet
128 580 m 1
 55 580 l 1
 48 583 l 1
 45 590 l 1
 48 597 l 1
 55 600 l 1
 166 600 l 1
 173 597 l 1
 487 100 l 1
 487 580 l 1
 414 580 l 1
 405 586 l 1
 405 594 l 1
 414 600 l 1
 580 600 l 1
 589 594 l 1
 587 583 l 1
 580 580 l 1
 507 580 l 1
 507 10 l 1
 503 2 l 1
 495 0 l 1
 489 5 l 1
 157 529 l 1
 156 537 l 1
 161 543 l 1
 168 545 l 1
 174 540 l 1
 487 45 l 1
 487 62 l 1
 160 580 l 1
 148 580 l 1
 148 20 l 1
 221 20 l 1
 228 17 l 1
 230 6 l 1
 221 0 l 1
 55 0 l 1
 46 6 l 1
 48 17 l 1
 55 20 l 1
 128 20 l 1
 128 580 l 1
EndSplineSet
EndChar

StartChar: glyph91
Encoding: 269 926 91
Width: 609
VWidth: 0
Flags: W
HStem: 28 18<111 496> 56 19<112 497> 276 19<221 386> 304 20<222 387> 525 18<111 496> 553 19<112 497>
VStem: 406 17<367 375>
LayerCount: 2
Back
Fore
SplineSet
73 481 m 1
 101 620 l 1
 109 627 l 1
 116 626 l 1
 120 620 l 1
 112 572 l 1
 497 572 l 1
 505 569 l 1
 517 623 l 1
 527 627 l 1
 535 620 l 1
 507 478 l 1
 499 470 l 1
 492 471 l 1
 488 478 l 1
 496 525 l 1
 111 525 l 1
 103 529 l 1
 91 474 l 1
 85 470 l 1
 77 471 l 1
 73 481 l 1
108 553 m 1
 106 543 l 1
 500 544 l 1
 502 554 l 1
 497 552 l 1
 108 553 l 1
73 -16 m 1
 101 122 l 1
 109 130 l 1
 116 129 l 1
 120 122 l 1
 112 75 l 1
 497 75 l 1
 505 71 l 1
 517 126 l 1
 527 130 l 1
 535 122 l 1
 507 -20 l 1
 499 -27 l 1
 492 -26 l 1
 488 -20 l 1
 496 28 l 1
 111 28 l 1
 103 31 l 1
 91 -23 l 1
 81 -27 l 1
 75 -23 l 1
 73 -16 l 1
108 56 m 1
 106 46 l 1
 500 47 l 1
 502 57 l 1
 497 55 l 1
 108 56 l 1
184 233 m 1
 211 371 l 1
 216 377 l 1
 227 377 l 1
 231 371 l 1
 222 324 l 1
 387 324 l 1
 394 320 l 1
 406 375 l 1
 413 379 l 1
 423 375 l 1
 424 367 l 1
 397 229 l 1
 392 223 l 1
 381 223 l 1
 377 229 l 1
 386 276 l 1
 221 276 l 1
 214 280 l 1
 202 225 l 1
 195 221 l 1
 188 223 l 1
 184 233 l 1
218 304 m 1
 217 295 l 1
 390 296 l 1
 391 305 l 1
 387 304 l 1
 218 304 l 1
EndSplineSet
EndChar

StartChar: glyph92
Encoding: 270 927 92
Width: 609
VWidth: 0
Flags: W
HStem: 1 19<279 329> 580 20<279 329>
VStem: 73 20<232 368> 101 20<152 168.643 236 364 430.429 448> 487 20<152 169.571 236 364 431.357 448> 515 20<232 368>
LayerCount: 2
Back
Fore
SplineSet
276 600 m 1
 335 599 l 1
 422 569 l 1
 477 514 l 1
 506 456 l 1
 535 341 l 1
 535 256 l 1
 507 146 l 1
 479 88 l 1
 418 28 l 1
 332 0 l 1
 273 1 l 1
 186 31 l 1
 131 86 l 1
 102 144 l 1
 73 259 l 1
 73 344 l 1
 101 454 l 1
 129 512 l 1
 190 572 l 1
 276 600 l 1
157 88 m 1
 129 146 l 1
 101 256 l 1
 101 341 l 1
 129 454 l 1
 157 512 l 1
 147 501 l 1
 120 448 l 1
 93 340 l 1
 93 260 l 1
 120 152 l 1
 147 99 l 1
 157 88 l 1
451 512 m 1
 479 454 l 1
 507 344 l 1
 507 259 l 1
 479 146 l 1
 451 88 l 1
 461 99 l 1
 488 152 l 1
 515 260 l 1
 515 340 l 1
 488 448 l 1
 461 501 l 1
 451 512 l 1
329 580 m 1
 279 580 l 1
 227 554 l 1
 174 501 l 1
 148 448 l 1
 121 340 l 1
 121 260 l 1
 148 152 l 1
 174 99 l 1
 227 46 l 1
 279 20 l 1
 329 20 l 1
 381 46 l 1
 434 99 l 1
 460 152 l 1
 487 260 l 1
 487 340 l 1
 460 448 l 1
 434 501 l 1
 381 554 l 1
 329 580 l 1
EndSplineSet
EndChar

StartChar: glyph93
Encoding: 271 928 93
Width: 661
VWidth: 0
Flags: W
HStem: 0 20<54 127 147 154 174 247 413 486 506 513 533 606> 580 20<54 127 147 154 174 486 506 513 533 606>
VStem: 127 20<20 580> 154 20<20 580> 486 20<20 580> 513 20<20 580>
LayerCount: 2
Back
Fore
SplineSet
127 580 m 1
 54 580 l 1
 47 583 l 1
 44 590 l 1
 47 597 l 1
 54 600 l 1
 606 600 l 1
 613 597 l 1
 615 586 l 1
 610 581 l 1
 533 580 l 1
 533 20 l 1
 610 19 l 1
 615 14 l 1
 613 3 l 1
 606 0 l 1
 413 0 l 1
 404 6 l 1
 404 14 l 1
 413 20 l 1
 486 20 l 1
 486 580 l 1
 174 580 l 1
 174 20 l 1
 247 20 l 1
 254 17 l 1
 256 6 l 1
 247 0 l 1
 54 0 l 1
 47 3 l 1
 44 10 l 1
 50 19 l 1
 127 20 l 1
 127 580 l 1
147 580 m 1
 147 20 l 1
 154 20 l 1
 154 580 l 1
 147 580 l 1
506 20 m 1
 513 20 l 1
 513 580 l 1
 506 580 l 1
 506 20 l 1
EndSplineSet
EndChar

StartChar: glyph94
Encoding: 272 929 94
Width: 609
VWidth: 0
Flags: W
HStem: 0 20<55 128 148 156 176 253> 276 20<176 384> 580 20<55 128 148 156 176 384>
VStem: 128 20<20 580> 156 20<20 276 296 580> 487 20<399 477> 515 19<399 477>
LayerCount: 2
Back
Fore
SplineSet
128 580 m 1
 55 580 l 1
 48 583 l 1
 45 590 l 1
 48 597 l 1
 55 600 l 1
 390 599 l 1
 477 569 l 1
 506 539 l 1
 535 480 l 1
 534 392 l 1
 506 337 l 1
 473 304 l 1
 388 276 l 1
 176 276 l 1
 176 20 l 1
 253 19 l 1
 259 10 l 1
 253 1 l 1
 55 0 l 1
 46 6 l 1
 48 17 l 1
 55 20 l 1
 128 20 l 1
 128 580 l 1
148 580 m 1
 148 20 l 1
 156 20 l 1
 156 580 l 1
 148 580 l 1
176 296 m 1
 384 296 l 1
 436 322 l 1
 461 347 l 1
 487 399 l 1
 487 477 l 1
 461 529 l 1
 436 554 l 1
 384 580 l 1
 176 580 l 1
 176 296 l 1
479 539 m 1
 507 480 l 1
 507 397 l 1
 479 337 l 1
 489 347 l 1
 515 399 l 1
 515 477 l 1
 489 529 l 1
 479 539 l 1
EndSplineSet
EndChar

StartChar: glyph95
Encoding: 273 931 95
Width: 581
VWidth: 0
Flags: W
HStem: 0 20<75 435 456 461> 28 20<95 437> 580 20<74 77 102 435 456 461>
LayerCount: 2
Back
Fore
SplineSet
45 9 m 1
 47 16 l 1
 264 314 l 1
 77 580 l 1
 74 580 l 1
 257 320 l 1
 258 312 l 1
 254 306 l 1
 247 304 l 1
 240 308 l 1
 47 584 l 1
 47 595 l 1
 55 600 l 1
 469 600 l 1
 476 598 l 1
 479 592 l 1
 507 426 l 1
 505 419 l 1
 499 415 l 1
 492 416 l 1
 487 421 l 1
 435 580 l 1
 102 580 l 1
 284 320 l 1
 286 312 l 1
 95 48 l 1
 444 47 l 1
 487 179 l 1
 492 184 l 1
 499 185 l 1
 505 181 l 1
 507 174 l 1
 478 5 l 1
 469 0 l 1
 55 0 l 1
 48 3 l 1
 45 9 l 1
75 20 m 1
 435 20 l 1
 437 28 l 1
 81 28 l 1
 75 20 l 1
456 580 m 1
 466 548 l 1
 461 580 l 1
 456 580 l 1
456 20 m 1
 461 20 l 1
 466 52 l 1
 456 20 l 1
EndSplineSet
EndChar

StartChar: glyph96
Encoding: 274 932 96
Width: 525
VWidth: 0
Flags: W
HStem: 0 20<165 238 258 266 286 362> 580 19<65 70 91 238 258 266 286 433 453 459>
VStem: 45 20<424 465.269 545 580> 65 26<545 580> 238 20<20 580> 266 20<20 580> 433 20<545 580> 459 19<424 465.269 545 580>
LayerCount: 2
Back
Fore
SplineSet
91 580 m 1xdf
 65 423 l 1xdf
 61 416 l 1
 54 414 l 1
 47 418 l 1
 45 424 l 1
 45 590 l 1xef
 51 599 l 1
 469 600 l 1
 478 594 l 1
 479 424 l 1
 476 418 l 1
 470 414 l 1
 463 416 l 1
 459 423 l 1
 433 580 l 1
 286 580 l 1
 286 20 l 1
 362 19 l 1
 368 10 l 1
 362 1 l 1
 165 0 l 1
 156 6 l 1
 156 14 l 1
 165 20 l 1
 238 20 l 1
 238 580 l 1
 91 580 l 1xdf
65 545 m 1xef
 70 580 l 1
 65 580 l 1
 65 545 l 1xef
258 20 m 1
 266 20 l 1
 266 580 l 1
 258 580 l 1
 258 20 l 1
453 580 m 1
 459 545 l 1
 459 580 l 1
 453 580 l 1
EndSplineSet
EndChar

StartChar: glyph97
Encoding: 275 933 97
Width: 525
VWidth: 0
Flags: W
HStem: 0 20<165 238 258 266 286 362> 552 19<114 161 363 410> 580 20<114 161 363 410>
VStem: 45 20<452 503> 238 20<20 422.741> 266 20<20 423.808> 460 16<452 503>
LayerCount: 2
Back
Fore
SplineSet
45 507 m 1
 73 567 l 1
 103 597 l 1
 110 600 l 1
 165 600 l 1
 172 597 l 1
 202 567 l 1
 230 511 l 1
 258 397 l 1
 258 20 l 1
 266 20 l 1
 266 397 l 1
 294 511 l 1
 322 567 l 1
 355 599 l 1
 418 599 l 1
 450 567 l 1
 478 511 l 1
 479 452 l 1
 476 445 l 1
 465 443 l 1
 460 448 l 1
 459 503 l 1
 410 552 l 1
 363 552 l 1
 312 502 l 1
 286 395 l 1
 286 20 l 1
 362 19 l 1
 368 10 l 1
 362 1 l 1
 165 0 l 1
 156 6 l 1
 156 14 l 1
 165 20 l 1
 238 20 l 1
 238 395 l 1
 211 502 l 1
 161 552 l 1
 114 552 l 1
 65 503 l 1
 65 452 l 1
 62 445 l 1
 55 442 l 1
 48 445 l 1
 45 452 l 1
 45 507 l 1
105 571 m 1
 170 571 l 1
 161 580 l 1
 114 580 l 1
 105 571 l 1
353 571 m 1
 419 571 l 1
 410 580 l 1
 363 580 l 1
 353 571 l 1
EndSplineSet
EndChar

StartChar: glyph98
Encoding: 276 934 98
Width: 580
VWidth: 0
Flags: W
HStem: 0 20<192 265 285 293 313 389> 138 20<222 265 285 293 313 355> 442 20<222 265 285 293 313 355> 580 20<192 265 285 293 313 389>
VStem: 73 19<261 339> 99 20<261 339> 265 20<20 138 158 442 462 580> 293 20<20 138 158 442 462 580> 458 20<261 339> 486 20<261 339>
LayerCount: 2
Back
Fore
SplineSet
219 462 m 1
 265 462 l 1
 265 580 l 1
 188 581 l 1
 182 590 l 1
 185 597 l 1
 192 600 l 1
 389 599 l 1
 395 590 l 1
 389 581 l 1
 313 580 l 1
 313 462 l 1
 361 461 l 1
 444 434 l 1
 477 401 l 1
 505 346 l 1
 506 259 l 1
 475 196 l 1
 444 166 l 1
 361 139 l 1
 313 138 l 1
 313 20 l 1
 389 19 l 1
 395 10 l 1
 389 1 l 1
 192 0 l 1
 185 3 l 1
 182 10 l 1
 188 19 l 1
 265 20 l 1
 265 138 l 1
 217 139 l 1
 134 166 l 1
 100 199 l 1
 73 254 l 1
 72 341 l 1
 100 401 l 1
 134 434 l 1
 219 462 l 1
128 401 m 1
 118 391 l 1
 92 339 l 1
 92 261 l 1
 118 209 l 1
 128 199 l 1
 99 259 l 1
 99 341 l 1
 128 401 l 1
285 580 m 1
 285 462 l 1
 293 462 l 1
 293 580 l 1
 285 580 l 1
285 442 m 1
 285 158 l 1
 293 158 l 1
 293 442 l 1
 285 442 l 1
265 442 m 1
 222 442 l 1
 170 416 l 1
 145 391 l 1
 119 339 l 1
 119 261 l 1
 145 209 l 1
 170 184 l 1
 222 158 l 1
 265 158 l 1
 265 442 l 1
285 138 m 1
 285 20 l 1
 293 20 l 1
 293 138 l 1
 285 138 l 1
313 158 m 1
 355 158 l 1
 407 184 l 1
 432 209 l 1
 458 261 l 1
 458 339 l 1
 432 391 l 1
 407 416 l 1
 355 442 l 1
 313 442 l 1
 313 158 l 1
450 401 m 1
 478 341 l 1
 478 259 l 1
 450 199 l 1
 460 209 l 1
 486 261 l 1
 486 339 l 1
 460 391 l 1
 450 401 l 1
EndSplineSet
EndChar

StartChar: glyph99
Encoding: 277 935 99
Width: 553
VWidth: 0
Flags: W
HStem: 0 20<27 77 101 193 359 424 447 451 475 525> 580 20<27 77 101 105 128 193 359 451 475 525>
LayerCount: 2
Back
Fore
SplineSet
77 20 m 1
 257 289 l 1
 77 580 l 1
 24 581 l 1
 18 586 l 1
 20 597 l 1
 27 600 l 1
 193 600 l 1
 200 597 l 1
 202 586 l 1
 197 581 l 1
 128 580 l 1
 283 329 l 1
 451 580 l 1
 359 580 l 1
 350 586 l 1
 352 597 l 1
 359 600 l 1
 525 600 l 1
 532 597 l 1
 535 590 l 1
 528 581 l 1
 475 580 l 1
 295 311 l 1
 475 20 l 1
 528 19 l 1
 535 10 l 1
 532 3 l 1
 525 0 l 1
 359 0 l 1
 352 3 l 1
 350 14 l 1
 355 19 l 1
 424 20 l 1
 269 271 l 1
 101 20 l 1
 193 20 l 1
 202 14 l 1
 200 3 l 1
 193 0 l 1
 27 0 l 1
 18 6 l 1
 18 14 l 1
 24 19 l 1
 77 20 l 1
269 308 m 1
 271 311 l 1
 105 580 l 1
 101 580 l 1
 269 308 l 1
283 292 m 1
 281 289 l 1
 447 20 l 1
 451 20 l 1
 283 292 l 1
EndSplineSet
EndChar

StartChar: glyph100
Encoding: 278 936 100
Width: 635
VWidth: 0
Flags: W
HStem: 0 20<221 294 314 322 342 414> 166 20<279 294 314 322 342 357> 580 20<221 294 314 322 342 414>
VStem: 294 20<20 166 186 580> 322 20<20 166 186 580>
LayerCount: 2
Back
Fore
SplineSet
76 431 m 1
 87 434 l 1
 146 403 l 1
 175 290 l 1
 202 237 l 1
 227 212 l 1
 279 186 l 1
 294 186 l 1
 294 580 l 1
 217 581 l 1
 211 590 l 1
 214 597 l 1
 221 600 l 1
 414 600 l 1
 424 594 l 1
 424 586 l 1
 414 580 l 1
 342 580 l 1
 342 186 l 1
 357 186 l 1
 409 212 l 1
 434 237 l 1
 460 290 l 1
 490 403 l 1
 553 434 l 1
 560 431 l 1
 587 404 l 1
 589 393 l 1
 584 387 l 1
 573 390 l 1
 553 410 l 1
 534 392 l 1
 506 282 l 1
 479 226 l 1
 449 196 l 1
 362 166 l 1
 342 166 l 1
 342 20 l 1
 418 19 l 1
 424 10 l 1
 422 3 l 1
 414 0 l 1
 221 0 l 1
 214 3 l 1
 211 10 l 1
 217 19 l 1
 294 20 l 1
 294 166 l 1
 273 166 l 1
 190 194 l 1
 159 224 l 1
 129 284 l 1
 102 392 l 1
 83 410 l 1
 59 387 l 1
 52 387 l 1
 46 393 l 1
 48 404 l 1
 76 431 l 1
122 394 m 1
 148 290 l 1
 174 237 l 1
 185 226 l 1
 157 282 l 1
 130 390 l 1
 122 394 l 1
314 580 m 1
 314 186 l 1
 322 186 l 1
 322 580 l 1
 314 580 l 1
314 166 m 1
 314 20 l 1
 322 20 l 1
 322 166 l 1
 314 166 l 1
514 394 m 1
 506 390 l 1
 479 282 l 1
 451 226 l 1
 461 237 l 1
 488 290 l 1
 514 394 l 1
EndSplineSet
EndChar

StartChar: glyph101
Encoding: 279 937 101
Width: 609
VWidth: 0
Flags: W
HStem: 0 20<118 205 403 490> 28 19<115 191 417 493> 580 20<251 357>
VStem: 74 19<315 423> 101 20<286.741 423> 487 20<286.741 423> 515 20<315 423>
LayerCount: 2
Back
Fore
SplineSet
101 7 m 1
 74 90 l 1
 74 97 l 1
 80 102 l 1
 88 102 l 1
 93 96 l 1
 109 47 l 1
 191 48 l 1
 102 226 l 1
 74 311 l 1
 73 424 l 1
 101 510 l 1
 163 572 l 1
 248 600 l 1
 360 600 l 1
 445 572 l 1
 507 510 l 1
 535 424 l 1
 535 314 l 1
 506 226 l 1
 417 48 l 1
 499 47 l 1
 515 96 l 1
 520 102 l 1
 528 102 l 1
 534 97 l 1
 534 90 l 1
 505 3 l 1
 497 0 l 1
 387 0 l 1
 377 7 l 1
 378 14 l 1
 433 124 l 1
 460 206 l 1
 487 315 l 1
 487 423 l 1
 461 502 l 1
 409 554 l 1
 357 580 l 1
 251 580 l 1
 199 554 l 1
 147 502 l 1
 121 423 l 1
 121 315 l 1
 148 206 l 1
 175 124 l 1
 231 11 l 1
 228 3 l 1
 221 0 l 1
 111 0 l 1
 101 7 l 1
478 512 m 1
 507 424 l 1
 507 314 l 1
 488 234 l 1
 515 315 l 1
 515 423 l 1
 489 502 l 1
 478 512 l 1
130 512 m 1
 119 502 l 1
 93 423 l 1
 93 315 l 1
 120 234 l 1
 101 314 l 1
 101 424 l 1
 130 512 l 1
408 30 m 1
 403 20 l 1
 490 20 l 1
 493 28 l 1
 414 28 l 1
 408 30 l 1
200 30 m 1
 194 28 l 1
 115 28 l 1
 118 20 l 1
 205 20 l 1
 200 30 l 1
EndSplineSet
EndChar

StartChar: glyph102
Encoding: 280 945 102
Width: 636
VWidth: 0
Flags: W
HStem: 1 19<196 246 529 553> 387 20<279 327>
VStem: 73 20<95 174> 101 20<95 174>
LayerCount: 2
Back
Fore
SplineSet
276 407 m 1
 335 406 l 1
 394 376 l 1
 424 316 l 1
 445 232 l 1
 488 318 l 1
 515 400 l 1
 524 407 l 1
 534 401 l 1
 534 394 l 1
 507 311 l 1
 453 202 l 1
 479 96 l 1
 506 44 l 1
 529 20 l 1
 553 20 l 1
 560 17 l 1
 563 10 l 1
 560 3 l 1
 553 0 l 1
 521 1 l 1
 463 31 l 1
 433 88 l 1
 418 149 l 1
 394 113 l 1
 311 31 l 1
 253 1 l 1
 190 1 l 1
 108 28 l 1
 102 33 l 1
 73 93 l 1
 73 176 l 1
 102 263 l 1
 131 321 l 1
 186 376 l 1
 276 407 l 1
124 44 m 1
 101 93 l 1
 101 176 l 1
 129 262 l 1
 157 318 l 1
 147 308 l 1
 120 255 l 1
 93 174 l 1
 93 95 l 1
 118 46 l 1
 124 44 l 1
327 387 m 1
 279 387 l 1
 227 361 l 1
 174 308 l 1
 148 255 l 1
 121 174 l 1
 121 95 l 1
 146 45 l 1
 196 20 l 1
 246 20 l 1
 298 46 l 1
 379 127 l 1
 411 175 l 1
 377 310 l 1
 351 363 l 1
 327 387 l 1
433 171 m 1
 452 96 l 1
 477 45 l 1
 484 42 l 1
 460 90 l 1
 438 179 l 1
 433 171 l 1
372 365 m 1
 397 316 l 1
 426 198 l 1
 431 205 l 1
 405 310 l 1
 379 362 l 1
 372 365 l 1
EndSplineSet
EndChar

StartChar: glyph103
Encoding: 281 946 103
Width: 579
VWidth: 0
Flags: W
HStem: -193 21G<47 61 74 88> 0 20<250 301> 332 19<329 356> 580 19<361 409>
VStem: 47 17<-185 -182> 74 18<-185 -182> 403 20<123 201> 431 20<123 201> 459 20<454 531> 486 20<454 531>
LayerCount: 2
Back
Fore
SplineSet
134 125 m 1
 120 36 l 1
 92 -185 l 1
 88 -191 l 1
 81 -193 l 1
 74 -189 l 1
 72 -182 l 1
 100 39 l 1
 128 206 l 1
 155 316 l 1
 183 400 l 1
 239 512 l 1
 228 501 l 1
 174 393 l 1
 147 311 l 1
 119 201 l 1
 92 36 l 1
 64 -185 l 1
 61 -191 l 1
 53 -193 l 1
 47 -189 l 1
 45 -182 l 1
 72 39 l 1
 100 206 l 1
 128 316 l 1
 155 400 l 1
 211 512 l 1
 272 572 l 1
 355 599 l 1
 417 599 l 1
 476 569 l 1
 503 542 l 1
 506 535 l 1
 506 452 l 1
 478 392 l 1
 444 360 l 1
 361 332 l 1
 329 331 l 1
 365 321 l 1
 421 266 l 1
 450 208 l 1
 451 120 l 1
 421 58 l 1
 389 28 l 1
 306 1 l 1
 248 0 l 1
 188 29 l 1
 158 58 l 1
 134 125 l 1
140 158 m 1
 147 151 l 1
 174 71 l 1
 198 46 l 1
 250 20 l 1
 301 20 l 1
 352 46 l 1
 378 71 l 1
 403 123 l 1
 403 201 l 1
 378 253 l 1
 325 305 l 1
 244 332 l 1
 238 341 l 1
 240 348 l 1
 247 351 l 1
 356 351 l 1
 408 377 l 1
 433 403 l 1
 459 454 l 1
 459 531 l 1
 409 580 l 1
 361 580 l 1
 309 554 l 1
 256 501 l 1
 202 393 l 1
 175 311 l 1
 147 201 l 1
 140 158 l 1
477 540 m 1
 479 452 l 1
 450 392 l 1
 460 403 l 1
 486 454 l 1
 486 531 l 1
 477 540 l 1
395 61 m 1
 405 71 l 1
 431 123 l 1
 431 201 l 1
 405 253 l 1
 395 263 l 1
 423 203 l 1
 423 120 l 1
 395 61 l 1
EndSplineSet
EndChar

StartChar: glyph104
Encoding: 282 947 104
Width: 553
VWidth: 0
Flags: W
HStem: -192 21G<156 172 186 203> 359 20<125 206> 387 20<140 191>
VStem: 294 20<122 257>
LayerCount: 2
Back
Fore
SplineSet
61 333 m 1
 31 305 l 1
 24 305 l 1
 18 310 l 1
 20 321 l 1
 76 376 l 1
 138 407 l 1
 198 406 l 1
 253 378 l 1
 284 348 l 1
 314 259 l 1
 314 148 l 1
 294 69 l 1
 405 263 l 1
 432 318 l 1
 462 403 l 1
 469 407 l 1
 476 404 l 1
 479 394 l 1
 451 309 l 1
 410 232 l 1
 433 264 l 1
 460 318 l 1
 489 403 l 1
 500 406 l 1
 507 397 l 1
 479 311 l 1
 451 254 l 1
 312 60 l 1
 267 -16 l 1
 203 -187 l 1
 197 -192 l 1
 186 -191 l 1
 183 -184 l 1
 200 -137 l 1
 172 -191 l 1
 161 -192 l 1
 156 -183 l 1
 212 -68 l 1
 249 -7 l 1
 266 41 l 1
 294 149 l 1
 294 257 l 1
 268 334 l 1
 218 359 l 1
 113 359 l 1
 61 333 l 1
206 379 m 1
 191 387 l 1
 140 387 l 1
 125 379 l 1
 206 379 l 1
EndSplineSet
EndChar

StartChar: glyph105
Encoding: 283 948 105
Width: 526
VWidth: 0
Flags: W
HStem: 0 20<196 247> 387 20<251 302> 580 20<308 345> 608 19<281 329>
VStem: 73 20<123 202> 101 20<108 202> 240 19<537 586> 267 20<522 558> 377 20<205 299> 405 19<205 284>
LayerCount: 2
Back
Fore
SplineSet
249 407 m 1
 304 407 l 1
 330 395 l 1
 269 473 l 1
 240 530 l 1
 240 594 l 1
 273 627 l 1
 336 627 l 1
 394 597 l 1
 451 540 l 1
 451 529 l 1
 444 525 l 1
 439 526 l 1
 356 580 l 1
 308 580 l 1
 287 558 l 1
 287 510 l 1
 313 457 l 1
 340 416 l 1
 395 348 l 1
 424 291 l 1
 424 200 l 1
 395 115 l 1
 338 30 l 1
 252 1 l 1
 194 0 l 1
 134 29 l 1
 102 61 l 1
 73 120 l 1
 73 203 l 1
 103 292 l 1
 158 375 l 1
 163 379 l 1
 249 407 l 1
101 108 m 1
 101 206 l 1
 129 289 l 1
 177 362 l 1
 173 361 l 1
 120 282 l 1
 93 202 l 1
 93 123 l 1
 101 108 l 1
251 387 m 1
 201 361 l 1
 148 282 l 1
 121 202 l 1
 121 95 l 1
 146 45 l 1
 196 20 l 1
 247 20 l 1
 297 45 l 1
 350 125 l 1
 377 205 l 1
 377 311 l 1
 352 362 l 1
 302 387 l 1
 251 387 l 1
267 522 m 1
 267 566 l 1
 297 597 l 1
 304 600 l 1
 345 600 l 1
 329 608 l 1
 281 608 l 1
 259 586 l 1
 259 537 l 1
 267 522 l 1
397 299 m 1
 397 200 l 1
 369 117 l 1
 321 44 l 1
 325 46 l 1
 378 125 l 1
 405 205 l 1
 405 284 l 1
 397 299 l 1
EndSplineSet
EndChar

StartChar: glyph106
Encoding: 284 949 106
Width: 499
VWidth: 0
Flags: W
HStem: 0 20<196 274> 387 20<198 302>
VStem: 74 19<95 144> 101 20<95 144> 129 20<318 363> 158 18<318 365>
LayerCount: 2
Back
Fore
SplineSet
279 221 m 1
 171 194 l 1
 121 144 l 1
 121 95 l 1
 146 45 l 1
 196 20 l 1
 274 20 l 1
 326 46 l 1
 383 102 l 1
 391 102 l 1
 396 97 l 1
 394 86 l 1
 339 31 l 1
 277 0 l 1
 193 0 l 1
 104 30 l 1
 74 88 l 1
 74 152 l 1
 137 213 l 1
 238 233 l 1
 187 252 l 1
 131 307 l 1
 129 314 l 1
 129 369 l 1
 131 376 l 1
 194 407 l 1
 304 407 l 1
 367 376 l 1
 422 321 l 1
 424 310 l 1
 419 305 l 1
 411 305 l 1
 354 361 l 1
 302 387 l 1
 198 387 l 1
 176 365 l 1
 176 318 l 1
 227 267 l 1
 283 239 l 1
 286 229 l 1
 279 221 l 1
102 153 m 1
 93 144 l 1
 93 95 l 1
 118 46 l 1
 124 44 l 1
 101 93 l 1
 102 153 l 1
158 309 m 1
 156 367 l 1
 149 363 l 1
 149 318 l 1
 158 309 l 1
EndSplineSet
EndChar

StartChar: glyph107
Encoding: 285 950 107
Width: 498
VWidth: 0
Flags: W
HStem: -193 20<225 271> 442 20<332 344 388 405.5 448 459> 580 20G<262.31 312>
VStem: 73 19<123 174> 100 20<123 174> 211 19<511 531> 293 20<-152 -103> 459 20<462 466>
LayerCount: 2
Back
Fore
SplineSet
336 416 m 1
 227 334 l 1
 146 253 l 1
 120 174 l 1
 120 123 l 1
 146 71 l 1
 199 18 l 1
 281 -37 l 1
 312 -96 l 1
 313 -156 l 1
 310 -163 l 1
 279 -193 l 1
 220 -193 l 1
 213 -190 l 1
 186 -163 l 1
 183 -156 l 1
 186 -149 l 1
 197 -146 l 1
 225 -173 l 1
 271 -173 l 1
 293 -152 l 1
 293 -103 l 1
 268 -52 l 1
 101 61 l 1
 73 116 l 1
 73 179 l 1
 103 266 l 1
 186 348 l 1
 270 405 l 1
 344 442 l 1
 328 442 l 1
 245 470 l 1
 211 503 l 1
 210 535 l 1
 213 542 l 1
 244 571 l 1
 303 600 l 1
 312 594 l 1
 311 583 l 1
 254 554 l 1
 230 531 l 1
 230 511 l 1
 253 488 l 1
 332 462 l 1
 384 462 l 1
 470 490 l 1
 476 486 l 1
 479 480 l 1
 479 452 l 1
 473 443 l 1
 388 442 l 1
 336 416 l 1
126 67 m 1
 100 120 l 1
 100 176 l 1
 129 264 l 1
 119 253 l 1
 92 174 l 1
 92 123 l 1
 118 72 l 1
 126 67 l 1
448 462 m 1
 459 462 l 1
 459 466 l 1
 448 462 l 1
EndSplineSet
EndChar

StartChar: glyph108
Encoding: 286 951 108
Width: 608
VWidth: 0
Flags: W
HStem: -193 22G<353 369 381 397> 0 21G<102 120 130 148> 387 20<115 162 362 410>
VStem: 102 18<7 13> 130 18<7 13> 184 19<287.75 365> 211 20<289 365> 460 20<225.75 337> 487 20<224.481 337>
LayerCount: 2
Back
Fore
SplineSet
64 336 m 1
 37 282 l 1
 31 277 l 1
 23 277 l 1
 18 283 l 1
 19 291 l 1
 46 346 l 1
 104 404 l 1
 111 407 l 1
 197 406 l 1
 228 376 l 1
 231 369 l 1
 231 314 l 1
 225 289 l 1
 242 321 l 1
 297 376 l 1
 359 407 l 1
 418 406 l 1
 474 378 l 1
 507 345 l 1
 507 257 l 1
 480 119 l 1
 397 -186 l 1
 392 -192 l 1
 381 -191 l 1
 377 -181 l 1
 460 123 l 1
 487 260 l 1
 487 337 l 1
 478 346 l 1
 480 257 l 1
 452 118 l 1
 369 -186 l 1
 360 -193 l 1
 353 -191 l 1
 350 -181 l 1
 432 123 l 1
 460 260 l 1
 460 337 l 1
 410 387 l 1
 362 387 l 1
 310 361 l 1
 257 308 l 1
 203 200 l 1
 148 7 l 1
 139 0 l 1
 130 5 l 1
 129 13 l 1
 184 206 l 1
 211 315 l 1
 211 365 l 1
 202 374 l 1
 203 311 l 1
 176 201 l 1
 120 7 l 1
 112 0 l 1
 102 5 l 1
 101 13 l 1
 156 206 l 1
 184 315 l 1
 184 365 l 1
 162 387 l 1
 115 387 l 1
 64 336 l 1
EndSplineSet
EndChar

StartChar: glyph109
Encoding: 287 952 109
Width: 635
VWidth: 0
Flags: W
HStem: 1 19<251 300> 387 19<113 160> 580 19<389 436>
VStem: 154 20<95 209.25> 182 20<95 199.821 280.75 365> 210 20<280.75 365> 321 19<481 531> 486 20<363.292 505> 513 20<363.25 505>
LayerCount: 2
Back
Fore
SplineSet
62 336 m 1
 35 282 l 1
 29 277 l 1
 22 277 l 1
 17 283 l 1
 17 291 l 1
 45 346 l 1
 105 406 l 1
 196 406 l 1
 227 376 l 1
 230 369 l 1
 230 314 l 1
 202 175 l 1
 202 95 l 1
 228 44 l 1
 251 20 l 1
 300 20 l 1
 351 45 l 1
 404 126 l 1
 431 180 l 1
 457 256 l 1
 405 308 l 1
 349 391 l 1
 321 476 l 1
 320 535 l 1
 323 542 l 1
 381 599 l 1
 444 599 l 1
 503 569 l 1
 532 512 l 1
 533 395 l 1
 503 248 l 1
 556 212 l 1
 561 201 l 1
 557 195 l 1
 549 194 l 1
 496 228 l 1
 476 170 l 1
 421 87 l 1
 365 31 l 1
 307 1 l 1
 243 1 l 1
 185 31 l 1
 154 93 l 1
 154 178 l 1
 182 315 l 1
 182 365 l 1
 160 387 l 1
 113 387 l 1
 62 336 l 1
200 374 m 1
 202 312 l 1
 174 175 l 1
 174 95 l 1
 199 45 l 1
 206 42 l 1
 182 93 l 1
 182 178 l 1
 210 315 l 1
 210 365 l 1
 200 374 l 1
438 149 m 1
 459 180 l 1
 479 239 l 1
 473 243 l 1
 450 173 l 1
 438 149 l 1
485 259 m 1
 513 398 l 1
 513 505 l 1
 488 555 l 1
 481 558 l 1
 506 507 l 1
 506 397 l 1
 479 263 l 1
 485 259 l 1
462 279 m 1
 486 398 l 1
 486 505 l 1
 460 556 l 1
 436 580 l 1
 389 580 l 1
 340 531 l 1
 340 481 l 1
 367 401 l 1
 421 320 l 1
 462 279 l 1
EndSplineSet
EndChar

StartChar: glyph110
Encoding: 288 953 110
Width: 332
VWidth: 0
Flags: W
HStem: 1 19<143 189> 386 20G<161 175 189 202>
VStem: 74 19<42 119.667> 102 19<42 119.667>
LayerCount: 2
Back
Fore
SplineSet
101 206 m 1
 156 399 l 1
 161 405 l 1
 169 406 l 1
 175 402 l 1
 176 394 l 1
 120 201 l 1
 93 92 l 1
 93 42 l 1
 102 33 l 1
 101 95 l 1
 129 206 l 1
 184 399 l 1
 189 405 l 1
 196 406 l 1
 202 402 l 1
 203 394 l 1
 148 201 l 1
 121 92 l 1
 121 42 l 1
 143 20 l 1
 189 20 l 1
 241 71 l 1
 270 128 l 1
 281 129 l 1
 286 120 l 1
 256 58 l 1
 197 1 l 1
 107 1 l 1
 74 34 l 1
 73 95 l 1
 101 206 l 1
EndSplineSet
EndChar

StartChar: glyph111
Encoding: 289 954 111
Width: 553
VWidth: 0
Flags: W
HStem: 0 20<335 356> 221 20<159 189> 387 19<416 438>
VStem: 46 19<7 13>
LayerCount: 2
Back
Fore
SplineSet
45 13 m 1
 156 399 l 1
 161 405 l 1
 172 404 l 1
 175 394 l 1
 130 237 l 1
 138 241 l 1
 184 399 l 1
 188 405 l 1
 199 404 l 1
 203 394 l 1
 159 241 l 1
 191 241 l 1
 242 267 l 1
 352 376 l 1
 410 406 l 1
 473 406 l 1
 504 376 l 1
 507 369 l 1
 501 360 l 1
 469 359 l 1
 462 362 l 1
 438 387 l 1
 416 387 l 1
 365 361 l 1
 255 252 l 1
 216 231 l 1
 253 212 l 1
 258 206 l 1
 312 43 l 1
 335 20 l 1
 356 20 l 1
 407 45 l 1
 461 126 l 1
 467 130 l 1
 475 129 l 1
 479 122 l 1
 478 115 l 1
 419 29 l 1
 359 0 l 1
 304 0 l 1
 297 3 l 1
 267 34 l 1
 212 198 l 1
 189 221 l 1
 153 221 l 1
 92 7 l 1
 88 1 l 1
 76 2 l 1
 73 13 l 1
 133 222 l 1
 128 230 l 1
 65 7 l 1
 60 1 l 1
 52 0 l 1
 46 5 l 1
 45 13 l 1
295 32 m 1
 240 196 l 1
 232 200 l 1
 285 43 l 1
 295 32 l 1
EndSplineSet
EndChar

StartChar: glyph112
Encoding: 290 955 112
Width: 553
VWidth: 0
Flags: W
HStem: 1 19<473 501> 580 20<83 134>
LayerCount: 2
Back
Fore
SplineSet
46 15 m 1
 254 378 l 1
 212 475 l 1
 185 529 l 1
 134 580 l 1
 83 580 l 1
 76 583 l 1
 73 590 l 1
 76 597 l 1
 83 600 l 1
 138 600 l 1
 198 571 l 1
 230 539 l 1
 258 483 l 1
 423 97 l 1
 450 44 l 1
 473 20 l 1
 501 19 l 1
 507 10 l 1
 501 1 l 1
 466 1 l 1
 405 33 l 1
 377 89 l 1
 265 352 l 1
 92 6 l 1
 82 0 l 1
 75 3 l 1
 73 11 l 1
 106 79 l 1
 61 2 l 1
 54 0 l 1
 47 4 l 1
 46 15 l 1
266 399 m 1
 270 404 l 1
 239 475 l 1
 213 529 l 1
 202 539 l 1
 230 483 l 1
 266 399 l 1
276 375 m 1
 396 97 l 1
 422 45 l 1
 429 42 l 1
 405 89 l 1
 280 381 l 1
 276 375 l 1
EndSplineSet
EndChar

StartChar: glyph113
Encoding: 291 956 113
Width: 635
VWidth: 0
Flags: W
HStem: -193 21G<17 31 45 59> 1 19<224 272 472 519> 387 19G<187 201 212 226 491 504 514 529>
VStem: 45 18<-186 -181> 155 19<69 132> 404 19<42 106> 432 18<42 117.244>
LayerCount: 2
Back
Fore
SplineSet
44 -181 m 1
 177 283 l 1
 182 315 l 1
 188 323 l 1
 212 403 l 1
 218 407 l 1
 226 404 l 1
 229 394 l 1
 196 278 l 1
 174 147 l 1
 174 69 l 1
 224 20 l 1
 272 20 l 1
 324 46 l 1
 377 99 l 1
 423 167 l 1
 486 399 l 1
 491 405 l 1
 498 406 l 1
 504 402 l 1
 505 394 l 1
 448 182 l 1
 450 174 l 1
 441 159 l 1
 423 92 l 1
 423 42 l 1
 432 33 l 1
 431 95 l 1
 514 399 l 1
 522 407 l 1
 529 405 l 1
 533 394 l 1
 450 92 l 1
 450 42 l 1
 472 20 l 1
 519 20 l 1
 570 71 l 1
 600 128 l 1
 611 129 l 1
 616 124 l 1
 615 116 l 1
 586 58 l 1
 527 1 l 1
 437 1 l 1
 404 34 l 1
 403 93 l 1
 406 106 l 1
 392 86 l 1
 334 29 l 1
 279 1 l 1
 220 0 l 1
 212 3 l 1
 155 61 l 1
 154 132 l 1
 63 -186 l 1
 59 -192 l 1
 51 -193 l 1
 45 -188 l 1
 44 -181 l 1
17 -181 m 1
 182 399 l 1
 187 405 l 1
 195 406 l 1
 201 402 l 1
 202 394 l 1
 36 -186 l 1
 31 -192 l 1
 23 -193 l 1
 17 -188 l 1
 17 -181 l 1
EndSplineSet
EndChar

StartChar: glyph114
Encoding: 292 957 114
Width: 551
VWidth: 0
Flags: W
HStem: 0 21G<103 170.621> 387 20<82 153 173 180>
LayerCount: 2
Back
Fore
SplineSet
99 11 m 1
 153 387 l 1
 78 387 l 1
 72 397 l 1
 75 404 l 1
 82 407 l 1
 192 407 l 1
 199 404 l 1
 202 399 l 1
 174 229 l 1
 147 91 l 1
 125 26 l 1
 188 47 l 1
 242 74 l 1
 324 128 l 1
 377 182 l 1
 431 290 l 1
 460 403 l 1
 471 406 l 1
 478 398 l 1
 459 317 l 1
 486 400 l 1
 495 407 l 1
 503 404 l 1
 505 394 l 1
 478 311 l 1
 450 254 l 1
 394 170 l 1
 337 113 l 1
 253 57 l 1
 197 29 l 1
 112 0 l 1
 103 2 l 1
 99 11 l 1
173 387 m 1
 143 172 l 1
 180 387 l 1
 173 387 l 1
EndSplineSet
EndChar

StartChar: glyph115
Encoding: 293 958 115
Width: 471
VWidth: 0
Flags: W
HStem: -193 19<190 247> 193 20<279 359> 442 20<333 415> 580 20G<263.31 313>
VStem: 74 19<42 90> 102 19<42 90> 129 20<290 339> 158 18<290 339> 212 19<511 531> 294 20<-150 -105>
LayerCount: 2
Back
Fore
SplineSet
279 213 m 1
 359 213 l 1
 367 210 l 1
 369 203 l 1
 367 196 l 1
 359 193 l 1
 278 193 l 1
 198 166 l 1
 146 141 l 1
 121 90 l 1
 121 42 l 1
 172 -9 l 1
 281 -64 l 1
 313 -97 l 1
 314 -156 l 1
 312 -162 l 1
 253 -192 l 1
 190 -193 l 1
 184 -183 l 1
 190 -174 l 1
 247 -173 l 1
 294 -150 l 1
 294 -105 l 1
 271 -81 l 1
 131 -25 l 1
 74 34 l 1
 73 93 l 1
 106 157 l 1
 164 185 l 1
 241 205 l 1
 187 224 l 1
 131 279 l 1
 129 286 l 1
 129 341 l 1
 162 406 l 1
 219 434 l 1
 296 453 l 1
 242 472 l 1
 212 503 l 1
 211 535 l 1
 214 542 l 1
 245 571 l 1
 304 600 l 1
 313 594 l 1
 312 583 l 1
 255 554 l 1
 231 531 l 1
 231 511 l 1
 254 488 l 1
 333 462 l 1
 415 462 l 1
 422 459 l 1
 425 452 l 1
 422 445 l 1
 415 442 l 1
 333 442 l 1
 253 415 l 1
 201 389 l 1
 176 339 l 1
 176 290 l 1
 227 239 l 1
 279 213 l 1
102 33 m 1
 101 93 l 1
 125 144 l 1
 118 141 l 1
 93 90 l 1
 93 42 l 1
 102 33 l 1
158 281 m 1
 156 341 l 1
 181 393 l 1
 174 389 l 1
 149 339 l 1
 149 290 l 1
 158 281 l 1
EndSplineSet
EndChar

StartChar: glyph116
Encoding: 294 959 116
Width: 499
VWidth: 0
Flags: W
HStem: 0 20<196 247> 387 20<251 302>
VStem: 73 20<123 202> 101 20<108 202> 377 20<205 299> 405 20<205 284>
LayerCount: 2
Back
Fore
SplineSet
249 407 m 1
 309 406 l 1
 366 377 l 1
 394 348 l 1
 425 286 l 1
 425 203 l 1
 395 115 l 1
 338 30 l 1
 252 1 l 1
 194 0 l 1
 134 29 l 1
 102 61 l 1
 73 120 l 1
 73 203 l 1
 103 292 l 1
 158 375 l 1
 163 379 l 1
 249 407 l 1
101 108 m 1
 101 206 l 1
 129 289 l 1
 177 362 l 1
 173 361 l 1
 120 282 l 1
 93 202 l 1
 93 123 l 1
 101 108 l 1
352 362 m 1
 302 387 l 1
 251 387 l 1
 201 361 l 1
 148 282 l 1
 121 202 l 1
 121 95 l 1
 146 45 l 1
 196 20 l 1
 247 20 l 1
 297 45 l 1
 350 125 l 1
 377 205 l 1
 377 311 l 1
 352 362 l 1
397 299 m 1
 397 200 l 1
 369 117 l 1
 321 44 l 1
 325 46 l 1
 378 125 l 1
 405 205 l 1
 405 284 l 1
 397 299 l 1
EndSplineSet
EndChar

StartChar: glyph117
Encoding: 295 960 117
Width: 609
VWidth: 0
Flags: W
HStem: 0 21G<129 146 157 176 407 424 436 450> 359 20<195 235 257 404 425 553> 387 20<195 553>
VStem: 129 17<5 26.4> 235 22<336.151 359> 404 20<10 109 272 359>
LayerCount: 2
Back
Fore
SplineSet
45 313 m 1
 48 320 l 1
 104 376 l 1
 194 407 l 1
 553 407 l 1
 560 404 l 1
 563 397 l 1
 560 390 l 1
 553 387 l 1
 195 387 l 1
 116 360 l 1
 106 350 l 1
 194 379 l 1
 553 379 l 1
 560 376 l 1
 562 365 l 1
 553 359 l 1
 425 359 l 1
 452 11 l 1
 450 3 l 1
 443 0 l 1
 436 2 l 1
 432 9 l 1
 424 109 l 1
 424 6 l 1
 414 0 l 1
 407 3 l 1
 404 10 l 1
 404 359 l 1
 257 359 l 1
 176 8 l 1
 168 0 l 1
 157 5 l 1
 156 12 l 1
 176 100 l 1
 146 4 l 1
 135 0 l 1
 129 5 l 1
 129 13 l 1
 235 359 l 1
 195 359 l 1
 115 332 l 1
 59 305 l 1
 49 306 l 1
 45 313 l 1
EndSplineSet
EndChar

StartChar: glyph118
Encoding: 296 961 118
Width: 526
VWidth: 0
Flags: W
HStem: -193 21G<-9 5 19 32> 1 19<223 274> 387 19<278 329>
VStem: -9 18<-186 -181> 19 18<-186 -181> 404 20<205 299> 432 19<205 284>
LayerCount: 2
Back
Fore
SplineSet
103 140 m 1
 9 -186 l 1
 5 -192 l 1
 -3 -193 l 1
 -9 -188 l 1
 -10 -181 l 1
 101 206 l 1
 130 292 l 1
 185 375 l 1
 273 406 l 1
 331 407 l 1
 391 378 l 1
 423 346 l 1
 452 286 l 1
 451 200 l 1
 422 115 l 1
 367 32 l 1
 279 1 l 1
 216 1 l 1
 158 31 l 1
 131 58 l 1
 117 95 l 1
 37 -186 l 1
 32 -192 l 1
 25 -193 l 1
 19 -188 l 1
 18 -181 l 1
 106 129 l 1
 103 140 l 1
108 158 m 1
 114 157 l 1
 156 289 l 1
 204 362 l 1
 200 361 l 1
 147 282 l 1
 108 158 l 1
278 387 m 1
 228 361 l 1
 175 282 l 1
 127 129 l 1
 147 71 l 1
 171 46 l 1
 223 20 l 1
 274 20 l 1
 324 45 l 1
 377 125 l 1
 404 205 l 1
 404 311 l 1
 379 362 l 1
 329 387 l 1
 278 387 l 1
424 299 m 1
 424 200 l 1
 396 117 l 1
 348 44 l 1
 352 46 l 1
 405 125 l 1
 432 205 l 1
 432 284 l 1
 424 299 l 1
EndSplineSet
EndChar

StartChar: glyph119
Encoding: 297 963 119
Width: 580
VWidth: 0
Flags: W
HStem: 0 20<195 245> 359 20<382 524> 387 20<250 300 345 524>
VStem: 72 20<123 223.538> 99 20<108 202 275.519 282> 375 20<200 299> 403 20<205 284>
LayerCount: 2
Back
Fore
SplineSet
247 407 m 1
 524 407 l 1
 531 404 l 1
 534 397 l 1
 531 390 l 1
 524 387 l 1
 345 387 l 1
 360 379 l 1
 524 379 l 1
 531 376 l 1
 534 369 l 1
 531 362 l 1
 524 359 l 1
 382 359 l 1
 394 346 l 1
 423 286 l 1
 423 200 l 1
 394 115 l 1
 336 30 l 1
 251 1 l 1
 192 0 l 1
 132 29 l 1
 100 61 l 1
 72 120 l 1
 72 203 l 1
 101 292 l 1
 156 375 l 1
 161 379 l 1
 247 407 l 1
99 108 m 1
 100 206 l 1
 127 289 l 1
 176 362 l 1
 171 361 l 1
 118 282 l 1
 92 202 l 1
 92 123 l 1
 99 108 l 1
250 387 m 1
 199 361 l 1
 146 282 l 1
 119 202 l 1
 119 95 l 1
 144 45 l 1
 195 20 l 1
 245 20 l 1
 296 45 l 1
 349 125 l 1
 375 205 l 1
 375 311 l 1
 350 362 l 1
 300 387 l 1
 250 387 l 1
395 299 m 1
 395 200 l 1
 367 117 l 1
 319 44 l 1
 324 46 l 1
 376 125 l 1
 403 205 l 1
 403 284 l 1
 395 299 l 1
EndSplineSet
EndChar

StartChar: glyph120
Encoding: 298 964 120
Width: 553
VWidth: 0
Flags: W
HStem: 0 21G<212 229 240 258> 359 20<195 291 312 497> 387 19<195 497>
VStem: 212 17<5 12> 240 18<8 47.3846>
LayerCount: 2
Back
Fore
SplineSet
45 313 m 1
 47 320 l 1
 103 376 l 1
 190 406 l 1
 497 407 l 1
 504 404 l 1
 507 397 l 1
 504 390 l 1
 497 387 l 1
 195 387 l 1
 116 360 l 1
 106 350 l 1
 193 379 l 1
 497 379 l 1
 506 373 l 1
 504 362 l 1
 497 359 l 1
 312 359 l 1
 258 8 l 1
 251 0 l 1
 240 4 l 1
 238 12 l 1
 253 104 l 1
 229 4 l 1
 219 0 l 1
 212 5 l 1
 211 12 l 1
 291 359 l 1
 195 359 l 1
 114 332 l 1
 59 305 l 1
 48 306 l 1
 45 313 l 1
EndSplineSet
EndChar

StartChar: glyph121
Encoding: 299 965 121
Width: 551
VWidth: 0
Flags: W
HStem: 0 20<224 246> 387 19<113 160>
VStem: 127 20<69 146> 156 19<69 151> 182 20<315 365> 210 19<315 365>
LayerCount: 2
Back
Fore
SplineSet
62 336 m 1
 35 282 l 1
 30 277 l 1
 22 277 l 1
 17 283 l 1
 17 291 l 1
 45 346 l 1
 105 406 l 1
 196 406 l 1
 229 373 l 1
 229 311 l 1
 175 146 l 1
 175 69 l 1
 224 20 l 1
 246 20 l 1
 325 46 l 1
 378 99 l 1
 431 179 l 1
 449 285 l 1
 432 336 l 1
 406 362 l 1
 403 369 l 1
 406 376 l 1
 437 406 l 1
 444 406 l 1
 450 401 l 1
 478 344 l 1
 478 258 l 1
 449 170 l 1
 394 87 l 1
 337 31 l 1
 251 1 l 1
 220 0 l 1
 160 29 l 1
 130 58 l 1
 127 65 l 1
 127 151 l 1
 182 315 l 1
 182 365 l 1
 160 387 l 1
 113 387 l 1
 62 336 l 1
201 374 m 1
 202 311 l 1
 147 146 l 1
 147 69 l 1
 156 60 l 1
 155 151 l 1
 210 315 l 1
 210 365 l 1
 201 374 l 1
458 340 m 1
 438 380 l 1
 427 369 l 1
 448 348 l 1
 456 328 l 1
 458 340 l 1
EndSplineSet
EndChar

StartChar: glyph122
Encoding: 300 966 122
Width: 608
VWidth: 0
Flags: W
HStem: -192 21G<156 171 184 203> 0 20<196 210 249 275> 28 20<196 219 255 280> 359 20<419 467> 387 20<419 466>
VStem: 73 20<125 202> 515 19<260 335>
LayerCount: 2
Back
Fore
SplineSet
73 120 m 1
 74 206 l 1
 101 289 l 1
 159 348 l 1
 217 378 l 1
 228 377 l 1
 231 370 l 1
 229 362 l 1
 172 333 l 1
 119 281 l 1
 93 202 l 1
 93 125 l 1
 144 73 l 1
 196 48 l 1
 225 48 l 1
 239 97 l 1
 295 235 l 1
 350 346 l 1
 407 404 l 1
 414 407 l 1
 474 406 l 1
 534 345 l 1
 534 255 l 1
 506 170 l 1
 448 85 l 1
 365 29 l 1
 280 1 l 1
 245 0 l 1
 203 -186 l 1
 199 -192 l 1
 188 -192 l 1
 184 -181 l 1
 203 -94 l 1
 175 -186 l 1
 171 -192 l 1
 163 -193 l 1
 156 -184 l 1
 210 0 l 1
 189 1 l 1
 131 31 l 1
 102 61 l 1
 73 120 l 1
134 56 m 1
 144 46 l 1
 196 20 l 1
 216 20 l 1
 219 28 l 1
 189 29 l 1
 134 56 l 1
474 378 m 1
 466 387 l 1
 419 387 l 1
 409 377 l 1
 414 379 l 1
 474 378 l 1
255 48 m 1
 275 48 l 1
 355 74 l 1
 436 128 l 1
 489 181 l 1
 515 260 l 1
 515 335 l 1
 467 359 l 1
 419 359 l 1
 367 307 l 1
 313 227 l 1
 255 48 l 1
439 107 m 1
 362 56 l 1
 280 28 l 1
 251 28 l 1
 249 20 l 1
 275 20 l 1
 355 47 l 1
 435 100 l 1
 439 107 l 1
EndSplineSet
EndChar

StartChar: glyph123
Encoding: 301 967 123
Width: 499
VWidth: 0
Flags: W
HStem: -193 20<391 446> 387 20<56 107>
LayerCount: 2
Back
Fore
SplineSet
107 387 m 1
 56 387 l 1
 49 390 l 1
 46 397 l 1
 49 404 l 1
 56 407 l 1
 111 407 l 1
 173 376 l 1
 203 317 l 1
 263 137 l 1
 379 265 l 1
 434 346 l 1
 463 404 l 1
 471 407 l 1
 478 403 l 1
 479 392 l 1
 451 337 l 1
 395 253 l 1
 270 115 l 1
 341 -97 l 1
 368 -150 l 1
 391 -173 l 1
 446 -174 l 1
 452 -183 l 1
 446 -193 l 1
 383 -193 l 1
 325 -163 l 1
 295 -104 l 1
 235 76 l 1
 119 -51 l 1
 64 -133 l 1
 35 -191 l 1
 27 -193 l 1
 20 -190 l 1
 19 -179 l 1
 47 -124 l 1
 103 -40 l 1
 228 98 l 1
 157 310 l 1
 130 363 l 1
 107 387 l 1
152 365 m 1
 176 317 l 1
 243 115 l 1
 248 120 l 1
 184 310 l 1
 159 362 l 1
 152 365 l 1
255 98 m 1
 250 93 l 1
 314 -97 l 1
 339 -148 l 1
 346 -152 l 1
 322 -104 l 1
 255 98 l 1
EndSplineSet
EndChar

StartChar: glyph124
Encoding: 302 968 124
Width: 634
VWidth: 0
Flags: W
HStem: -193 21G<210 224 241 257> 0 20<250 262 301 328> 28 20<251 269 307 328> 387 19<113 160> 580 20G<403 419 431 447>
VStem: 154 20<95 209.25> 182 20<97 199.821 280.75 365> 210 20<280.75 365>
CounterMasks: 1 07
LayerCount: 2
Back
Fore
SplineSet
62 336 m 1
 35 282 l 1
 29 277 l 1
 22 277 l 1
 17 283 l 1
 17 291 l 1
 45 346 l 1
 105 406 l 1
 196 406 l 1
 227 376 l 1
 230 369 l 1
 230 314 l 1
 202 175 l 1
 202 97 l 1
 251 48 l 1
 275 48 l 1
 320 206 l 1
 403 592 l 1
 411 600 l 1
 419 598 l 1
 423 592 l 1
 402 492 l 1
 431 593 l 1
 439 600 l 1
 447 598 l 1
 450 587 l 1
 340 201 l 1
 307 48 l 1
 328 48 l 1
 379 73 l 1
 460 154 l 1
 514 235 l 1
 569 400 l 1
 578 407 l 1
 588 401 l 1
 588 394 l 1
 532 226 l 1
 504 170 l 1
 449 87 l 1
 390 29 l 1
 334 1 l 1
 297 0 l 1
 257 -185 l 1
 249 -193 l 1
 241 -192 l 1
 237 -181 l 1
 258 -85 l 1
 229 -186 l 1
 224 -192 l 1
 217 -193 l 1
 210 -184 l 1
 262 0 l 1
 243 1 l 1
 185 31 l 1
 154 93 l 1
 154 178 l 1
 182 315 l 1
 182 365 l 1
 160 387 l 1
 113 387 l 1
 62 336 l 1
200 374 m 1
 202 312 l 1
 174 175 l 1
 174 95 l 1
 199 45 l 1
 250 20 l 1
 267 20 l 1
 269 28 l 1
 247 28 l 1
 240 31 l 1
 185 86 l 1
 182 93 l 1
 182 178 l 1
 210 315 l 1
 210 365 l 1
 200 374 l 1
303 28 m 1
 301 20 l 1
 328 20 l 1
 379 46 l 1
 390 56 l 1
 334 29 l 1
 303 28 l 1
EndSplineSet
EndChar

StartChar: glyph125
Encoding: 303 969 125
Width: 636
VWidth: 0
Flags: W
HStem: 1 19<142 191 363 411> 29 19<142 191 363 411> 387 20G<180.625 228 490 504>
VStem: 72 20<123 202> 293 20<182 203> 542 19<205 284>
LayerCount: 2
Back
Fore
SplineSet
72 120 m 1
 73 206 l 1
 101 290 l 1
 157 375 l 1
 220 407 l 1
 228 404 l 1
 255 376 l 1
 257 365 l 1
 251 360 l 1
 171 333 l 1
 119 281 l 1
 92 202 l 1
 92 123 l 1
 118 71 l 1
 142 48 l 1
 191 48 l 1
 242 73 l 1
 293 125 l 1
 293 203 l 1
 296 210 l 1
 303 213 l 1
 313 207 l 1
 313 182 l 1
 323 210 l 1
 334 213 l 1
 340 208 l 1
 340 200 l 1
 314 121 l 1
 339 71 l 1
 363 48 l 1
 411 48 l 1
 463 73 l 1
 516 126 l 1
 542 205 l 1
 542 284 l 1
 517 334 l 1
 465 360 l 1
 460 366 l 1
 460 373 l 1
 490 404 l 1
 497 407 l 1
 504 404 l 1
 534 372 l 1
 562 287 l 1
 561 200 l 1
 534 117 l 1
 474 29 l 1
 414 0 l 1
 355 1 l 1
 322 34 l 1
 300 98 l 1
 253 29 l 1
 193 0 l 1
 134 1 l 1
 101 34 l 1
 72 120 l 1
166 352 m 1
 230 373 l 1
 219 384 l 1
 172 361 l 1
 166 352 l 1
133 29 m 1
 142 20 l 1
 191 20 l 1
 241 45 l 1
 247 53 l 1
 193 28 l 1
 133 29 l 1
518 356 m 1
 516 364 l 1
 497 383 l 1
 486 372 l 1
 518 356 l 1
468 53 m 1
 414 28 l 1
 354 29 l 1
 363 20 l 1
 411 20 l 1
 462 45 l 1
 468 53 l 1
EndSplineSet
EndChar

StartChar: glyph126
Encoding: 304 1040 126
Width: 553
VWidth: 0
Flags: W
HStem: 0 20<27 75 97 193 359 428 449 455 477 525> 166 20<152 373> 579 20G<267 285>
LayerCount: 2
Back
Fore
SplineSet
75 20 m 1
 267 593 l 1
 272 599 l 1
 279 599 l 1
 285 593 l 1
 477 20 l 1
 528 19 l 1
 534 14 l 1
 534 6 l 1
 525 0 l 1
 359 0 l 1
 352 3 l 1
 350 14 l 1
 355 19 l 1
 428 20 l 1
 379 166 l 1
 145 166 l 1
 97 20 l 1
 193 20 l 1
 200 17 l 1
 202 6 l 1
 193 0 l 1
 27 0 l 1
 18 6 l 1
 18 14 l 1
 24 19 l 1
 75 20 l 1
276 558 m 1
 152 186 l 1
 373 186 l 1
 267 504 l 1
 269 515 l 1
 280 516 l 1
 285 510 l 1
 449 20 l 1
 455 20 l 1
 276 558 l 1
EndSplineSet
EndChar

StartChar: glyph127
Encoding: 305 1041 127
Width: 609
VWidth: 0
Flags: W
HStem: 0 20<55 128 148 156 176 384> 304 20<176 384> 580 20<55 128 148 156 176 461 482 487>
VStem: 128 20<20 580> 156 20<20 304 324 580> 461 21<545 580> 487 20<123 201 424 465.269 545 580> 515 20<123 201>
LayerCount: 2
Back
Fore
SplineSet
128 580 m 1
 55 580 l 1
 48 583 l 1
 45 590 l 1
 48 597 l 1
 55 600 l 1
 497 600 l 1
 507 594 l 1
 507 424 l 1
 505 418 l 1
 498 414 l 1
 491 416 l 1
 487 423 l 1
 461 580 l 1
 176 580 l 1
 176 324 l 1
 388 324 l 1
 473 296 l 1
 506 263 l 1
 535 203 l 1
 535 120 l 1
 506 61 l 1
 477 31 l 1
 388 0 l 1
 55 0 l 1
 46 6 l 1
 48 17 l 1
 55 20 l 1
 128 20 l 1
 128 580 l 1
148 580 m 1
 148 20 l 1
 156 20 l 1
 156 580 l 1
 148 580 l 1
176 20 m 1
 384 20 l 1
 436 46 l 1
 461 71 l 1
 487 123 l 1
 487 201 l 1
 461 253 l 1
 436 278 l 1
 384 304 l 1
 176 304 l 1
 176 20 l 1
482 580 m 1
 487 545 l 1
 487 580 l 1
 482 580 l 1
479 263 m 1
 507 203 l 1
 507 120 l 1
 479 61 l 1
 489 71 l 1
 515 123 l 1
 515 201 l 1
 489 253 l 1
 479 263 l 1
EndSplineSet
EndChar

StartChar: glyph128
Encoding: 306 1042 128
Width: 609
VWidth: 0
Flags: W
HStem: 0 20<55 128 148 156 176 384> 304 20<176 384> 580 20<55 128 148 156 176 384>
VStem: 128 20<20 580> 156 20<20 304 324 580> 487 20<123 201 427 477> 515 19<123 201 427 477>
LayerCount: 2
Back
Fore
SplineSet
128 580 m 1
 55 580 l 1
 48 583 l 1
 45 590 l 1
 48 597 l 1
 55 600 l 1
 388 600 l 1
 473 572 l 1
 506 539 l 1
 535 480 l 1
 534 420 l 1
 506 365 l 1
 477 334 l 1
 418 314 l 1
 477 293 l 1
 506 263 l 1
 535 203 l 1
 534 116 l 1
 506 61 l 1
 477 31 l 1
 388 0 l 1
 55 0 l 1
 46 6 l 1
 48 17 l 1
 55 20 l 1
 128 20 l 1
 128 580 l 1
148 580 m 1
 148 20 l 1
 156 20 l 1
 156 580 l 1
 148 580 l 1
176 20 m 1
 384 20 l 1
 436 46 l 1
 461 71 l 1
 487 123 l 1
 487 201 l 1
 461 253 l 1
 436 278 l 1
 384 304 l 1
 176 304 l 1
 176 20 l 1
176 324 m 1
 384 324 l 1
 436 350 l 1
 461 375 l 1
 487 427 l 1
 487 477 l 1
 461 529 l 1
 436 554 l 1
 384 580 l 1
 176 580 l 1
 176 324 l 1
479 539 m 1
 507 480 l 1
 506 420 l 1
 479 364 l 1
 489 375 l 1
 515 427 l 1
 515 477 l 1
 489 529 l 1
 479 539 l 1
479 61 m 1
 489 71 l 1
 515 123 l 1
 515 201 l 1
 489 253 l 1
 479 263 l 1
 507 203 l 1
 507 120 l 1
 479 61 l 1
EndSplineSet
EndChar

StartChar: glyph129
Encoding: 307 1043 129
Width: 498
VWidth: 0
Flags: W
HStem: 0 20<55 128 148 155 175 252> 580 20<55 128 148 155 175 433 453 459>
VStem: 128 20<20 580> 155 20<20 580> 433 20<545 580> 459 19<424 465.269 545 580>
LayerCount: 2
Back
Fore
SplineSet
128 580 m 1
 55 580 l 1
 48 583 l 1
 45 590 l 1
 48 597 l 1
 55 600 l 1
 469 600 l 1
 478 594 l 1
 479 424 l 1
 476 418 l 1
 470 414 l 1
 463 416 l 1
 459 423 l 1
 433 580 l 1
 175 580 l 1
 175 20 l 1
 252 19 l 1
 258 10 l 1
 252 1 l 1
 55 0 l 1
 45 6 l 1
 45 14 l 1
 55 20 l 1
 128 20 l 1
 128 580 l 1
148 580 m 1
 148 20 l 1
 155 20 l 1
 155 580 l 1
 148 580 l 1
453 580 m 1
 459 545 l 1
 459 580 l 1
 453 580 l 1
EndSplineSet
EndChar

StartChar: glyph130
Encoding: 308 1044 130
Width: 662
VWidth: 0
Flags: W
HStem: -193 21G<17 33 597 614> 0 20<37 43 63 106 134 487 507 514 534 571 591 597> 580 20<138 211 231 487 507 514 534 607>
VStem: 17 20<-183 -135.192 -43 0> 37 26<-43 0> 211 19<373.889 580> 487 20<20 580> 514 20<20 580> 571 20<-43 0> 597 19<-183 -135.192 -43 0>
LayerCount: 2
Back
Fore
SplineSet
17 10 m 1xf7c0
 20 17 l 1
 27 20 l 1
 106 20 l 1
 129 44 l 1
 156 96 l 1
 183 205 l 1
 211 425 l 1
 211 580 l 1
 134 581 l 1
 128 590 l 1
 131 597 l 1
 138 600 l 1
 607 600 l 1
 614 597 l 1
 616 586 l 1
 611 581 l 1
 534 580 l 1
 534 20 l 1
 607 20 l 1
 616 14 l 1
 617 -183 l 1
 614 -190 l 1
 605 -193 l 1
 597 -185 l 1
 571 0 l 1
 63 0 l 1
 37 -185 l 1xefc0
 33 -191 l 1
 23 -193 l 1
 17 -183 l 1
 17 10 l 1xf7c0
37 0 m 1xf7c0
 37 -43 l 1
 43 0 l 1
 37 0 l 1xf7c0
134 20 m 1
 487 20 l 1
 487 580 l 1
 231 580 l 1
 230 423 l 1
 203 202 l 1
 174 88 l 1
 147 33 l 1
 134 20 l 1
507 20 m 1
 514 20 l 1
 514 580 l 1
 507 580 l 1
 507 20 l 1
591 0 m 1
 597 -43 l 1
 597 0 l 1
 591 0 l 1
EndSplineSet
EndChar

StartChar: glyph131
Encoding: 309 1045 131
Width: 580
VWidth: 0
Flags: W
HStem: 0 20<55 128 148 156 176 461 482 487> 304 20<176 322> 580 20<55 128 148 156 176 461 482 487>
VStem: 128 20<20 580> 156 20<20 304 324 580> 322 20<203 304 324 424> 461 21<20 55 545 580> 487 20<20 55 134.731 176 424 465.269 545 580>
LayerCount: 2
Back
Fore
SplineSet
128 580 m 1
 55 580 l 1
 48 583 l 1
 45 590 l 1
 48 597 l 1
 55 600 l 1
 497 600 l 1
 507 594 l 1
 507 424 l 1
 505 418 l 1
 498 414 l 1
 491 416 l 1
 487 423 l 1
 461 580 l 1
 176 580 l 1
 176 324 l 1
 322 324 l 1
 322 424 l 1
 328 434 l 1
 339 431 l 1
 342 424 l 1
 342 203 l 1
 335 194 l 1
 328 194 l 1
 322 200 l 1
 322 304 l 1
 176 304 l 1
 176 20 l 1
 461 20 l 1
 487 177 l 1
 491 184 l 1
 498 186 l 1
 505 182 l 1
 507 176 l 1
 507 10 l 1
 501 1 l 1
 55 0 l 1
 46 6 l 1
 48 17 l 1
 55 20 l 1
 128 20 l 1
 128 580 l 1
148 580 m 1
 148 20 l 1
 156 20 l 1
 156 580 l 1
 148 580 l 1
482 580 m 1
 487 545 l 1
 487 580 l 1
 482 580 l 1
482 20 m 1
 487 20 l 1
 487 55 l 1
 482 20 l 1
EndSplineSet
EndChar

StartChar: glyph132
Encoding: 310 1046 132
Width: 857
VWidth: 0
Flags: W
HStem: 0 20<114 134 327 404 424 432 452 524 722 741> 304 20<308 404 424 432 452 548> 580 20<114 134 331 404 424 432 452 528 722 741>
VStem: 73 20<539 558> 404 20<20 304 324 580> 432 20<20 304 324 580> 763 19<539 558>
LayerCount: 2
Back
Fore
SplineSet
105 571 m 1
 110 572 l 1
 117 569 l 1
 145 542 l 1
 148 535 l 1
 145 528 l 1
 117 500 l 1
 110 497 l 1
 103 500 l 1
 73 531 l 1
 73 562 l 1
 76 569 l 1
 106 599 l 1
 138 600 l 1
 145 597 l 1
 174 567 l 1
 202 512 l 1
 230 400 l 1
 256 349 l 1
 306 324 l 1
 404 324 l 1
 404 580 l 1
 331 580 l 1
 322 586 l 1
 322 594 l 1
 331 600 l 1
 528 599 l 1
 534 590 l 1
 528 581 l 1
 452 580 l 1
 452 324 l 1
 550 324 l 1
 600 349 l 1
 626 400 l 1
 654 512 l 1
 683 569 l 1
 714 599 l 1
 745 600 l 1
 752 597 l 1
 782 566 l 1
 782 531 l 1
 752 500 l 1
 742 498 l 1
 711 528 l 1
 708 535 l 1
 711 542 l 1
 738 569 l 1
 745 572 l 1
 750 571 l 1
 741 580 l 1
 722 580 l 1
 698 556 l 1
 672 504 l 1
 644 392 l 1
 616 337 l 1
 574 314 l 1
 616 291 l 1
 645 233 l 1
 672 96 l 1
 698 44 l 1
 722 20 l 1
 741 20 l 1
 765 44 l 1
 794 100 l 1
 801 103 l 1
 808 99 l 1
 810 88 l 1
 780 31 l 1
 749 1 l 1
 690 0 l 1
 683 3 l 1
 654 33 l 1
 626 88 l 1
 598 228 l 1
 571 280 l 1
 548 304 l 1
 452 304 l 1
 452 20 l 1
 524 20 l 1
 534 14 l 1
 534 6 l 1
 524 0 l 1
 327 1 l 1
 321 10 l 1
 327 19 l 1
 404 20 l 1
 404 304 l 1
 308 304 l 1
 284 280 l 1
 258 228 l 1
 230 91 l 1
 202 33 l 1
 169 1 l 1
 110 0 l 1
 103 3 l 1
 74 33 l 1
 46 88 l 1
 47 99 l 1
 54 103 l 1
 62 100 l 1
 91 44 l 1
 114 20 l 1
 134 20 l 1
 157 44 l 1
 184 96 l 1
 211 233 l 1
 239 291 l 1
 281 314 l 1
 239 337 l 1
 212 392 l 1
 184 504 l 1
 157 556 l 1
 134 580 l 1
 114 580 l 1
 105 571 l 1
102 567 m 1
 93 558 l 1
 93 539 l 1
 110 521 l 1
 124 535 l 1
 103 555 l 1
 100 562 l 1
 102 567 l 1
424 580 m 1
 424 324 l 1
 432 324 l 1
 432 580 l 1
 424 580 l 1
424 304 m 1
 424 20 l 1
 432 20 l 1
 432 304 l 1
 424 304 l 1
174 33 m 1
 185 44 l 1
 211 96 l 1
 238 233 l 1
 263 282 l 1
 256 279 l 1
 230 228 l 1
 203 91 l 1
 174 33 l 1
754 567 m 1
 755 562 l 1
 752 555 l 1
 732 535 l 1
 745 521 l 1
 763 539 l 1
 763 558 l 1
 754 567 l 1
681 33 m 1
 653 91 l 1
 625 228 l 1
 600 279 l 1
 593 282 l 1
 617 233 l 1
 644 96 l 1
 671 44 l 1
 681 33 l 1
EndSplineSet
EndChar

StartChar: glyph133
Encoding: 311 1047 133
Width: 551
VWidth: 0
Flags: W
HStem: 0 20<195 328> 331 20<247 328> 580 20<222 328>
VStem: 72 20<123 144 486 528> 403 20<427 505> 431 20<123 202 427 505> 458 19<123 201>
LayerCount: 2
Back
Fore
SplineSet
91 593 m 1
 114 526 l 1
 160 571 l 1
 220 600 l 1
 331 600 l 1
 416 572 l 1
 422 567 l 1
 451 507 l 1
 450 420 l 1
 420 361 l 1
 356 340 l 1
 393 321 l 1
 448 266 l 1
 478 203 l 1
 477 116 l 1
 450 61 l 1
 416 28 l 1
 331 0 l 1
 192 0 l 1
 132 29 l 1
 100 61 l 1
 73 116 l 1
 72 148 l 1
 75 155 l 1
 102 183 l 1
 109 186 l 1
 116 183 l 1
 144 155 l 1
 146 144 l 1
 116 113 l 1
 105 111 l 1
 100 117 l 1
 100 124 l 1
 123 148 l 1
 109 162 l 1
 92 144 l 1
 92 123 l 1
 118 71 l 1
 143 46 l 1
 195 20 l 1
 328 20 l 1
 380 46 l 1
 405 71 l 1
 431 123 l 1
 431 202 l 1
 404 281 l 1
 380 306 l 1
 328 331 l 1
 247 331 l 1
 240 334 l 1
 237 341 l 1
 240 348 l 1
 247 351 l 1
 328 351 l 1
 378 377 l 1
 403 427 l 1
 403 505 l 1
 378 555 l 1
 328 580 l 1
 222 580 l 1
 170 554 l 1
 118 502 l 1
 91 421 l 1
 82 414 l 1
 75 417 l 1
 72 424 l 1
 72 590 l 1
 78 599 l 1
 86 599 l 1
 91 593 l 1
400 556 m 1
 423 507 l 1
 423 424 l 1
 400 375 l 1
 406 377 l 1
 431 427 l 1
 431 505 l 1
 406 554 l 1
 400 556 l 1
422 61 m 1
 432 71 l 1
 458 123 l 1
 458 201 l 1
 439 239 l 1
 451 203 l 1
 451 120 l 1
 422 61 l 1
99 507 m 1
 92 528 l 1
 92 486 l 1
 99 507 l 1
EndSplineSet
EndChar

StartChar: glyph134
Encoding: 312 1048 134
Width: 661
VWidth: 0
Flags: W
HStem: 0 20<54 127 147 154 174 247 413 486 506 513 533 606> 580 20<54 127 147 154 174 247 413 486 506 513 533 606>
VStem: 127 20<20 580> 154 20<20 62 97 580> 486 20<20 503 538 580> 513 20<20 580>
LayerCount: 2
Back
Fore
SplineSet
127 580 m 1
 54 580 l 1
 47 583 l 1
 44 590 l 1
 47 597 l 1
 54 600 l 1
 247 600 l 1
 254 597 l 1
 257 590 l 1
 254 583 l 1
 247 580 l 1
 174 580 l 1
 174 97 l 1
 486 538 l 1
 486 580 l 1
 409 581 l 1
 404 586 l 1
 406 597 l 1
 413 600 l 1
 606 600 l 1
 613 597 l 1
 615 586 l 1
 610 581 l 1
 533 580 l 1
 533 20 l 1
 610 19 l 1
 615 14 l 1
 613 3 l 1
 606 0 l 1
 413 0 l 1
 404 6 l 1
 404 14 l 1
 413 20 l 1
 486 20 l 1
 486 503 l 1
 174 62 l 1
 174 20 l 1
 251 19 l 1
 256 14 l 1
 254 3 l 1
 247 0 l 1
 54 0 l 1
 47 3 l 1
 44 10 l 1
 50 19 l 1
 127 20 l 1
 127 580 l 1
147 580 m 1
 147 20 l 1
 154 20 l 1
 154 580 l 1
 147 580 l 1
506 580 m 1
 506 20 l 1
 513 20 l 1
 513 580 l 1
 506 580 l 1
EndSplineSet
EndChar

StartChar: glyph135
Encoding: 313 1049 135
Width: 661
VWidth: 0
Flags: W
HStem: 0 20<54 127 147 154 174 247 413 486 506 513 533 606> 580 20<54 127 147 154 174 247 413 486 506 513 533 606> 663 20<277 383> 773 20<202 210>
VStem: 127 20<20 580> 154 20<20 62 97 580> 183 19<758 773> 210 20<756 773> 486 20<20 503 538 580> 513 20<20 580>
LayerCount: 2
Back
Fore
SplineSet
127 580 m 1
 54 580 l 1
 47 583 l 1
 44 590 l 1
 47 597 l 1
 54 600 l 1
 247 600 l 1
 254 597 l 1
 257 590 l 1
 254 583 l 1
 247 580 l 1
 174 580 l 1
 174 97 l 1
 486 538 l 1
 486 580 l 1
 409 581 l 1
 404 586 l 1
 406 597 l 1
 413 600 l 1
 606 600 l 1
 613 597 l 1
 615 586 l 1
 610 581 l 1
 533 580 l 1
 533 20 l 1
 610 19 l 1
 615 14 l 1
 613 3 l 1
 606 0 l 1
 413 0 l 1
 404 6 l 1
 404 14 l 1
 413 20 l 1
 486 20 l 1
 486 503 l 1
 174 62 l 1
 174 20 l 1
 251 19 l 1
 256 14 l 1
 254 3 l 1
 247 0 l 1
 54 0 l 1
 47 3 l 1
 44 10 l 1
 50 19 l 1
 127 20 l 1
 127 580 l 1
147 580 m 1
 147 20 l 1
 154 20 l 1
 154 580 l 1
 147 580 l 1
506 580 m 1
 506 20 l 1
 513 20 l 1
 513 580 l 1
 506 580 l 1
230 783 m 1
 230 756 l 1
 227 749 l 1
 220 746 l 1
 212 749 l 1
 210 756 l 1
 210 773 l 1
 202 773 l 1
 202 758 l 1
 227 708 l 1
 277 683 l 1
 383 683 l 1
 433 708 l 1
 462 763 l 1
 473 765 l 1
 478 755 l 1
 448 693 l 1
 390 664 l 1
 275 663 l 1
 212 693 l 1
 183 751 l 1
 182 783 l 1
 185 790 l 1
 192 793 l 1
 220 793 l 1
 227 790 l 1
 230 783 l 1
EndSplineSet
EndChar

StartChar: glyph136
Encoding: 314 1050 136
Width: 661
VWidth: 0
Flags: W
HStem: 0 20<54 127 147 154 174 247 527 547> 304 20<174 353> 580 20<54 127 147 154 174 247 527 547>
VStem: 127 20<20 580> 154 20<20 304 324 580> 569 19<539 558>
LayerCount: 2
Back
Fore
SplineSet
127 580 m 1
 54 580 l 1
 47 583 l 1
 44 590 l 1
 47 597 l 1
 54 600 l 1
 247 600 l 1
 254 597 l 1
 257 590 l 1
 254 583 l 1
 247 580 l 1
 174 580 l 1
 174 324 l 1
 355 324 l 1
 405 349 l 1
 431 400 l 1
 459 512 l 1
 489 569 l 1
 520 599 l 1
 551 600 l 1
 558 597 l 1
 586 569 l 1
 589 562 l 1
 588 531 l 1
 558 500 l 1
 551 497 l 1
 544 500 l 1
 516 528 l 1
 513 535 l 1
 516 542 l 1
 544 569 l 1
 551 572 l 1
 556 571 l 1
 547 580 l 1
 527 580 l 1
 504 556 l 1
 478 504 l 1
 449 392 l 1
 422 337 l 1
 380 314 l 1
 422 291 l 1
 450 233 l 1
 478 96 l 1
 504 44 l 1
 527 20 l 1
 547 20 l 1
 570 44 l 1
 600 100 l 1
 607 103 l 1
 614 99 l 1
 615 88 l 1
 588 33 l 1
 558 3 l 1
 551 0 l 1
 492 1 l 1
 459 33 l 1
 431 91 l 1
 403 228 l 1
 377 280 l 1
 353 304 l 1
 174 304 l 1
 174 20 l 1
 247 20 l 1
 254 17 l 1
 256 6 l 1
 247 0 l 1
 54 0 l 1
 47 3 l 1
 44 10 l 1
 50 19 l 1
 127 20 l 1
 127 580 l 1
147 580 m 1
 147 20 l 1
 154 20 l 1
 154 580 l 1
 147 580 l 1
487 33 m 1
 458 91 l 1
 431 228 l 1
 405 279 l 1
 398 282 l 1
 423 233 l 1
 450 96 l 1
 476 44 l 1
 487 33 l 1
559 567 m 1
 561 562 l 1
 558 555 l 1
 537 535 l 1
 551 521 l 1
 569 539 l 1
 569 558 l 1
 559 567 l 1
EndSplineSet
EndChar

StartChar: glyph137
Encoding: 315 1051 137
Width: 690
VWidth: 0
Flags: W
HStem: 0 20<87 106 442 515 535 542 562 635> 580 20<138 211 231 515 535 542 562 635>
VStem: 45 20<42 61> 211 20<370 580> 515 20<20 580> 542 20<20 580>
LayerCount: 2
Back
Fore
SplineSet
78 29 m 1
 87 20 l 1
 106 20 l 1
 130 44 l 1
 156 96 l 1
 183 205 l 1
 211 425 l 1
 211 580 l 1
 134 581 l 1
 128 590 l 1
 131 597 l 1
 138 600 l 1
 635 600 l 1
 642 597 l 1
 644 586 l 1
 639 581 l 1
 562 580 l 1
 562 20 l 1
 639 19 l 1
 644 14 l 1
 642 3 l 1
 635 0 l 1
 442 0 l 1
 433 6 l 1
 433 14 l 1
 442 20 l 1
 515 20 l 1
 515 580 l 1
 231 580 l 1
 231 423 l 1
 203 202 l 1
 175 90 l 1
 147 33 l 1
 117 3 l 1
 110 0 l 1
 83 0 l 1
 76 3 l 1
 48 31 l 1
 45 38 l 1
 46 69 l 1
 79 102 l 1
 90 100 l 1
 117 72 l 1
 120 65 l 1
 117 58 l 1
 90 31 l 1
 83 28 l 1
 78 29 l 1
74 33 m 1
 73 38 l 1
 76 45 l 1
 96 65 l 1
 83 79 l 1
 65 61 l 1
 65 42 l 1
 74 33 l 1
535 580 m 1
 535 20 l 1
 542 20 l 1
 542 580 l 1
 535 580 l 1
EndSplineSet
EndChar

StartChar: glyph138
Encoding: 316 1052 138
Width: 690
VWidth: 0
Flags: W
HStem: 0 20<54 127 147 220 440 513 533 541 561 634> 580 20<54 127 151 157 533 541 561 634>
VStem: 127 20<20 528> 513 20<20 528> 541 20<20 580>
LayerCount: 2
Back
Fore
SplineSet
127 580 m 1
 54 580 l 1
 47 583 l 1
 44 590 l 1
 47 597 l 1
 54 600 l 1
 165 600 l 1
 174 594 l 1
 339 96 l 1
 339 88 l 1
 333 83 l 1
 326 84 l 1
 321 90 l 1
 157 580 l 1
 151 580 l 1
 330 42 l 1
 514 594 l 1
 523 600 l 1
 634 600 l 1
 641 597 l 1
 644 590 l 1
 638 581 l 1
 561 580 l 1
 561 20 l 1
 638 19 l 1
 644 10 l 1
 641 3 l 1
 634 0 l 1
 440 0 l 1
 431 6 l 1
 431 14 l 1
 440 20 l 1
 513 20 l 1
 513 528 l 1
 339 7 l 1
 337 2 l 1
 329 0 l 1
 321 7 l 1
 147 528 l 1
 147 20 l 1
 220 20 l 1
 227 17 l 1
 230 10 l 1
 227 3 l 1
 220 0 l 1
 54 0 l 1
 47 3 l 1
 44 10 l 1
 50 19 l 1
 127 20 l 1
 127 580 l 1
533 20 m 1
 541 20 l 1
 541 580 l 1
 533 580 l 1
 533 20 l 1
EndSplineSet
EndChar

StartChar: glyph139
Encoding: 317 1053 139
Width: 661
VWidth: 0
Flags: W
HStem: 0 20<54 127 147 154 174 247 413 486 506 513 533 606> 304 20<174 486> 580 20<54 127 147 154 174 247 413 486 506 513 533 606>
VStem: 127 20<20 580> 154 20<20 304 324 580> 486 20<20 304 324 580> 513 20<20 580>
LayerCount: 2
Back
Fore
SplineSet
127 580 m 1
 54 580 l 1
 47 583 l 1
 44 590 l 1
 47 597 l 1
 54 600 l 1
 247 600 l 1
 254 597 l 1
 257 590 l 1
 254 583 l 1
 247 580 l 1
 174 580 l 1
 174 324 l 1
 486 324 l 1
 486 580 l 1
 413 580 l 1
 406 583 l 1
 404 594 l 1
 413 600 l 1
 606 600 l 1
 613 597 l 1
 615 586 l 1
 610 581 l 1
 533 580 l 1
 533 20 l 1
 610 19 l 1
 615 14 l 1
 613 3 l 1
 606 0 l 1
 413 0 l 1
 404 6 l 1
 404 14 l 1
 413 20 l 1
 486 20 l 1
 486 304 l 1
 174 304 l 1
 174 20 l 1
 247 20 l 1
 254 17 l 1
 256 6 l 1
 247 0 l 1
 54 0 l 1
 47 3 l 1
 44 10 l 1
 50 19 l 1
 127 20 l 1
 127 580 l 1
147 580 m 1
 147 20 l 1
 154 20 l 1
 154 580 l 1
 147 580 l 1
506 580 m 1
 506 20 l 1
 513 20 l 1
 513 580 l 1
 506 580 l 1
EndSplineSet
EndChar

StartChar: glyph140
Encoding: 318 1054 140
Width: 609
VWidth: 0
Flags: W
HStem: 1 19<279 329> 580 20<279 329>
VStem: 73 20<232 368> 101 20<152 168.643 236 364 430.429 448> 487 20<152 169.571 236 364 431.357 448> 515 20<232 368>
LayerCount: 2
Back
Fore
SplineSet
276 600 m 1
 335 599 l 1
 422 569 l 1
 477 514 l 1
 506 456 l 1
 535 341 l 1
 535 256 l 1
 507 146 l 1
 479 88 l 1
 418 28 l 1
 332 0 l 1
 273 1 l 1
 186 31 l 1
 131 86 l 1
 102 144 l 1
 73 259 l 1
 73 344 l 1
 101 454 l 1
 129 512 l 1
 190 572 l 1
 276 600 l 1
157 88 m 1
 129 146 l 1
 101 256 l 1
 101 341 l 1
 129 454 l 1
 157 512 l 1
 147 501 l 1
 120 448 l 1
 93 340 l 1
 93 260 l 1
 120 152 l 1
 147 99 l 1
 157 88 l 1
451 512 m 1
 479 454 l 1
 507 344 l 1
 507 259 l 1
 479 146 l 1
 451 88 l 1
 461 99 l 1
 488 152 l 1
 515 260 l 1
 515 340 l 1
 488 448 l 1
 461 501 l 1
 451 512 l 1
329 580 m 1
 279 580 l 1
 227 554 l 1
 174 501 l 1
 148 448 l 1
 121 340 l 1
 121 260 l 1
 148 152 l 1
 174 99 l 1
 227 46 l 1
 279 20 l 1
 329 20 l 1
 381 46 l 1
 434 99 l 1
 460 152 l 1
 487 260 l 1
 487 340 l 1
 460 448 l 1
 434 501 l 1
 381 554 l 1
 329 580 l 1
EndSplineSet
EndChar

StartChar: glyph141
Encoding: 319 1055 141
Width: 661
VWidth: 0
Flags: W
HStem: 0 20<54 127 147 154 174 247 413 486 506 513 533 606> 580 20<54 127 147 154 174 486 506 513 533 606>
VStem: 127 20<20 580> 154 20<20 580> 486 20<20 580> 513 20<20 580>
LayerCount: 2
Back
Fore
SplineSet
127 580 m 1
 54 580 l 1
 47 583 l 1
 44 590 l 1
 47 597 l 1
 54 600 l 1
 606 600 l 1
 613 597 l 1
 615 586 l 1
 610 581 l 1
 533 580 l 1
 533 20 l 1
 610 19 l 1
 615 14 l 1
 613 3 l 1
 606 0 l 1
 413 0 l 1
 404 6 l 1
 404 14 l 1
 413 20 l 1
 486 20 l 1
 486 580 l 1
 174 580 l 1
 174 20 l 1
 247 20 l 1
 254 17 l 1
 256 6 l 1
 247 0 l 1
 54 0 l 1
 47 3 l 1
 44 10 l 1
 50 19 l 1
 127 20 l 1
 127 580 l 1
147 580 m 1
 147 20 l 1
 154 20 l 1
 154 580 l 1
 147 580 l 1
506 20 m 1
 513 20 l 1
 513 580 l 1
 506 580 l 1
 506 20 l 1
EndSplineSet
EndChar

StartChar: glyph142
Encoding: 320 1056 142
Width: 609
VWidth: 0
Flags: W
HStem: 0 20<55 128 148 156 176 253> 276 20<176 384> 580 20<55 128 148 156 176 384>
VStem: 128 20<20 580> 156 20<20 276 296 580> 487 20<399 477> 515 19<399 477>
LayerCount: 2
Back
Fore
SplineSet
128 580 m 1
 55 580 l 1
 48 583 l 1
 45 590 l 1
 48 597 l 1
 55 600 l 1
 390 599 l 1
 477 569 l 1
 506 539 l 1
 535 480 l 1
 534 392 l 1
 506 337 l 1
 473 304 l 1
 388 276 l 1
 176 276 l 1
 176 20 l 1
 253 19 l 1
 259 10 l 1
 253 1 l 1
 55 0 l 1
 46 6 l 1
 48 17 l 1
 55 20 l 1
 128 20 l 1
 128 580 l 1
148 580 m 1
 148 20 l 1
 156 20 l 1
 156 580 l 1
 148 580 l 1
176 296 m 1
 384 296 l 1
 436 322 l 1
 461 347 l 1
 487 399 l 1
 487 477 l 1
 461 529 l 1
 436 554 l 1
 384 580 l 1
 176 580 l 1
 176 296 l 1
479 539 m 1
 507 480 l 1
 507 397 l 1
 479 337 l 1
 489 347 l 1
 515 399 l 1
 515 477 l 1
 489 529 l 1
 479 539 l 1
EndSplineSet
EndChar

StartChar: glyph143
Encoding: 321 1057 143
Width: 580
VWidth: 0
Flags: W
HStem: 1 19<279 330> 580 19<279 330>
VStem: 73 20<233 367> 101 20<233 367> 487 20<486 528>
LayerCount: 2
Back
Fore
SplineSet
279 580 m 1
 227 554 l 1
 174 501 l 1
 148 448 l 1
 121 367 l 1
 121 233 l 1
 148 152 l 1
 174 99 l 1
 227 46 l 1
 279 20 l 1
 330 20 l 1
 409 46 l 1
 461 99 l 1
 491 156 l 1
 498 158 l 1
 505 155 l 1
 506 144 l 1
 479 88 l 1
 422 31 l 1
 332 0 l 1
 273 1 l 1
 186 31 l 1
 129 88 l 1
 101 145 l 1
 73 231 l 1
 73 369 l 1
 101 455 l 1
 131 514 l 1
 190 572 l 1
 276 600 l 1
 335 599 l 1
 418 572 l 1
 465 526 l 1
 488 593 l 1
 493 599 l 1
 501 599 l 1
 507 590 l 1
 507 420 l 1
 497 414 l 1
 490 418 l 1
 461 502 l 1
 409 554 l 1
 330 580 l 1
 279 580 l 1
157 88 m 1
 129 145 l 1
 101 228 l 1
 101 369 l 1
 129 455 l 1
 157 512 l 1
 147 501 l 1
 120 448 l 1
 93 367 l 1
 93 233 l 1
 120 152 l 1
 147 99 l 1
 157 88 l 1
480 507 m 1
 487 486 l 1
 487 528 l 1
 480 507 l 1
EndSplineSet
EndChar

StartChar: glyph144
Encoding: 322 1058 144
Width: 525
VWidth: 0
Flags: W
HStem: 0 20<165 238 258 266 286 362> 580 19<65 70 91 238 258 266 286 433 453 459>
VStem: 45 20<424 465.269 545 580> 65 26<545 580> 238 20<20 580> 266 20<20 580> 433 20<545 580> 459 19<424 465.269 545 580>
LayerCount: 2
Back
Fore
SplineSet
91 580 m 1xdf
 65 423 l 1xdf
 61 416 l 1
 54 414 l 1
 47 418 l 1
 45 424 l 1
 45 590 l 1xef
 51 599 l 1
 469 600 l 1
 478 594 l 1
 479 424 l 1
 476 418 l 1
 470 414 l 1
 463 416 l 1
 459 423 l 1
 433 580 l 1
 286 580 l 1
 286 20 l 1
 362 19 l 1
 368 10 l 1
 362 1 l 1
 165 0 l 1
 156 6 l 1
 156 14 l 1
 165 20 l 1
 238 20 l 1
 238 580 l 1
 91 580 l 1xdf
65 545 m 1xef
 70 580 l 1
 65 580 l 1
 65 545 l 1xef
258 20 m 1
 266 20 l 1
 266 580 l 1
 258 580 l 1
 258 20 l 1
453 580 m 1
 459 545 l 1
 459 580 l 1
 453 580 l 1
EndSplineSet
EndChar

StartChar: glyph145
Encoding: 323 1059 145
Width: 580
VWidth: 0
Flags: W
HStem: 1 19<142 163> 580 20<27 76 98 104 126 193 386 482 503 552>
VStem: 100 20<42 61>
LayerCount: 2
Back
Fore
SplineSet
76 580 m 1
 24 581 l 1
 18 586 l 1
 18 594 l 1
 27 600 l 1
 193 600 l 1
 202 594 l 1
 200 583 l 1
 193 580 l 1
 126 580 l 1
 304 173 l 1
 482 580 l 1
 386 580 l 1
 377 586 l 1
 377 594 l 1
 386 600 l 1
 552 600 l 1
 559 597 l 1
 562 590 l 1
 559 583 l 1
 552 580 l 1
 503 580 l 1
 312 143 l 1
 257 60 l 1
 228 31 l 1
 166 0 l 1
 134 1 l 1
 103 31 l 1
 100 38 l 1
 100 65 l 1
 103 72 l 1
 134 102 l 1
 145 100 l 1
 173 72 l 1
 176 65 l 1
 173 58 l 1
 145 31 l 1
 138 28 l 1
 133 29 l 1
 142 20 l 1
 163 20 l 1
 215 46 l 1
 241 72 l 1
 292 149 l 1
 104 580 l 1
 98 580 l 1
 285 152 l 1
 285 144 l 1
 280 139 l 1
 272 139 l 1
 267 144 l 1
 76 580 l 1
129 33 m 1
 128 38 l 1
 131 45 l 1
 151 65 l 1
 138 79 l 1
 120 61 l 1
 120 42 l 1
 129 33 l 1
EndSplineSet
EndChar

StartChar: glyph146
Encoding: 324 1060 146
Width: 690
VWidth: 0
Flags: W
HStem: 0 20<247 320 340 348 368 444> 83 20<276 320 340 348 368 411> 497 20<276 320 340 348 368 411> 580 19<243 320 340 348 368 444>
VStem: 72 19<260 340> 99 20<260 340> 320 20<20 83 103 497 517 580> 348 20<20 83 103 497 517 580> 569 20<260 340> 596 20<260 340>
LayerCount: 2
Back
Fore
SplineSet
274 517 m 1
 320 517 l 1
 320 580 l 1
 243 581 l 1
 237 590 l 1
 243 599 l 1
 444 599 l 1
 450 590 l 1
 444 581 l 1
 368 580 l 1
 368 517 l 1
 415 517 l 1
 530 487 l 1
 588 427 l 1
 616 345 l 1
 616 255 l 1
 586 169 l 1
 526 111 l 1
 415 83 l 1
 368 83 l 1
 368 20 l 1
 444 19 l 1
 450 10 l 1
 444 1 l 1
 247 0 l 1
 240 3 l 1
 237 10 l 1
 243 19 l 1
 320 20 l 1
 320 83 l 1
 272 83 l 1
 157 113 l 1
 100 173 l 1
 72 255 l 1
 72 345 l 1
 102 431 l 1
 162 489 l 1
 274 517 l 1
129 430 m 1
 118 419 l 1
 91 340 l 1
 91 260 l 1
 118 181 l 1
 129 170 l 1
 99 259 l 1
 100 345 l 1
 129 430 l 1
340 580 m 1
 340 517 l 1
 348 517 l 1
 348 580 l 1
 340 580 l 1
340 497 m 1
 340 103 l 1
 348 103 l 1
 348 497 l 1
 340 497 l 1
320 497 m 1
 276 497 l 1
 197 471 l 1
 145 419 l 1
 119 340 l 1
 119 260 l 1
 145 181 l 1
 197 129 l 1
 276 103 l 1
 320 103 l 1
 320 497 l 1
340 20 m 1
 348 20 l 1
 348 83 l 1
 340 83 l 1
 340 20 l 1
368 497 m 1
 368 103 l 1
 411 103 l 1
 490 129 l 1
 542 181 l 1
 569 260 l 1
 569 340 l 1
 542 419 l 1
 490 471 l 1
 411 497 l 1
 368 497 l 1
559 430 m 1
 588 345 l 1
 589 259 l 1
 559 170 l 1
 570 181 l 1
 596 260 l 1
 596 340 l 1
 570 419 l 1
 559 430 l 1
EndSplineSet
EndChar

StartChar: glyph147
Encoding: 325 1061 147
Width: 553
VWidth: 0
Flags: W
HStem: 0 20<27 77 101 193 359 424 447 451 475 525> 580 20<27 77 101 105 128 193 359 451 475 525>
LayerCount: 2
Back
Fore
SplineSet
77 20 m 1
 257 289 l 1
 77 580 l 1
 24 581 l 1
 18 586 l 1
 20 597 l 1
 27 600 l 1
 193 600 l 1
 200 597 l 1
 202 586 l 1
 197 581 l 1
 128 580 l 1
 283 329 l 1
 451 580 l 1
 359 580 l 1
 350 586 l 1
 352 597 l 1
 359 600 l 1
 525 600 l 1
 532 597 l 1
 535 590 l 1
 528 581 l 1
 475 580 l 1
 295 311 l 1
 475 20 l 1
 528 19 l 1
 535 10 l 1
 532 3 l 1
 525 0 l 1
 359 0 l 1
 352 3 l 1
 350 14 l 1
 355 19 l 1
 424 20 l 1
 269 271 l 1
 101 20 l 1
 193 20 l 1
 202 14 l 1
 200 3 l 1
 193 0 l 1
 27 0 l 1
 18 6 l 1
 18 14 l 1
 24 19 l 1
 77 20 l 1
269 308 m 1
 271 311 l 1
 105 580 l 1
 101 580 l 1
 269 308 l 1
283 292 m 1
 281 289 l 1
 447 20 l 1
 451 20 l 1
 283 292 l 1
EndSplineSet
EndChar

StartChar: glyph148
Encoding: 326 1062 148
Width: 661
VWidth: 0
Flags: W
HStem: -193 21G<596 611> 0 20<54 127 147 154 174 486 506 513 533 570 590 596> 580 20<54 127 147 154 174 247 413 486 506 513 533 606>
VStem: 127 20<20 580> 154 20<20 580> 486 20<20 580> 513 20<20 580> 570 20<-43 0> 596 19<-183 -135.192 -43 0>
LayerCount: 2
Back
Fore
SplineSet
127 580 m 1
 54 580 l 1
 47 583 l 1
 44 590 l 1
 47 597 l 1
 54 600 l 1
 247 600 l 1
 254 597 l 1
 257 590 l 1
 254 583 l 1
 247 580 l 1
 174 580 l 1
 174 20 l 1
 486 20 l 1
 486 580 l 1
 413 580 l 1
 406 583 l 1
 404 594 l 1
 413 600 l 1
 606 600 l 1
 615 594 l 1
 613 583 l 1
 606 580 l 1
 533 580 l 1
 533 20 l 1
 606 20 l 1
 615 14 l 1
 616 -183 l 1
 611 -192 l 1
 602 -193 l 1
 596 -185 l 1
 570 0 l 1
 54 0 l 1
 45 6 l 1
 47 17 l 1
 54 20 l 1
 127 20 l 1
 127 580 l 1
147 580 m 1
 147 20 l 1
 154 20 l 1
 154 580 l 1
 147 580 l 1
506 580 m 1
 506 20 l 1
 513 20 l 1
 513 580 l 1
 506 580 l 1
596 0 m 1
 590 0 l 1
 596 -43 l 1
 596 0 l 1
EndSplineSet
EndChar

StartChar: glyph149
Encoding: 327 1063 149
Width: 635
VWidth: 0
Flags: W
HStem: 0 20<385 458 478 486 506 579> 193 20<250 328> 580 20<54 127 147 154 174 247 385 458 478 486 506 579>
VStem: 127 20<289 580> 154 20<289 580> 458 20<20 262 290 580> 486 20<20 580>
LayerCount: 2
Back
Fore
SplineSet
127 580 m 1
 54 580 l 1
 47 583 l 1
 44 590 l 1
 47 597 l 1
 54 600 l 1
 247 600 l 1
 256 594 l 1
 254 583 l 1
 247 580 l 1
 174 580 l 1
 174 289 l 1
 199 238 l 1
 250 213 l 1
 328 213 l 1
 407 240 l 1
 458 290 l 1
 458 580 l 1
 381 581 l 1
 375 590 l 1
 378 597 l 1
 385 600 l 1
 579 600 l 1
 586 597 l 1
 589 590 l 1
 582 581 l 1
 506 580 l 1
 506 20 l 1
 582 19 l 1
 589 10 l 1
 586 3 l 1
 579 0 l 1
 385 0 l 1
 376 6 l 1
 376 14 l 1
 385 20 l 1
 458 20 l 1
 458 262 l 1
 416 221 l 1
 330 193 l 1
 246 193 l 1
 158 223 l 1
 127 286 l 1
 127 580 l 1
147 580 m 1
 147 289 l 1
 171 239 l 1
 178 237 l 1
 154 286 l 1
 154 580 l 1
 147 580 l 1
478 286 m 1
 478 20 l 1
 486 20 l 1
 486 580 l 1
 478 580 l 1
 478 286 l 1
EndSplineSet
EndChar

StartChar: glyph150
Encoding: 328 1064 150
Width: 912
VWidth: 0
Flags: W
HStem: 0 20<55 128 148 156 176 432 452 460 480 736 756 763 783 856> 580 20<55 128 148 156 176 249 359 432 452 460 480 552 663 736 756 763 783 856>
VStem: 128 20<20 580> 156 20<20 580> 432 20<20 580> 460 20<20 580> 736 20<20 580> 763 20<20 580>
LayerCount: 2
Back
Fore
SplineSet
128 580 m 1
 55 580 l 1
 48 583 l 1
 45 590 l 1
 48 597 l 1
 55 600 l 1
 249 600 l 1
 256 597 l 1
 259 590 l 1
 256 583 l 1
 249 580 l 1
 176 580 l 1
 176 20 l 1
 432 20 l 1
 432 580 l 1
 359 580 l 1
 350 586 l 1
 350 594 l 1
 359 600 l 1
 552 600 l 1
 560 597 l 1
 562 590 l 1
 556 581 l 1
 480 580 l 1
 480 20 l 1
 736 20 l 1
 736 580 l 1
 663 580 l 1
 656 583 l 1
 654 594 l 1
 663 600 l 1
 856 600 l 1
 863 597 l 1
 866 590 l 1
 860 581 l 1
 783 580 l 1
 783 20 l 1
 860 19 l 1
 866 10 l 1
 863 3 l 1
 856 0 l 1
 55 0 l 1
 48 3 l 1
 45 10 l 1
 52 19 l 1
 128 20 l 1
 128 580 l 1
148 580 m 1
 148 20 l 1
 156 20 l 1
 156 580 l 1
 148 580 l 1
452 580 m 1
 452 20 l 1
 460 20 l 1
 460 580 l 1
 452 580 l 1
756 580 m 1
 756 20 l 1
 763 20 l 1
 763 580 l 1
 756 580 l 1
EndSplineSet
EndChar

StartChar: glyph151
Encoding: 329 1065 151
Width: 912
VWidth: 0
Flags: W
HStem: -193 21G<846 863> 0 20<55 128 148 156 176 432 452 460 480 736 756 763 783 820 840 846> 580 20<55 128 148 156 176 249 359 432 452 460 480 552 663 736 756 763 783 856>
VStem: 128 20<20 580> 156 20<20 580> 432 20<20 580> 460 20<20 580> 736 20<20 580> 763 20<20 580> 820 20<-43 0> 846 20<-183 -135.192 -43 0>
LayerCount: 2
Back
Fore
SplineSet
128 580 m 1
 55 580 l 1
 48 583 l 1
 45 590 l 1
 48 597 l 1
 55 600 l 1
 249 600 l 1
 256 597 l 1
 259 590 l 1
 256 583 l 1
 249 580 l 1
 176 580 l 1
 176 20 l 1
 432 20 l 1
 432 580 l 1
 359 580 l 1
 350 586 l 1
 350 594 l 1
 359 600 l 1
 552 600 l 1
 560 597 l 1
 562 590 l 1
 556 581 l 1
 480 580 l 1
 480 20 l 1
 736 20 l 1
 736 580 l 1
 663 580 l 1
 656 583 l 1
 654 594 l 1
 663 600 l 1
 856 600 l 1
 863 597 l 1
 866 590 l 1
 860 581 l 1
 783 580 l 1
 783 20 l 1
 856 20 l 1
 866 14 l 1
 866 -183 l 1
 863 -190 l 1
 854 -193 l 1
 846 -185 l 1
 820 0 l 1
 55 0 l 1
 48 3 l 1
 45 10 l 1
 52 19 l 1
 128 20 l 1
 128 580 l 1
148 580 m 1
 148 20 l 1
 156 20 l 1
 156 580 l 1
 148 580 l 1
452 580 m 1
 452 20 l 1
 460 20 l 1
 460 580 l 1
 452 580 l 1
756 580 m 1
 756 20 l 1
 763 20 l 1
 763 580 l 1
 756 580 l 1
846 0 m 1
 840 0 l 1
 846 -43 l 1
 846 0 l 1
EndSplineSet
EndChar

StartChar: glyph152
Encoding: 330 1066 152
Width: 718
VWidth: 0
Flags: W
HStem: 0 20<192 265 285 292 312 493> 304 20<312 493> 580 19<64 70 90 265 285 292 312 385>
VStem: 44 20<424 465.269 545 580> 64 26<545 580> 265 20<20 580> 292 20<20 304 324 580> 596 20<123 201> 624 20<123 201>
LayerCount: 2
Back
Fore
SplineSet
90 580 m 1xef80
 64 423 l 1xef80
 60 416 l 1
 53 414 l 1
 46 418 l 1
 44 424 l 1
 44 590 l 1xf780
 50 599 l 1
 385 600 l 1
 392 597 l 1
 394 586 l 1
 389 581 l 1
 312 580 l 1
 312 324 l 1
 496 324 l 1
 582 296 l 1
 613 266 l 1
 644 203 l 1
 644 120 l 1
 615 61 l 1
 586 31 l 1
 496 0 l 1
 192 0 l 1
 185 3 l 1
 183 14 l 1
 188 19 l 1
 265 20 l 1
 265 580 l 1
 90 580 l 1xef80
64 545 m 1xf780
 70 580 l 1
 64 580 l 1
 64 545 l 1xf780
285 20 m 1
 292 20 l 1
 292 580 l 1
 285 580 l 1
 285 20 l 1
312 20 m 1
 493 20 l 1
 545 46 l 1
 570 71 l 1
 596 123 l 1
 596 201 l 1
 570 253 l 1
 545 278 l 1
 493 304 l 1
 312 304 l 1
 312 20 l 1
587 263 m 1
 616 203 l 1
 616 120 l 1
 587 61 l 1
 598 71 l 1
 624 123 l 1
 624 201 l 1
 598 253 l 1
 587 263 l 1
EndSplineSet
EndChar

StartChar: glyph153
Encoding: 331 1067 153
Width: 827
VWidth: 0
Flags: W
HStem: 0 20<54 127 147 154 174 355 579 652 672 679 699 776> 304 20<174 355> 580 20<54 127 147 154 174 247 579 652 672 679 699 772>
VStem: 127 20<20 580> 154 20<20 304 324 580> 458 20<123 201> 486 20<123 201> 652 20<20 580> 679 20<20 580>
LayerCount: 2
Back
Fore
SplineSet
652 580 m 1
 579 580 l 1
 572 583 l 1
 569 590 l 1
 572 597 l 1
 579 600 l 1
 772 600 l 1
 781 594 l 1
 779 583 l 1
 772 580 l 1
 699 580 l 1
 699 20 l 1
 776 19 l 1
 782 10 l 1
 776 1 l 1
 579 0 l 1
 569 6 l 1
 569 14 l 1
 579 20 l 1
 652 20 l 1
 652 580 l 1
672 580 m 1
 672 20 l 1
 679 20 l 1
 679 580 l 1
 672 580 l 1
127 580 m 1
 54 580 l 1
 47 583 l 1
 44 590 l 1
 47 597 l 1
 54 600 l 1
 247 600 l 1
 254 597 l 1
 257 590 l 1
 254 583 l 1
 247 580 l 1
 174 580 l 1
 174 324 l 1
 361 323 l 1
 444 296 l 1
 477 263 l 1
 506 203 l 1
 506 120 l 1
 477 61 l 1
 444 28 l 1
 358 0 l 1
 54 0 l 1
 45 6 l 1
 47 17 l 1
 54 20 l 1
 127 20 l 1
 127 580 l 1
147 580 m 1
 147 20 l 1
 154 20 l 1
 154 580 l 1
 147 580 l 1
174 20 m 1
 355 20 l 1
 407 46 l 1
 432 71 l 1
 458 123 l 1
 458 201 l 1
 432 253 l 1
 407 278 l 1
 355 304 l 1
 174 304 l 1
 174 20 l 1
449 263 m 1
 478 203 l 1
 478 120 l 1
 449 61 l 1
 460 71 l 1
 486 123 l 1
 486 201 l 1
 460 253 l 1
 449 263 l 1
EndSplineSet
EndChar

StartChar: glyph154
Encoding: 332 1068 154
Width: 581
VWidth: 0
Flags: W
HStem: 0 20<55 128 148 156 176 356> 304 20<176 356> 580 20<55 128 148 156 176 248>
VStem: 128 20<20 580> 156 20<20 304 324 580> 459 20<123 201> 487 20<123 201>
LayerCount: 2
Back
Fore
SplineSet
128 580 m 1
 55 580 l 1
 48 583 l 1
 45 590 l 1
 48 597 l 1
 55 600 l 1
 248 600 l 1
 255 597 l 1
 258 590 l 1
 255 583 l 1
 248 580 l 1
 176 580 l 1
 176 324 l 1
 362 323 l 1
 445 296 l 1
 478 263 l 1
 507 203 l 1
 507 120 l 1
 478 61 l 1
 445 28 l 1
 360 0 l 1
 55 0 l 1
 46 6 l 1
 48 17 l 1
 55 20 l 1
 128 20 l 1
 128 580 l 1
148 580 m 1
 148 20 l 1
 156 20 l 1
 156 580 l 1
 148 580 l 1
176 20 m 1
 356 20 l 1
 408 46 l 1
 433 71 l 1
 459 123 l 1
 459 201 l 1
 433 253 l 1
 408 278 l 1
 356 304 l 1
 176 304 l 1
 176 20 l 1
451 263 m 1
 479 203 l 1
 479 120 l 1
 451 61 l 1
 461 71 l 1
 487 123 l 1
 487 201 l 1
 461 253 l 1
 451 263 l 1
EndSplineSet
EndChar

StartChar: glyph155
Encoding: 333 1069 155
Width: 580
VWidth: 0
Flags: W
HStem: 0 20<221 300> 304 20<220 458> 580 19<249 300>
VStem: 72 20<123 144 486 528> 458 20<233 304 324 367> 486 20<233 367>
LayerCount: 2
Back
Fore
SplineSet
91 593 m 1
 114 526 l 1
 161 572 l 1
 244 599 l 1
 303 600 l 1
 389 572 l 1
 450 512 l 1
 478 455 l 1
 505 372 l 1
 506 231 l 1
 478 145 l 1
 450 88 l 1
 389 28 l 1
 303 0 l 1
 220 0 l 1
 134 28 l 1
 100 61 l 1
 73 116 l 1
 72 148 l 1
 75 155 l 1
 102 183 l 1
 109 186 l 1
 116 183 l 1
 144 155 l 1
 146 144 l 1
 116 113 l 1
 105 111 l 1
 100 117 l 1
 100 124 l 1
 123 148 l 1
 109 162 l 1
 92 144 l 1
 92 123 l 1
 118 71 l 1
 142 46 l 1
 221 20 l 1
 300 20 l 1
 352 46 l 1
 405 99 l 1
 431 152 l 1
 458 233 l 1
 458 304 l 1
 220 304 l 1
 211 310 l 1
 211 318 l 1
 220 324 l 1
 458 324 l 1
 458 367 l 1
 431 448 l 1
 405 501 l 1
 352 554 l 1
 300 580 l 1
 249 580 l 1
 170 554 l 1
 118 502 l 1
 91 421 l 1
 86 415 l 1
 78 415 l 1
 72 424 l 1
 72 590 l 1
 78 599 l 1
 86 599 l 1
 91 593 l 1
422 512 m 1
 450 455 l 1
 478 372 l 1
 478 231 l 1
 450 145 l 1
 422 88 l 1
 432 99 l 1
 459 152 l 1
 486 233 l 1
 486 367 l 1
 459 448 l 1
 432 501 l 1
 422 512 l 1
99 507 m 1
 92 528 l 1
 92 486 l 1
 99 507 l 1
EndSplineSet
EndChar

StartChar: glyph156
Encoding: 334 1070 156
Width: 855
VWidth: 0
Flags: W
HStem: 0 20<54 127 147 154 174 247 526 576> 304 20<174 320> 580 20<54 127 147 154 174 247 526 576>
VStem: 127 20<20 580> 154 20<20 304 324 580> 320 20<232 304 324 368> 348 20<232 368> 734 20<152 169.571 236 364 431.357 448> 762 20<232 368>
LayerCount: 2
Back
Fore
SplineSet
127 580 m 1
 54 580 l 1
 47 583 l 1
 44 590 l 1
 47 597 l 1
 54 600 l 1
 247 600 l 1
 254 597 l 1
 257 590 l 1
 254 583 l 1
 247 580 l 1
 174 580 l 1
 174 324 l 1
 320 324 l 1
 320 344 l 1
 349 456 l 1
 378 514 l 1
 437 572 l 1
 520 599 l 1
 579 600 l 1
 669 569 l 1
 724 514 l 1
 753 456 l 1
 782 341 l 1
 782 256 l 1
 754 146 l 1
 724 86 l 1
 665 28 l 1
 582 1 l 1
 523 0 l 1
 437 28 l 1
 378 86 l 1
 349 144 l 1
 320 256 l 1
 320 304 l 1
 174 304 l 1
 174 20 l 1
 247 20 l 1
 257 14 l 1
 257 6 l 1
 247 0 l 1
 54 0 l 1
 47 3 l 1
 44 10 l 1
 50 19 l 1
 127 20 l 1
 127 580 l 1
147 580 m 1
 147 20 l 1
 154 20 l 1
 154 580 l 1
 147 580 l 1
404 512 m 1
 394 501 l 1
 367 448 l 1
 340 340 l 1
 340 314 l 1
 340 260 l 1
 367 152 l 1
 394 99 l 1
 404 88 l 1
 376 146 l 1
 348 256 l 1
 348 341 l 1
 376 454 l 1
 404 512 l 1
526 20 m 1
 576 20 l 1
 628 46 l 1
 681 99 l 1
 707 152 l 1
 734 260 l 1
 734 340 l 1
 707 448 l 1
 681 501 l 1
 628 554 l 1
 576 580 l 1
 526 580 l 1
 474 554 l 1
 421 501 l 1
 395 448 l 1
 368 340 l 1
 368 260 l 1
 395 152 l 1
 421 99 l 1
 474 46 l 1
 526 20 l 1
698 512 m 1
 727 454 l 1
 754 344 l 1
 754 259 l 1
 727 146 l 1
 698 88 l 1
 709 99 l 1
 735 152 l 1
 762 260 l 1
 762 340 l 1
 735 448 l 1
 709 501 l 1
 698 512 l 1
EndSplineSet
EndChar

StartChar: glyph157
Encoding: 335 1071 157
Width: 609
VWidth: 0
Flags: W
HStem: 0 20<89 134 359 432 452 460 480 553> 28 20<87 107> 304 20<224 262 306 432> 580 20<224 432 452 460 480 553>
VStem: 45 20<69 97> 74 19<427 477> 102 19<427 477> 432 20<20 304 324 580> 460 20<20 580>
LayerCount: 2
Back
Fore
SplineSet
45 65 m 1
 46 97 l 1
 55 103 l 1
 65 97 l 1
 65 69 l 1
 87 48 l 1
 107 48 l 1
 130 71 l 1
 212 263 l 1
 242 294 l 1
 262 304 l 1
 218 304 l 1
 135 332 l 1
 102 365 l 1
 74 420 l 1
 73 480 l 1
 104 542 l 1
 135 572 l 1
 220 600 l 1
 553 600 l 1
 560 597 l 1
 563 590 l 1
 556 581 l 1
 480 580 l 1
 480 20 l 1
 556 19 l 1
 563 10 l 1
 560 3 l 1
 553 0 l 1
 359 0 l 1
 350 6 l 1
 350 14 l 1
 359 20 l 1
 432 20 l 1
 432 304 l 1
 306 304 l 1
 256 279 l 1
 231 227 l 1
 176 35 l 1
 142 1 l 1
 83 0 l 1
 76 3 l 1
 45 65 l 1
85 28 m 1
 89 20 l 1
 134 20 l 1
 157 43 l 1
 192 165 l 1
 145 58 l 1
 114 28 l 1
 85 28 l 1
224 324 m 1
 432 324 l 1
 432 580 l 1
 224 580 l 1
 172 554 l 1
 147 529 l 1
 121 477 l 1
 121 427 l 1
 147 375 l 1
 172 350 l 1
 224 324 l 1
452 20 m 1
 460 20 l 1
 460 580 l 1
 452 580 l 1
 452 20 l 1
129 364 m 1
 102 420 l 1
 101 480 l 1
 129 539 l 1
 119 529 l 1
 93 477 l 1
 93 427 l 1
 119 375 l 1
 129 364 l 1
EndSplineSet
EndChar

StartChar: glyph158
Encoding: 336 1072 158
Width: 554
VWidth: 0
Flags: W
HStem: 0 20<196 274 474 498> 304 20<121 129> 387 19<196 302>
VStem: 74 19<95 146> 101 20<95 146 324 337> 129 19<324 341> 377 20<97 262 290 299> 405 20<95 284>
LayerCount: 2
Back
Fore
SplineSet
394 348 m 1
 425 286 l 1
 425 95 l 1
 451 44 l 1
 474 20 l 1
 498 20 l 1
 505 17 l 1
 508 10 l 1
 505 3 l 1
 498 0 l 1
 466 1 l 1
 410 29 l 1
 384 76 l 1
 336 29 l 1
 277 0 l 1
 193 0 l 1
 104 30 l 1
 74 88 l 1
 73 148 l 1
 104 211 l 1
 192 241 l 1
 355 268 l 1
 377 290 l 1
 377 337 l 1
 354 361 l 1
 302 387 l 1
 196 387 l 1
 144 361 l 1
 133 350 l 1
 142 351 l 1
 149 341 l 1
 148 310 l 1
 139 304 l 1
 111 304 l 1
 104 307 l 1
 101 314 l 1
 101 341 l 1
 104 348 l 1
 134 378 l 1
 189 406 l 1
 304 407 l 1
 364 378 l 1
 394 348 l 1
124 197 m 1
 118 195 l 1
 93 146 l 1
 93 95 l 1
 118 46 l 1
 124 44 l 1
 101 93 l 1
 101 148 l 1
 124 197 l 1
197 221 m 1
 146 196 l 1
 121 146 l 1
 121 95 l 1
 146 45 l 1
 196 20 l 1
 274 20 l 1
 326 46 l 1
 377 97 l 1
 377 262 l 1
 361 249 l 1
 197 221 l 1
397 286 m 1
 397 95 l 1
 422 45 l 1
 429 42 l 1
 405 93 l 1
 405 284 l 1
 397 299 l 1
 397 286 l 1
130 346 m 1
 121 337 l 1
 121 324 l 1
 129 324 l 1
 130 346 l 1
EndSplineSet
EndChar

StartChar: glyph159
Encoding: 337 1073 159
Width: 551
VWidth: 0
Flags: W
HStem: 0 20<250 300> 387 20<250 300> 580 20G<434 448>
VStem: 72 20<177 229> 100 19<177 229> 431 20<177 229> 458 20<177 229>
LayerCount: 2
Back
Fore
SplineSet
247 407 m 1
 306 406 l 1
 393 376 l 1
 450 317 l 1
 478 231 l 1
 478 173 l 1
 448 86 l 1
 389 28 l 1
 303 0 l 1
 247 0 l 1
 161 28 l 1
 102 86 l 1
 72 176 l 1
 72 289 l 1
 100 373 l 1
 159 460 l 1
 244 517 l 1
 408 571 l 1
 434 598 l 1
 441 600 l 1
 448 597 l 1
 450 586 l 1
 420 528 l 1
 360 497 l 1
 251 470 l 1
 171 417 l 1
 118 364 l 1
 105 323 l 1
 161 379 l 1
 247 407 l 1
92 229 m 1
 92 177 l 1
 118 98 l 1
 129 88 l 1
 100 173 l 1
 99 231 l 1
 129 319 l 1
 118 308 l 1
 92 229 l 1
250 387 m 1
 198 361 l 1
 146 308 l 1
 119 229 l 1
 119 177 l 1
 146 98 l 1
 198 46 l 1
 250 20 l 1
 300 20 l 1
 352 46 l 1
 404 98 l 1
 431 177 l 1
 431 229 l 1
 404 308 l 1
 352 361 l 1
 300 387 l 1
 250 387 l 1
421 319 m 1
 450 234 l 1
 451 176 l 1
 421 88 l 1
 432 98 l 1
 458 177 l 1
 458 229 l 1
 432 308 l 1
 421 319 l 1
167 438 m 1
 242 488 l 1
 354 517 l 1
 406 542 l 1
 410 551 l 1
 252 498 l 1
 172 445 l 1
 167 438 l 1
EndSplineSet
EndChar

StartChar: glyph160
Encoding: 338 1074 160
Width: 552
VWidth: 0
Flags: W
HStem: 0 20<55 128 148 156 176 356> 193 20<176 356> 387 20<55 128 148 156 176 356>
VStem: 128 20<20 387> 156 20<20 193 213 387> 432 20<95 118 289 311> 459 19<95 118 289 311>
LayerCount: 2
Back
Fore
SplineSet
128 387 m 1
 55 387 l 1
 48 390 l 1
 45 397 l 1
 48 404 l 1
 55 407 l 1
 360 407 l 1
 448 377 l 1
 478 318 l 1
 478 282 l 1
 448 223 l 1
 390 203 l 1
 448 183 l 1
 478 125 l 1
 478 88 l 1
 448 30 l 1
 360 0 l 1
 55 0 l 1
 48 3 l 1
 45 10 l 1
 51 19 l 1
 128 20 l 1
 128 387 l 1
148 387 m 1
 148 20 l 1
 156 20 l 1
 156 387 l 1
 148 387 l 1
176 20 m 1
 356 20 l 1
 407 45 l 1
 432 95 l 1
 432 118 l 1
 407 168 l 1
 356 193 l 1
 176 193 l 1
 176 20 l 1
176 213 m 1
 356 213 l 1
 407 238 l 1
 432 289 l 1
 432 311 l 1
 407 362 l 1
 356 387 l 1
 176 387 l 1
 176 213 l 1
428 363 m 1
 452 314 l 1
 451 282 l 1
 428 237 l 1
 435 239 l 1
 459 289 l 1
 459 311 l 1
 435 361 l 1
 428 363 l 1
428 44 m 1
 435 46 l 1
 459 95 l 1
 459 118 l 1
 435 168 l 1
 428 170 l 1
 451 125 l 1
 452 93 l 1
 428 44 l 1
EndSplineSet
EndChar

StartChar: glyph161
Encoding: 339 1075 161
Width: 498
VWidth: 0
Flags: W
HStem: 0 20<55 128 148 156 176 252> 387 20<55 128 148 156 176 406 426 432>
VStem: 128 20<20 387> 156 20<20 387> 406 20<360 387> 432 19<259 292 360 387>
LayerCount: 2
Back
Fore
SplineSet
128 387 m 1
 55 387 l 1
 48 390 l 1
 45 397 l 1
 48 404 l 1
 55 407 l 1
 442 407 l 1
 451 400 l 1
 452 259 l 1
 448 251 l 1
 441 249 l 1
 432 257 l 1
 406 387 l 1
 176 387 l 1
 176 20 l 1
 252 19 l 1
 258 10 l 1
 252 1 l 1
 55 0 l 1
 46 6 l 1
 48 17 l 1
 55 20 l 1
 128 20 l 1
 128 387 l 1
148 387 m 1
 148 20 l 1
 156 20 l 1
 156 387 l 1
 148 387 l 1
426 387 m 1
 432 360 l 1
 432 387 l 1
 426 387 l 1
EndSplineSet
EndChar

StartChar: glyph162
Encoding: 340 1076 162
Width: 635
VWidth: 0
Flags: W
HStem: 0 20<64 69 90 133 161 458 478 486 506 543 563 569> 387 20<137 210 230 458 478 486 506 579>
VStem: 45 19<-128 -95 -27 0> 64 26<-27 0> 210 19<248.111 387> 458 20<20 387> 486 20<20 387> 543 20<-27 0> 569 19<-128 -95 -27 0>
LayerCount: 2
Back
Fore
SplineSet
90 0 m 1xdf80
 64 -130 l 1xdf80
 59 -137 l 1
 51 -138 l 1
 44 -128 l 1
 45 14 l 1xef80
 54 20 l 1
 133 20 l 1
 156 43 l 1
 182 123 l 1
 210 287 l 1
 210 387 l 1
 133 387 l 1
 127 397 l 1
 130 404 l 1
 137 407 l 1
 579 407 l 1
 586 404 l 1
 589 397 l 1
 582 387 l 1
 506 387 l 1
 506 20 l 1
 579 20 l 1
 588 14 l 1
 589 -128 l 1
 585 -136 l 1
 573 -137 l 1
 569 -130 l 1
 543 0 l 1
 90 0 l 1xdf80
64 -27 m 1xef80
 69 0 l 1
 64 0 l 1
 64 -27 l 1xef80
230 387 m 1
 229 285 l 1
 202 119 l 1
 174 34 l 1
 161 20 l 1
 458 20 l 1
 458 387 l 1
 230 387 l 1
478 20 m 1
 486 20 l 1
 486 387 l 1
 478 387 l 1
 478 20 l 1
563 0 m 1
 569 -27 l 1
 569 0 l 1
 563 0 l 1
EndSplineSet
EndChar

StartChar: glyph163
Encoding: 341 1077 163
Width: 525
VWidth: 0
Flags: W
HStem: 1 19<250 301> 221 20<123 403 423 431> 387 20<250 328>
VStem: 72 20<177 229> 100 19<177 221> 403 20<241 299> 431 20<241 284>
LayerCount: 2
Back
Fore
SplineSet
247 407 m 1
 330 407 l 1
 390 378 l 1
 422 346 l 1
 451 286 l 1
 451 231 l 1
 448 224 l 1
 441 221 l 1
 119 221 l 1
 119 177 l 1
 146 98 l 1
 198 46 l 1
 250 20 l 1
 301 20 l 1
 380 46 l 1
 434 100 l 1
 441 103 l 1
 448 100 l 1
 451 93 l 1
 448 86 l 1
 393 31 l 1
 303 0 l 1
 244 1 l 1
 157 31 l 1
 100 90 l 1
 72 176 l 1
 72 234 l 1
 102 321 l 1
 161 379 l 1
 247 407 l 1
99 231 m 1
 129 319 l 1
 118 308 l 1
 92 229 l 1
 92 177 l 1
 118 98 l 1
 129 88 l 1
 100 173 l 1
 99 231 l 1
123 241 m 1
 403 241 l 1
 403 311 l 1
 378 362 l 1
 328 387 l 1
 250 387 l 1
 198 361 l 1
 146 308 l 1
 123 241 l 1
423 241 m 1
 431 241 l 1
 431 284 l 1
 423 299 l 1
 423 241 l 1
EndSplineSet
EndChar

StartChar: glyph164
Encoding: 342 1078 164
Width: 746
VWidth: 0
Flags: W
HStem: 1 19<115 134 272 349 369 377 397 469 612 631> 193 20<308 349 369 377 397 438> 387 19<115 134 276 349 369 377 397 473 612 631>
VStem: 349 20<20 193 213 387> 377 20<20 193 213 387>
LayerCount: 2
Back
Fore
SplineSet
146 374 m 1
 148 369 l 1
 145 362 l 1
 117 334 l 1
 110 331 l 1
 103 334 l 1
 76 362 l 1
 73 369 l 1
 76 376 l 1
 107 406 l 1
 142 406 l 1
 175 374 l 1
 229 264 l 1
 254 239 l 1
 306 213 l 1
 349 213 l 1
 349 387 l 1
 276 387 l 1
 267 393 l 1
 267 400 l 1
 276 407 l 1
 473 406 l 1
 479 397 l 1
 473 387 l 1
 397 387 l 1
 397 213 l 1
 439 213 l 1
 491 239 l 1
 516 264 l 1
 571 374 l 1
 601 404 l 1
 608 407 l 1
 639 406 l 1
 670 376 l 1
 673 369 l 1
 670 362 l 1
 642 334 l 1
 635 331 l 1
 628 334 l 1
 601 362 l 1
 598 369 l 1
 599 374 l 1
 588 363 l 1
 532 252 l 1
 502 222 l 1
 464 203 l 1
 502 185 l 1
 532 155 l 1
 588 44 l 1
 612 20 l 1
 631 20 l 1
 655 44 l 1
 684 100 l 1
 691 103 l 1
 698 99 l 1
 699 88 l 1
 672 33 l 1
 639 1 l 1
 576 1 l 1
 543 33 l 1
 489 142 l 1
 438 193 l 1
 397 193 l 1
 397 20 l 1
 469 20 l 1
 479 14 l 1
 479 6 l 1
 469 0 l 1
 272 1 l 1
 266 10 l 1
 272 19 l 1
 349 20 l 1
 349 193 l 1
 308 193 l 1
 257 142 l 1
 202 33 l 1
 173 3 l 1
 166 0 l 1
 107 1 l 1
 74 33 l 1
 46 88 l 1
 48 99 l 1
 54 103 l 1
 62 100 l 1
 91 44 l 1
 115 20 l 1
 134 20 l 1
 157 44 l 1
 214 155 l 1
 244 185 l 1
 281 203 l 1
 244 222 l 1
 214 252 l 1
 157 363 l 1
 146 374 l 1
110 356 m 1
 131 376 l 1
 138 379 l 1
 143 377 l 1
 134 387 l 1
 115 387 l 1
 97 369 l 1
 110 356 l 1
369 387 m 1
 369 213 l 1
 377 213 l 1
 377 387 l 1
 369 387 l 1
369 193 m 1
 369 20 l 1
 377 20 l 1
 377 193 l 1
 369 193 l 1
174 33 m 1
 185 44 l 1
 240 153 l 1
 229 142 l 1
 174 33 l 1
603 377 m 1
 608 379 l 1
 615 376 l 1
 635 356 l 1
 649 369 l 1
 631 387 l 1
 612 387 l 1
 603 377 l 1
571 33 m 1
 516 142 l 1
 506 153 l 1
 561 44 l 1
 571 33 l 1
EndSplineSet
EndChar

StartChar: glyph165
Encoding: 343 1079 165
Width: 499
VWidth: 0
Flags: W
HStem: 0 20<195 302> 193 20<221 302> 387 20<196 302>
VStem: 73 20<95 116 329 354> 377 20<95 118 289 311> 405 19<95 118 289 311>
LayerCount: 2
Back
Fore
SplineSet
92 401 m 1
 114 358 l 1
 134 378 l 1
 194 407 l 1
 305 407 l 1
 394 377 l 1
 424 318 l 1
 424 282 l 1
 394 223 l 1
 336 203 l 1
 394 183 l 1
 424 125 l 1
 424 88 l 1
 394 30 l 1
 305 0 l 1
 194 0 l 1
 104 30 l 1
 74 88 l 1
 73 120 l 1
 76 128 l 1
 104 155 l 1
 111 158 l 1
 118 155 l 1
 146 128 l 1
 149 120 l 1
 146 113 l 1
 118 86 l 1
 111 83 l 1
 104 86 l 1
 102 97 l 1
 124 120 l 1
 111 134 l 1
 93 116 l 1
 93 95 l 1
 118 46 l 1
 195 20 l 1
 302 20 l 1
 352 45 l 1
 377 95 l 1
 377 118 l 1
 352 168 l 1
 302 193 l 1
 221 193 l 1
 214 196 l 1
 211 203 l 1
 214 210 l 1
 221 213 l 1
 302 213 l 1
 352 238 l 1
 377 289 l 1
 377 311 l 1
 352 362 l 1
 302 387 l 1
 196 387 l 1
 144 361 l 1
 119 336 l 1
 90 279 l 1
 79 277 l 1
 73 286 l 1
 73 397 l 1
 79 406 l 1
 87 406 l 1
 92 401 l 1
374 363 m 1
 397 314 l 1
 396 282 l 1
 374 237 l 1
 380 239 l 1
 405 289 l 1
 405 311 l 1
 380 361 l 1
 374 363 l 1
374 170 m 1
 396 125 l 1
 397 93 l 1
 374 44 l 1
 380 46 l 1
 405 95 l 1
 405 118 l 1
 380 168 l 1
 374 170 l 1
100 341 m 1
 93 354 l 1
 93 329 l 1
 100 341 l 1
EndSplineSet
EndChar

StartChar: glyph166
Encoding: 344 1080 166
Width: 609
VWidth: 0
Flags: W
HStem: 0 20<55 128 148 156 176 249 359 432 452 460 480 553> 387 20<55 128 148 156 176 249 359 432 452 460 480 553>
VStem: 128 20<20 387> 156 20<20 34 65 387> 432 20<20 341 373 387> 460 20<20 387>
LayerCount: 2
Back
Fore
SplineSet
128 387 m 1
 55 387 l 1
 48 390 l 1
 45 397 l 1
 48 404 l 1
 55 407 l 1
 249 407 l 1
 256 404 l 1
 259 397 l 1
 256 390 l 1
 249 387 l 1
 176 387 l 1
 176 65 l 1
 432 373 l 1
 432 387 l 1
 355 387 l 1
 349 397 l 1
 352 404 l 1
 359 407 l 1
 553 407 l 1
 560 404 l 1
 563 397 l 1
 556 387 l 1
 480 387 l 1
 480 20 l 1
 556 19 l 1
 563 10 l 1
 560 3 l 1
 553 0 l 1
 359 0 l 1
 350 6 l 1
 350 14 l 1
 359 20 l 1
 432 20 l 1
 432 341 l 1
 176 34 l 1
 176 20 l 1
 253 19 l 1
 259 10 l 1
 256 3 l 1
 249 0 l 1
 55 0 l 1
 48 3 l 1
 46 14 l 1
 52 19 l 1
 128 20 l 1
 128 387 l 1
148 387 m 1
 148 20 l 1
 156 20 l 1
 156 387 l 1
 148 387 l 1
452 387 m 1
 452 20 l 1
 460 20 l 1
 460 387 l 1
 452 387 l 1
EndSplineSet
EndChar

StartChar: glyph167
Encoding: 345 1081 167
Width: 609
VWidth: 0
Flags: W
HStem: 0 20<55 128 148 156 176 249 359 432 452 460 480 553> 387 20<55 128 148 156 176 249 359 432 452 460 480 553> 470 20<279 329> 580 20<204 211>
VStem: 128 20<20 387> 156 20<20 34 65 387> 185 19<565 580> 211 20<562 580> 432 20<20 341 373 387> 460 20<20 387>
LayerCount: 2
Back
Fore
SplineSet
128 387 m 1
 55 387 l 1
 48 390 l 1
 45 397 l 1
 48 404 l 1
 55 407 l 1
 249 407 l 1
 256 404 l 1
 259 397 l 1
 256 390 l 1
 249 387 l 1
 176 387 l 1
 176 65 l 1
 432 373 l 1
 432 387 l 1
 355 387 l 1
 349 397 l 1
 352 404 l 1
 359 407 l 1
 553 407 l 1
 560 404 l 1
 563 397 l 1
 556 387 l 1
 480 387 l 1
 480 20 l 1
 556 19 l 1
 563 10 l 1
 560 3 l 1
 553 0 l 1
 359 0 l 1
 350 6 l 1
 350 14 l 1
 359 20 l 1
 432 20 l 1
 432 341 l 1
 176 34 l 1
 176 20 l 1
 253 19 l 1
 259 10 l 1
 256 3 l 1
 249 0 l 1
 55 0 l 1
 48 3 l 1
 46 14 l 1
 52 19 l 1
 128 20 l 1
 128 387 l 1
148 387 m 1
 148 20 l 1
 156 20 l 1
 156 387 l 1
 148 387 l 1
452 387 m 1
 452 20 l 1
 460 20 l 1
 460 387 l 1
 452 387 l 1
231 590 m 1
 231 562 l 1
 228 555 l 1
 221 552 l 1
 214 555 l 1
 211 562 l 1
 211 580 l 1
 204 580 l 1
 204 565 l 1
 229 515 l 1
 279 490 l 1
 329 490 l 1
 379 515 l 1
 408 570 l 1
 419 571 l 1
 424 562 l 1
 391 498 l 1
 336 471 l 1
 276 470 l 1
 214 500 l 1
 185 558 l 1
 184 590 l 1
 186 597 l 1
 194 600 l 1
 221 600 l 1
 228 597 l 1
 231 590 l 1
EndSplineSet
EndChar

StartChar: glyph168
Encoding: 346 1082 168
Width: 553
VWidth: 0
Flags: W
HStem: 0 20<55 128 148 156 176 248 418 438> 193 20<176 218> 387 20<55 128 148 156 176 248 418 438>
VStem: 128 20<20 387> 156 20<20 193 213 387>
LayerCount: 2
Back
Fore
SplineSet
128 387 m 1
 55 387 l 1
 48 390 l 1
 45 397 l 1
 48 404 l 1
 55 407 l 1
 248 407 l 1
 258 400 l 1
 258 393 l 1
 248 387 l 1
 176 387 l 1
 176 213 l 1
 219 213 l 1
 298 240 l 1
 323 264 l 1
 378 374 l 1
 410 406 l 1
 446 406 l 1
 476 376 l 1
 479 369 l 1
 476 362 l 1
 449 334 l 1
 442 331 l 1
 435 334 l 1
 407 362 l 1
 404 369 l 1
 406 374 l 1
 395 363 l 1
 338 252 l 1
 307 221 l 1
 252 203 l 1
 307 185 l 1
 338 155 l 1
 395 44 l 1
 418 20 l 1
 438 20 l 1
 461 44 l 1
 490 100 l 1
 498 103 l 1
 505 99 l 1
 506 88 l 1
 478 33 l 1
 449 3 l 1
 442 0 l 1
 386 0 l 1
 379 3 l 1
 350 33 l 1
 295 142 l 1
 270 167 l 1
 218 193 l 1
 176 193 l 1
 176 20 l 1
 252 19 l 1
 258 10 l 1
 255 3 l 1
 248 0 l 1
 55 0 l 1
 48 3 l 1
 45 10 l 1
 51 19 l 1
 128 20 l 1
 128 387 l 1
148 387 m 1
 148 20 l 1
 156 20 l 1
 156 387 l 1
 148 387 l 1
409 377 m 1
 414 379 l 1
 421 376 l 1
 442 356 l 1
 455 369 l 1
 438 387 l 1
 418 387 l 1
 409 377 l 1
378 33 m 1
 323 142 l 1
 312 153 l 1
 367 44 l 1
 378 33 l 1
EndSplineSet
EndChar

StartChar: glyph169
Encoding: 347 1083 169
Width: 609
VWidth: 0
Flags: W
HStem: 0 20<87 107 359 432 452 460 480 553> 387 20<111 184 204 432 452 460 480 553>
VStem: 184 19<248.111 387> 432 20<20 387> 460 20<20 387>
LayerCount: 2
Back
Fore
SplineSet
119 33 m 1
 130 43 l 1
 156 123 l 1
 184 287 l 1
 184 387 l 1
 107 387 l 1
 101 397 l 1
 104 404 l 1
 111 407 l 1
 553 407 l 1
 560 404 l 1
 563 397 l 1
 556 387 l 1
 480 387 l 1
 480 20 l 1
 556 19 l 1
 563 10 l 1
 560 3 l 1
 553 0 l 1
 359 0 l 1
 350 6 l 1
 350 14 l 1
 359 20 l 1
 432 20 l 1
 432 387 l 1
 204 387 l 1
 203 285 l 1
 176 119 l 1
 148 34 l 1
 114 1 l 1
 83 0 l 1
 76 3 l 1
 48 31 l 1
 45 38 l 1
 48 45 l 1
 76 72 l 1
 83 75 l 1
 90 72 l 1
 118 45 l 1
 121 38 l 1
 119 33 l 1
116 29 m 1
 111 28 l 1
 104 31 l 1
 83 51 l 1
 70 38 l 1
 87 20 l 1
 107 20 l 1
 116 29 l 1
452 387 m 1
 452 20 l 1
 460 20 l 1
 460 387 l 1
 452 387 l 1
EndSplineSet
EndChar

StartChar: glyph170
Encoding: 348 1084 170
Width: 635
VWidth: 0
Flags: W
HStem: 0 20<55 128 148 221 387 460 480 487 507 580> 387 20<55 128 153 159 480 487 507 580>
VStem: 128 20<20 348> 460 20<20 348> 487 20<20 387>
LayerCount: 2
Back
Fore
SplineSet
128 387 m 1
 55 387 l 1
 48 390 l 1
 45 397 l 1
 48 404 l 1
 55 407 l 1
 166 407 l 1
 173 404 l 1
 313 69 l 1
 313 61 l 1
 308 56 l 1
 300 56 l 1
 295 61 l 1
 159 387 l 1
 153 387 l 1
 304 35 l 1
 463 404 l 1
 470 407 l 1
 580 407 l 1
 587 404 l 1
 589 393 l 1
 584 387 l 1
 507 387 l 1
 507 20 l 1
 584 19 l 1
 589 14 l 1
 587 3 l 1
 580 0 l 1
 387 0 l 1
 378 6 l 1
 378 14 l 1
 387 20 l 1
 460 20 l 1
 460 348 l 1
 313 6 l 1
 304 0 l 1
 295 6 l 1
 148 348 l 1
 148 20 l 1
 221 20 l 1
 228 17 l 1
 230 6 l 1
 221 0 l 1
 55 0 l 1
 48 3 l 1
 46 14 l 1
 52 19 l 1
 128 20 l 1
 128 387 l 1
480 20 m 1
 487 20 l 1
 487 387 l 1
 480 387 l 1
 480 20 l 1
EndSplineSet
EndChar

StartChar: glyph171
Encoding: 349 1085 171
Width: 609
VWidth: 0
Flags: W
HStem: 0 20<55 128 148 156 176 249 359 432 452 460 480 553> 193 20<176 432> 387 20<55 128 148 156 176 249 359 432 452 460 480 553>
VStem: 128 20<20 387> 156 20<20 193 213 387> 432 20<20 193 213 387> 460 20<20 387>
LayerCount: 2
Back
Fore
SplineSet
128 387 m 1
 55 387 l 1
 48 390 l 1
 45 397 l 1
 48 404 l 1
 55 407 l 1
 249 407 l 1
 258 400 l 1
 258 393 l 1
 249 387 l 1
 176 387 l 1
 176 213 l 1
 432 213 l 1
 432 387 l 1
 355 387 l 1
 349 397 l 1
 352 404 l 1
 359 407 l 1
 553 407 l 1
 560 404 l 1
 563 397 l 1
 556 387 l 1
 480 387 l 1
 480 20 l 1
 556 19 l 1
 563 10 l 1
 560 3 l 1
 553 0 l 1
 359 0 l 1
 352 3 l 1
 349 10 l 1
 355 19 l 1
 432 20 l 1
 432 193 l 1
 176 193 l 1
 176 20 l 1
 253 19 l 1
 259 10 l 1
 256 3 l 1
 249 0 l 1
 55 0 l 1
 48 3 l 1
 46 14 l 1
 52 19 l 1
 128 20 l 1
 128 387 l 1
148 387 m 1
 148 20 l 1
 156 20 l 1
 156 387 l 1
 148 387 l 1
452 387 m 1
 452 20 l 1
 460 20 l 1
 460 387 l 1
 452 387 l 1
EndSplineSet
EndChar

StartChar: glyph172
Encoding: 350 1086 172
Width: 551
VWidth: 0
Flags: W
HStem: 1 19<250 300> 387 20<250 300>
VStem: 72 20<177 229> 100 19<177 229> 431 20<177 229> 458 20<177 229>
LayerCount: 2
Back
Fore
SplineSet
247 407 m 1
 306 406 l 1
 393 376 l 1
 450 317 l 1
 478 231 l 1
 478 173 l 1
 448 86 l 1
 389 28 l 1
 303 0 l 1
 244 1 l 1
 157 31 l 1
 100 90 l 1
 72 176 l 1
 72 234 l 1
 102 321 l 1
 161 379 l 1
 247 407 l 1
129 88 m 1
 100 173 l 1
 99 231 l 1
 129 319 l 1
 118 308 l 1
 92 229 l 1
 92 177 l 1
 118 98 l 1
 129 88 l 1
421 319 m 1
 450 234 l 1
 451 176 l 1
 421 88 l 1
 432 98 l 1
 458 177 l 1
 458 229 l 1
 432 308 l 1
 421 319 l 1
300 387 m 1
 250 387 l 1
 198 361 l 1
 146 308 l 1
 119 229 l 1
 119 177 l 1
 146 98 l 1
 198 46 l 1
 250 20 l 1
 300 20 l 1
 352 46 l 1
 404 98 l 1
 431 177 l 1
 431 229 l 1
 404 308 l 1
 352 361 l 1
 300 387 l 1
EndSplineSet
EndChar

StartChar: glyph173
Encoding: 351 1087 173
Width: 609
VWidth: 0
Flags: W
HStem: 0 20<55 128 148 156 176 249 359 432 452 460 480 553> 387 20<55 128 148 156 176 432 452 460 480 553>
VStem: 128 20<20 387> 156 20<20 387> 432 20<20 387> 460 20<20 387>
LayerCount: 2
Back
Fore
SplineSet
128 387 m 1
 55 387 l 1
 48 390 l 1
 45 397 l 1
 48 404 l 1
 55 407 l 1
 553 407 l 1
 560 404 l 1
 563 397 l 1
 556 387 l 1
 480 387 l 1
 480 20 l 1
 556 19 l 1
 563 10 l 1
 560 3 l 1
 553 0 l 1
 359 0 l 1
 350 6 l 1
 350 14 l 1
 359 20 l 1
 432 20 l 1
 432 387 l 1
 176 387 l 1
 176 20 l 1
 249 20 l 1
 256 17 l 1
 258 6 l 1
 249 0 l 1
 55 0 l 1
 48 3 l 1
 46 14 l 1
 52 19 l 1
 128 20 l 1
 128 387 l 1
148 387 m 1
 148 20 l 1
 156 20 l 1
 156 387 l 1
 148 387 l 1
452 20 m 1
 460 20 l 1
 460 387 l 1
 452 387 l 1
 452 20 l 1
EndSplineSet
EndChar

StartChar: glyph174
Encoding: 352 1088 174
Width: 581
VWidth: 0
Flags: W
HStem: -193 20<55 128 148 156 176 253> 0 20<279 329> 387 20<55 128 148 156 279 329>
VStem: 128 20<-173 387> 156 20<-173 69 97 310 338 387> 460 20<177 229> 487 20<177 229>
LayerCount: 2
Back
Fore
SplineSet
128 387 m 1
 55 387 l 1
 48 390 l 1
 45 397 l 1
 48 404 l 1
 55 407 l 1
 170 406 l 1
 176 397 l 1
 176 338 l 1
 217 378 l 1
 276 407 l 1
 335 406 l 1
 418 379 l 1
 479 317 l 1
 507 234 l 1
 507 173 l 1
 479 90 l 1
 418 28 l 1
 335 1 l 1
 276 0 l 1
 217 29 l 1
 176 69 l 1
 176 -173 l 1
 253 -174 l 1
 259 -183 l 1
 253 -193 l 1
 55 -193 l 1
 46 -187 l 1
 48 -176 l 1
 55 -173 l 1
 128 -173 l 1
 128 387 l 1
148 387 m 1
 148 -173 l 1
 156 -173 l 1
 156 387 l 1
 148 387 l 1
176 97 m 1
 227 46 l 1
 279 20 l 1
 329 20 l 1
 381 46 l 1
 433 98 l 1
 460 177 l 1
 460 229 l 1
 433 308 l 1
 381 361 l 1
 329 387 l 1
 279 387 l 1
 227 361 l 1
 176 310 l 1
 176 97 l 1
450 319 m 1
 479 234 l 1
 480 176 l 1
 450 88 l 1
 461 98 l 1
 487 177 l 1
 487 229 l 1
 461 308 l 1
 450 319 l 1
EndSplineSet
EndChar

StartChar: glyph175
Encoding: 353 1089 175
Width: 525
VWidth: 0
Flags: W
HStem: 1 19<250 301> 387 19<250 328>
VStem: 72 20<177 229> 100 19<177 229> 431 19<290 310>
LayerCount: 2
Back
Fore
SplineSet
250 387 m 1
 198 361 l 1
 146 308 l 1
 119 229 l 1
 119 177 l 1
 146 98 l 1
 198 46 l 1
 250 20 l 1
 301 20 l 1
 380 46 l 1
 437 102 l 1
 445 102 l 1
 451 93 l 1
 448 86 l 1
 393 31 l 1
 303 0 l 1
 244 1 l 1
 157 31 l 1
 100 90 l 1
 72 176 l 1
 72 234 l 1
 102 321 l 1
 161 379 l 1
 244 406 l 1
 330 407 l 1
 390 378 l 1
 450 318 l 1
 450 282 l 1
 420 252 l 1
 409 249 l 1
 378 279 l 1
 375 286 l 1
 378 293 l 1
 406 321 l 1
 413 324 l 1
 418 322 l 1
 380 361 l 1
 328 387 l 1
 250 387 l 1
129 88 m 1
 100 173 l 1
 99 231 l 1
 129 319 l 1
 118 308 l 1
 92 229 l 1
 92 177 l 1
 118 98 l 1
 129 88 l 1
422 319 m 1
 423 314 l 1
 420 307 l 1
 400 286 l 1
 413 273 l 1
 431 290 l 1
 431 310 l 1
 422 319 l 1
EndSplineSet
EndChar

StartChar: glyph176
Encoding: 354 1090 176
Width: 525
VWidth: 0
Flags: W
HStem: 0 20<166 239 259 267 287 363> 387 19<93 99 119 239 259 267 287 407 427 432>
VStem: 73 20<259 292 360 387> 93 26<360 387> 239 20<20 387> 267 20<20 387> 407 20<360 387> 432 20<259 288.2 360 387>
LayerCount: 2
Back
Fore
SplineSet
119 387 m 1xdf
 93 257 l 1xdf
 88 250 l 1
 80 249 l 1
 73 259 l 1
 73 397 l 1xef
 79 406 l 1
 442 407 l 1
 452 400 l 1
 452 259 l 1
 449 251 l 1
 441 249 l 1
 433 257 l 1
 407 387 l 1
 287 387 l 1
 287 20 l 1
 363 19 l 1
 369 10 l 1
 363 1 l 1
 166 0 l 1
 157 6 l 1
 157 14 l 1
 166 20 l 1
 239 20 l 1
 239 387 l 1
 119 387 l 1xdf
93 360 m 1xef
 99 387 l 1
 93 387 l 1
 93 360 l 1xef
259 20 m 1
 267 20 l 1
 267 387 l 1
 259 387 l 1
 259 20 l 1
427 387 m 1
 432 360 l 1
 432 387 l 1
 427 387 l 1
EndSplineSet
EndChar

StartChar: glyph177
Encoding: 355 1091 177
Width: 499
VWidth: 0
Flags: W
HStem: -193 20<60 81> 387 20<28 77 98 104 126 194 304 400 421 470>
LayerCount: 2
Back
Fore
SplineSet
77 387 m 1
 24 387 l 1
 19 393 l 1
 19 400 l 1
 28 407 l 1
 194 407 l 1
 203 400 l 1
 203 393 l 1
 194 387 l 1
 126 387 l 1
 258 69 l 1
 256 58 l 1
 249 55 l 1
 240 61 l 1
 104 387 l 1
 98 387 l 1
 249 35 l 1
 400 387 l 1
 304 387 l 1
 295 393 l 1
 295 400 l 1
 304 407 l 1
 470 407 l 1
 477 404 l 1
 480 397 l 1
 477 390 l 1
 470 387 l 1
 421 387 l 1
 258 6 l 1
 203 -105 l 1
 143 -165 l 1
 88 -192 l 1
 56 -193 l 1
 49 -190 l 1
 21 -163 l 1
 18 -156 l 1
 21 -149 l 1
 49 -121 l 1
 56 -118 l 1
 63 -121 l 1
 90 -149 l 1
 93 -156 l 1
 87 -165 l 1
 79 -165 l 1
 56 -142 l 1
 42 -156 l 1
 60 -173 l 1
 81 -173 l 1
 133 -147 l 1
 186 -95 l 1
 238 10 l 1
 77 387 l 1
EndSplineSet
EndChar

StartChar: glyph178
Encoding: 356 1092 178
Width: 580
VWidth: 0
Flags: W
HStem: -193 20<192 265 285 293 313 389> 1 19<169 216 362 409> 387 20<169 216 362 409> 580 20<192 265 285 293>
VStem: 72 20<120 289> 99 20<122 285> 265 20<-173 50 95 311 356 580> 293 20<-173 50 95 311 356 580> 458 20<122 285> 486 20<122 285>
LayerCount: 2
Back
Fore
SplineSet
165 407 m 1
 224 406 l 1
 254 376 l 1
 265 356 l 1
 265 580 l 1
 192 580 l 1
 185 583 l 1
 182 590 l 1
 185 597 l 1
 192 600 l 1
 303 600 l 1
 310 597 l 1
 313 590 l 1
 313 356 l 1
 323 376 l 1
 351 404 l 1
 358 407 l 1
 417 406 l 1
 473 378 l 1
 478 372 l 1
 506 286 l 1
 506 120 l 1
 478 34 l 1
 473 29 l 1
 417 1 l 1
 358 0 l 1
 351 3 l 1
 323 31 l 1
 313 50 l 1
 313 -173 l 1
 389 -174 l 1
 395 -183 l 1
 389 -193 l 1
 192 -193 l 1
 183 -187 l 1
 185 -176 l 1
 192 -173 l 1
 265 -173 l 1
 265 50 l 1
 254 31 l 1
 224 1 l 1
 161 1 l 1
 102 31 l 1
 72 120 l 1
 72 289 l 1
 102 376 l 1
 165 407 l 1
125 366 m 1
 117 362 l 1
 92 285 l 1
 92 122 l 1
 117 45 l 1
 125 41 l 1
 99 120 l 1
 99 286 l 1
 125 366 l 1
169 387 m 1
 146 364 l 1
 119 285 l 1
 119 122 l 1
 146 43 l 1
 169 20 l 1
 216 20 l 1
 239 44 l 1
 265 95 l 1
 265 311 l 1
 239 363 l 1
 216 387 l 1
 169 387 l 1
285 580 m 1
 285 -173 l 1
 293 -173 l 1
 293 580 l 1
 285 580 l 1
313 95 m 1
 338 44 l 1
 362 20 l 1
 409 20 l 1
 432 43 l 1
 458 122 l 1
 458 285 l 1
 432 364 l 1
 409 387 l 1
 362 387 l 1
 338 363 l 1
 313 311 l 1
 313 95 l 1
452 366 m 1
 478 286 l 1
 478 120 l 1
 452 41 l 1
 460 45 l 1
 486 122 l 1
 486 285 l 1
 460 362 l 1
 452 366 l 1
EndSplineSet
EndChar

StartChar: glyph179
Encoding: 357 1093 179
Width: 553
VWidth: 0
Flags: W
HStem: 0 20<55 106 132 221 331 394 447 497> 387 20<55 105 158 221 331 420 446 497>
LayerCount: 2
Back
Fore
SplineSet
106 20 m 1
 256 195 l 1
 105 387 l 1
 51 387 l 1
 45 397 l 1
 48 404 l 1
 55 407 l 1
 221 407 l 1
 228 404 l 1
 231 397 l 1
 225 387 l 1
 158 387 l 1
 284 227 l 1
 420 387 l 1
 331 387 l 1
 322 393 l 1
 324 404 l 1
 331 407 l 1
 497 407 l 1
 504 404 l 1
 507 397 l 1
 501 387 l 1
 446 387 l 1
 296 211 l 1
 447 20 l 1
 501 19 l 1
 507 10 l 1
 504 3 l 1
 497 0 l 1
 331 0 l 1
 324 3 l 1
 321 10 l 1
 327 19 l 1
 394 20 l 1
 268 179 l 1
 132 20 l 1
 221 20 l 1
 230 14 l 1
 228 3 l 1
 221 0 l 1
 55 0 l 1
 48 3 l 1
 45 10 l 1
 48 17 l 1
 55 20 l 1
 106 20 l 1
269 211 m 1
 270 212 l 1
 131 387 l 1
 269 211 l 1
283 196 m 1
 282 195 l 1
 421 20 l 1
 283 196 l 1
EndSplineSet
EndChar

StartChar: glyph180
Encoding: 358 1094 180
Width: 609
VWidth: 0
Flags: W
HStem: 0 20<55 128 148 156 176 432 452 460 480 517 537 543> 387 20<55 128 148 156 176 249 359 432 452 460 480 553>
VStem: 128 20<20 387> 156 20<20 387> 432 20<20 387> 460 20<20 387> 517 20<-27 0> 543 19<-128 -95 -27 0>
LayerCount: 2
Back
Fore
SplineSet
128 387 m 1
 55 387 l 1
 48 390 l 1
 45 397 l 1
 48 404 l 1
 55 407 l 1
 249 407 l 1
 256 404 l 1
 259 397 l 1
 256 390 l 1
 249 387 l 1
 176 387 l 1
 176 20 l 1
 432 20 l 1
 432 387 l 1
 359 387 l 1
 350 393 l 1
 350 400 l 1
 359 407 l 1
 553 407 l 1
 560 404 l 1
 563 397 l 1
 556 387 l 1
 480 387 l 1
 480 20 l 1
 553 20 l 1
 562 14 l 1
 563 -128 l 1
 559 -136 l 1
 547 -137 l 1
 543 -130 l 1
 517 0 l 1
 55 0 l 1
 48 3 l 1
 46 14 l 1
 52 19 l 1
 128 20 l 1
 128 387 l 1
148 387 m 1
 148 20 l 1
 156 20 l 1
 156 387 l 1
 148 387 l 1
452 387 m 1
 452 20 l 1
 460 20 l 1
 460 387 l 1
 452 387 l 1
537 0 m 1
 543 -27 l 1
 543 0 l 1
 537 0 l 1
EndSplineSet
EndChar

StartChar: glyph181
Encoding: 359 1095 181
Width: 609
VWidth: 0
Flags: W
HStem: 0 20<359 432 452 460 480 553> 111 19<251 302> 387 20<55 128 148 156 176 249 359 432 452 460 480 553>
VStem: 128 20<206 387> 156 20<206 387> 432 20<20 179 207 387> 460 20<20 387>
LayerCount: 2
Back
Fore
SplineSet
128 387 m 1
 55 387 l 1
 48 390 l 1
 45 397 l 1
 48 404 l 1
 55 407 l 1
 249 407 l 1
 256 404 l 1
 259 397 l 1
 253 387 l 1
 176 387 l 1
 176 206 l 1
 201 156 l 1
 251 130 l 1
 302 130 l 1
 381 157 l 1
 432 207 l 1
 432 387 l 1
 355 387 l 1
 349 397 l 1
 352 404 l 1
 359 407 l 1
 553 407 l 1
 560 404 l 1
 563 397 l 1
 556 387 l 1
 480 387 l 1
 480 20 l 1
 556 19 l 1
 563 10 l 1
 560 3 l 1
 553 0 l 1
 359 0 l 1
 352 3 l 1
 349 10 l 1
 355 19 l 1
 432 20 l 1
 432 179 l 1
 390 139 l 1
 304 110 l 1
 246 111 l 1
 159 141 l 1
 128 203 l 1
 128 387 l 1
148 387 m 1
 148 206 l 1
 173 156 l 1
 179 154 l 1
 156 203 l 1
 156 387 l 1
 148 387 l 1
452 203 m 1
 452 20 l 1
 460 20 l 1
 460 387 l 1
 452 387 l 1
 452 203 l 1
EndSplineSet
EndChar

StartChar: glyph182
Encoding: 360 1096 182
Width: 856
VWidth: 0
Flags: W
HStem: 1 19<50 127 147 154 174 403 423 431 451 679 699 707 727 800> 387 20<54 127 147 154 174 247 330 403 423 431 451 523 606 679 699 707 727 803>
VStem: 127 20<20 387> 154 20<20 387> 403 20<20 387> 431 20<20 387> 679 20<20 387> 707 20<20 387>
LayerCount: 2
Back
Fore
SplineSet
127 387 m 1
 54 387 l 1
 47 390 l 1
 44 397 l 1
 47 404 l 1
 54 407 l 1
 247 407 l 1
 254 404 l 1
 257 397 l 1
 254 390 l 1
 247 387 l 1
 174 387 l 1
 174 20 l 1
 403 20 l 1
 403 387 l 1
 330 387 l 1
 321 393 l 1
 321 400 l 1
 330 407 l 1
 523 407 l 1
 531 404 l 1
 533 397 l 1
 527 387 l 1
 451 387 l 1
 451 20 l 1
 679 20 l 1
 679 387 l 1
 606 387 l 1
 599 390 l 1
 597 400 l 1
 606 407 l 1
 803 406 l 1
 810 397 l 1
 803 387 l 1
 727 387 l 1
 727 20 l 1
 800 20 l 1
 807 17 l 1
 809 6 l 1
 800 0 l 1
 50 1 l 1
 44 10 l 1
 50 19 l 1
 127 20 l 1
 127 387 l 1
147 387 m 1
 147 20 l 1
 154 20 l 1
 154 387 l 1
 147 387 l 1
423 387 m 1
 423 20 l 1
 431 20 l 1
 431 387 l 1
 423 387 l 1
699 387 m 1
 699 20 l 1
 707 20 l 1
 707 387 l 1
 699 387 l 1
EndSplineSet
EndChar

StartChar: glyph183
Encoding: 361 1097 183
Width: 856
VWidth: 0
Flags: W
HStem: 0 20<54 127 147 154 174 403 423 431 451 679 699 707 727 764 784 790> 387 20<54 127 147 154 174 247 330 403 423 431 451 523 606 679 699 707 727 800>
VStem: 127 20<20 387> 154 20<20 387> 403 20<20 387> 431 20<20 387> 679 20<20 387> 707 20<20 387> 764 20<-27 0> 790 19<-128 -95 -27 0>
LayerCount: 2
Back
Fore
SplineSet
127 387 m 1
 54 387 l 1
 47 390 l 1
 44 397 l 1
 47 404 l 1
 54 407 l 1
 247 407 l 1
 254 404 l 1
 257 397 l 1
 254 390 l 1
 247 387 l 1
 174 387 l 1
 174 20 l 1
 403 20 l 1
 403 387 l 1
 330 387 l 1
 321 393 l 1
 321 400 l 1
 330 407 l 1
 523 407 l 1
 531 404 l 1
 533 397 l 1
 527 387 l 1
 451 387 l 1
 451 20 l 1
 679 20 l 1
 679 387 l 1
 606 387 l 1
 599 390 l 1
 597 400 l 1
 606 407 l 1
 800 407 l 1
 807 404 l 1
 810 397 l 1
 803 387 l 1
 727 387 l 1
 727 20 l 1
 800 20 l 1
 809 14 l 1
 810 -128 l 1
 806 -136 l 1
 795 -137 l 1
 790 -130 l 1
 764 0 l 1
 54 0 l 1
 47 3 l 1
 44 10 l 1
 50 19 l 1
 127 20 l 1
 127 387 l 1
147 387 m 1
 147 20 l 1
 154 20 l 1
 154 387 l 1
 147 387 l 1
423 387 m 1
 423 20 l 1
 431 20 l 1
 431 387 l 1
 423 387 l 1
699 387 m 1
 699 20 l 1
 707 20 l 1
 707 387 l 1
 699 387 l 1
784 0 m 1
 790 -27 l 1
 790 0 l 1
 784 0 l 1
EndSplineSet
EndChar

StartChar: glyph184
Encoding: 362 1098 184
Width: 580
VWidth: 0
Flags: W
HStem: 0 20<165 237 257 265 285 383> 193 20<285 383> 387 19<92 97 117 237 257 265 285 358>
VStem: 72 20<259 288.2 360 387> 92 25<360 387> 237 20<20 387> 265 20<20 193 213 387> 458 20<95 118> 486 20<95 118>
LayerCount: 2
Back
Fore
SplineSet
117 387 m 1xef80
 91 257 l 1
 87 250 l 1
 79 249 l 1
 72 259 l 1
 72 397 l 1xf780
 78 406 l 1
 358 407 l 1
 365 404 l 1
 368 397 l 1
 362 387 l 1
 285 387 l 1
 285 213 l 1
 386 213 l 1
 475 183 l 1
 505 125 l 1
 506 93 l 1
 475 30 l 1
 386 0 l 1
 165 0 l 1
 157 3 l 1
 155 10 l 1
 161 19 l 1
 237 20 l 1
 237 387 l 1
 117 387 l 1xef80
92 360 m 1
 97 387 l 1
 92 387 l 1
 92 360 l 1
257 20 m 1
 265 20 l 1
 265 387 l 1
 257 387 l 1
 257 20 l 1
285 20 m 1
 383 20 l 1
 433 45 l 1
 458 95 l 1
 458 118 l 1
 433 168 l 1
 383 193 l 1
 285 193 l 1
 285 20 l 1
455 170 m 1
 477 125 l 1
 478 93 l 1
 455 44 l 1
 461 46 l 1
 486 95 l 1
 486 118 l 1
 461 168 l 1
 455 170 l 1
EndSplineSet
EndChar

StartChar: glyph185
Encoding: 363 1099 185
Width: 719
VWidth: 0
Flags: W
HStem: 0 20<55 128 148 156 176 274 469 542 562 570 590 667> 193 20<176 274> 387 20<55 128 148 156 176 249 469 542 562 570 590 663>
VStem: 128 20<20 387> 156 20<20 193 213 387> 349 20<95 118> 377 20<95 118> 542 20<20 387> 570 20<20 387>
LayerCount: 2
Back
Fore
SplineSet
542 387 m 1
 469 387 l 1
 462 390 l 1
 459 397 l 1
 462 404 l 1
 469 407 l 1
 663 407 l 1
 672 400 l 1
 670 390 l 1
 663 387 l 1
 590 387 l 1
 590 20 l 1
 667 19 l 1
 673 10 l 1
 667 1 l 1
 469 0 l 1
 460 6 l 1
 460 14 l 1
 469 20 l 1
 542 20 l 1
 542 387 l 1
562 387 m 1
 562 20 l 1
 570 20 l 1
 570 387 l 1
 562 387 l 1
128 387 m 1
 55 387 l 1
 48 390 l 1
 45 397 l 1
 48 404 l 1
 55 407 l 1
 249 407 l 1
 258 400 l 1
 258 393 l 1
 249 387 l 1
 176 387 l 1
 176 213 l 1
 277 213 l 1
 366 183 l 1
 396 125 l 1
 397 93 l 1
 366 30 l 1
 277 0 l 1
 55 0 l 1
 46 6 l 1
 48 17 l 1
 55 20 l 1
 128 20 l 1
 128 387 l 1
148 387 m 1
 148 20 l 1
 156 20 l 1
 156 387 l 1
 148 387 l 1
176 20 m 1
 274 20 l 1
 324 45 l 1
 349 95 l 1
 349 118 l 1
 324 168 l 1
 274 193 l 1
 176 193 l 1
 176 20 l 1
346 170 m 1
 368 125 l 1
 369 93 l 1
 346 44 l 1
 352 46 l 1
 377 95 l 1
 377 118 l 1
 352 168 l 1
 346 170 l 1
EndSplineSet
EndChar

StartChar: glyph186
Encoding: 364 1100 186
Width: 471
VWidth: 0
Flags: W
HStem: 0 20<55 128 148 156 176 274> 193 20<176 274> 387 20<55 128 148 156 176 249>
VStem: 128 20<20 387> 156 20<20 193 213 387> 349 20<95 118> 377 20<95 118>
LayerCount: 2
Back
Fore
SplineSet
128 387 m 1
 55 387 l 1
 48 390 l 1
 45 397 l 1
 48 404 l 1
 55 407 l 1
 249 407 l 1
 258 400 l 1
 256 390 l 1
 249 387 l 1
 176 387 l 1
 176 213 l 1
 277 213 l 1
 366 183 l 1
 396 125 l 1
 397 93 l 1
 366 30 l 1
 277 0 l 1
 55 0 l 1
 46 6 l 1
 46 14 l 1
 55 20 l 1
 128 20 l 1
 128 387 l 1
148 387 m 1
 148 20 l 1
 156 20 l 1
 156 387 l 1
 148 387 l 1
176 20 m 1
 274 20 l 1
 324 45 l 1
 349 95 l 1
 349 118 l 1
 324 168 l 1
 274 193 l 1
 176 193 l 1
 176 20 l 1
346 170 m 1
 368 125 l 1
 369 93 l 1
 346 44 l 1
 352 46 l 1
 377 95 l 1
 377 118 l 1
 352 168 l 1
 346 170 l 1
EndSplineSet
EndChar

StartChar: glyph187
Encoding: 365 1101 187
Width: 526
VWidth: 0
Flags: W
HStem: 0 20<196 274> 193 20<249 405> 387 19<196 274>
VStem: 73 20<97 116 329 354> 405 20<177 193 213 229> 432 20<177 229>
LayerCount: 2
Back
Fore
SplineSet
92 401 m 1
 114 358 l 1
 134 378 l 1
 189 406 l 1
 280 406 l 1
 363 379 l 1
 422 321 l 1
 452 234 l 1
 452 173 l 1
 424 90 l 1
 367 31 l 1
 277 0 l 1
 194 0 l 1
 131 31 l 1
 76 86 l 1
 73 93 l 1
 74 124 l 1
 104 155 l 1
 115 157 l 1
 146 128 l 1
 149 120 l 1
 146 113 l 1
 118 86 l 1
 111 83 l 1
 106 84 l 1
 144 46 l 1
 196 20 l 1
 274 20 l 1
 326 46 l 1
 378 98 l 1
 405 177 l 1
 405 193 l 1
 249 193 l 1
 240 200 l 1
 242 210 l 1
 249 213 l 1
 405 213 l 1
 405 229 l 1
 378 308 l 1
 326 361 l 1
 274 387 l 1
 196 387 l 1
 144 361 l 1
 119 336 l 1
 90 279 l 1
 83 276 l 1
 76 279 l 1
 73 286 l 1
 73 397 l 1
 76 404 l 1
 83 407 l 1
 92 401 l 1
395 319 m 1
 424 234 l 1
 425 176 l 1
 395 88 l 1
 406 98 l 1
 432 177 l 1
 432 229 l 1
 406 308 l 1
 395 319 l 1
102 88 m 1
 101 93 l 1
 104 100 l 1
 124 120 l 1
 111 134 l 1
 93 116 l 1
 93 97 l 1
 102 88 l 1
100 341 m 1
 93 354 l 1
 93 329 l 1
 100 341 l 1
EndSplineSet
EndChar

StartChar: glyph188
Encoding: 366 1102 188
Width: 801
VWidth: 0
Flags: W
HStem: 0 20<51 127 147 155 175 248 499 549> 193 20<175 321> 387 20<55 127 147 155 175 248 499 549>
VStem: 127 20<20 387> 155 20<20 193 213 387> 321 20<177 193 213 229> 349 19<177 229> 680 20<177 229> 707 20<177 229>
LayerCount: 2
Back
Fore
SplineSet
127 387 m 1
 55 387 l 1
 48 390 l 1
 45 397 l 1
 48 404 l 1
 55 407 l 1
 248 407 l 1
 257 400 l 1
 257 393 l 1
 248 387 l 1
 175 387 l 1
 175 213 l 1
 321 213 l 1
 321 234 l 1
 349 317 l 1
 410 379 l 1
 493 406 l 1
 552 407 l 1
 638 379 l 1
 699 317 l 1
 727 234 l 1
 727 173 l 1
 699 90 l 1
 638 28 l 1
 552 0 l 1
 496 0 l 1
 410 28 l 1
 351 86 l 1
 321 173 l 1
 321 193 l 1
 175 193 l 1
 175 20 l 1
 248 20 l 1
 257 14 l 1
 257 6 l 1
 248 0 l 1
 51 1 l 1
 45 10 l 1
 51 19 l 1
 127 20 l 1
 127 387 l 1
147 387 m 1
 147 20 l 1
 155 20 l 1
 155 387 l 1
 147 387 l 1
378 319 m 1
 367 308 l 1
 341 229 l 1
 341 177 l 1
 367 98 l 1
 378 88 l 1
 349 173 l 1
 348 231 l 1
 378 319 l 1
499 20 m 1
 549 20 l 1
 601 46 l 1
 653 98 l 1
 680 177 l 1
 680 229 l 1
 653 308 l 1
 601 361 l 1
 549 387 l 1
 499 387 l 1
 447 361 l 1
 395 308 l 1
 368 229 l 1
 368 177 l 1
 395 98 l 1
 447 46 l 1
 499 20 l 1
670 319 m 1
 699 234 l 1
 700 176 l 1
 670 88 l 1
 681 98 l 1
 707 177 l 1
 707 229 l 1
 681 308 l 1
 670 319 l 1
EndSplineSet
EndChar

StartChar: glyph189
Encoding: 367 1103 189
Width: 581
VWidth: 0
Flags: W
HStem: 0 20<142 162 332 404 424 432 452 525> 193 20<224 298 362 404> 387 20<224 404 424 432 452 525>
VStem: 102 19<289 311> 129 19<289 311> 404 20<20 193 213 387> 432 20<20 387>
LayerCount: 2
Back
Fore
SplineSet
221 407 m 1
 525 407 l 1
 532 404 l 1
 535 397 l 1
 529 387 l 1
 452 387 l 1
 452 20 l 1
 529 19 l 1
 535 10 l 1
 532 3 l 1
 525 0 l 1
 332 0 l 1
 325 3 l 1
 322 10 l 1
 328 19 l 1
 404 20 l 1
 404 193 l 1
 362 193 l 1
 310 167 l 1
 285 142 l 1
 230 33 l 1
 197 1 l 1
 134 1 l 1
 104 31 l 1
 74 88 l 1
 75 99 l 1
 82 103 l 1
 90 100 l 1
 119 44 l 1
 142 20 l 1
 162 20 l 1
 185 44 l 1
 242 155 l 1
 269 183 l 1
 298 193 l 1
 220 193 l 1
 135 221 l 1
 129 226 l 1
 102 282 l 1
 102 318 l 1
 132 377 l 1
 221 407 l 1
152 363 m 1
 145 361 l 1
 121 311 l 1
 121 289 l 1
 145 239 l 1
 152 237 l 1
 129 282 l 1
 128 314 l 1
 152 363 l 1
224 387 m 1
 173 362 l 1
 148 311 l 1
 148 289 l 1
 173 238 l 1
 224 213 l 1
 404 213 l 1
 404 387 l 1
 224 387 l 1
268 153 m 1
 257 142 l 1
 202 33 l 1
 213 44 l 1
 268 153 l 1
424 20 m 1
 432 20 l 1
 432 387 l 1
 424 387 l 1
 424 20 l 1
EndSplineSet
EndChar

StartChar: glyph190
Encoding: 368 1488 190
Width: 551
VWidth: 0
Flags: W
HStem: 1 20G<75 125 461 475>
VStem: 72 20<95 106 454 465> 127 20<80 90> 377 18<427 446> 458 20<52 63 393 418>
LayerCount: 2
Back
Fore
SplineSet
72 452 m 1
 72 510 l 1
 77 516 l 1
 85 517 l 1
 91 512 l 1
 118 458 l 1
 316 259 l 1
 417 359 l 1
 409 360 l 1
 404 365 l 1
 377 420 l 1
 375 507 l 1
 378 514 l 1
 385 517 l 1
 393 514 l 1
 421 459 l 1
 476 431 l 1
 478 424 l 1
 478 369 l 1
 475 362 l 1
 468 359 l 1
 445 359 l 1
 331 245 l 1
 450 125 l 1
 478 65 l 1
 478 10 l 1
 475 3 l 1
 468 0 l 1
 461 3 l 1
 432 59 l 1
 206 286 l 1
 119 199 l 1
 119 150 l 1
 147 93 l 1
 146 34 l 1
 141 29 l 1
 85 1 l 1
 75 3 l 1
 72 14 l 1
 97 40 l 1
 72 93 l 1
 72 151 l 1
 102 210 l 1
 192 300 l 1
 102 390 l 1
 72 452 l 1
92 465 m 1
 92 454 l 1
 103 432 l 1
 114 433 l 1
 100 447 l 1
 92 465 l 1
441 379 m 1
 444 379 l 1
 406 417 l 1
 395 446 l 1
 395 427 l 1
 419 379 l 1
 441 379 l 1
458 393 m 1
 458 418 l 1
 419 438 l 1
 422 430 l 1
 458 393 l 1
436 84 m 1
 450 70 l 1
 458 52 l 1
 458 63 l 1
 447 85 l 1
 436 84 l 1
99 161 m 1
 93 148 l 1
 127 80 l 1
 127 90 l 1
 100 144 l 1
 99 161 l 1
92 106 m 1
 92 95 l 1
 119 40 l 1
 123 42 l 1
 92 106 l 1
EndSplineSet
EndChar

StartChar: glyph191
Encoding: 369 8242 191
Width: 220
VWidth: 0
Flags: W
HStem: 388 210 580 20G<104 120 133 146>
VStem: 128 18<587 593>
LayerCount: 2
Back
Fore
SplineSet
72 398 m 1xa0
 100 591 l 1
 104 598 l 1xa0
 111 600 l 1
 120 592 l 1
 113 540 l 1
 128 593 l 1
 133 599 l 1
 140 600 l 1x60
 146 595 l 1
 147 587 l 1
 92 394 l 1
 87 388 l 1
 81 387 l 1
 74 391 l 1
 72 398 l 1xa0
EndSplineSet
EndChar

StartChar: glyph192
Encoding: 370 8243 192
Width: 443
VWidth: 0
Flags: W
HStem: 388 210 580 20G<105 120 133 147 325 341 354 368>
VStem: 101 13<542.75 591> 129 18<587 593> 349 19<587 593>
LayerCount: 2
Back
Fore
SplineSet
294 398 m 1xb8
 322 591 l 1
 325 598 l 1xb8
 333 600 l 1
 341 592 l 1
 334 540 l 1
 349 593 l 1
 354 599 l 1
 362 600 l 1x78
 368 595 l 1
 369 587 l 1
 313 394 l 1
 309 388 l 1
 301 387 l 1
 296 391 l 1
 294 398 l 1xb8
73 398 m 1
 101 591 l 1
 105 598 l 1xb8
 112 600 l 1
 120 592 l 1
 114 540 l 1
 129 593 l 1
 133 599 l 1
 141 600 l 1x78
 147 595 l 1
 148 587 l 1
 93 394 l 1
 88 388 l 1
 80 387 l 1
 75 391 l 1
 73 398 l 1
EndSplineSet
EndChar

StartChar: glyph193
Encoding: 371 9001 193
Width: 386
VWidth: 0
Flags: W
HStem: -193 21G<267 280>
VStem: 73 212
LayerCount: 2
Back
Fore
SplineSet
73 263 m 1
 267 704 l 1
 272 710 l 1
 280 710 l 1
 285 704 l 1
 285 696 l 1
 93 259 l 1
 285 -179 l 1
 285 -187 l 1
 280 -192 l 1
 272 -193 l 1
 267 -187 l 1
 73 255 l 1
 73 263 l 1
EndSplineSet
EndChar

StartChar: glyph194
Encoding: 372 9002 194
Width: 385
VWidth: 0
Flags: W
HStem: -193 21G<105 118>
VStem: 100 212
LayerCount: 2
Back
Fore
SplineSet
292 259 m 1
 100 696 l 1
 100 704 l 1
 105 710 l 1
 113 710 l 1
 118 704 l 1
 312 259 l 1
 118 -187 l 1
 113 -193 l 1
 105 -192 l 1
 100 -187 l 1
 100 -179 l 1
 292 259 l 1
EndSplineSet
EndChar

